<svg width="780" height="280" viewBox="0 0 780 280" fill="none" xmlns="http://www.w3.org/2000/svg">
<rect width="780" height="280" rx="8" fill="#F2F3F5"/>
<g filter="url(#filter0_d_1510_1033)">
<path d="M70 48C70 43.5817 73.5817 40 78 40H362C366.418 40 370 43.5817 370 48V190H70V48Z" fill="#0858CE"/>
<path d="M179.992 124V108.304H184.936C186.104 108.304 187.144 108.456 188.056 108.76C188.968 109.064 189.688 109.568 190.216 110.272C190.744 110.976 191.008 111.936 191.008 113.152C191.008 114.304 190.744 115.256 190.216 116.008C189.688 116.76 188.976 117.32 188.08 117.688C187.184 118.056 186.168 118.24 185.032 118.24H182.776V124H179.992ZM182.776 116.008H184.816C187.12 116.008 188.272 115.056 188.272 113.152C188.272 112.16 187.968 111.48 187.36 111.112C186.768 110.728 185.888 110.536 184.72 110.536H182.776V116.008ZM193.721 124V112.216H196.001L196.193 114.304H196.289C196.705 113.536 197.209 112.952 197.801 112.552C198.393 112.136 199.001 111.928 199.625 111.928C200.185 111.928 200.633 112.008 200.969 112.168L200.489 114.568C200.281 114.504 200.089 114.456 199.913 114.424C199.737 114.392 199.521 114.376 199.265 114.376C198.801 114.376 198.313 114.56 197.801 114.928C197.289 115.28 196.849 115.904 196.481 116.8V124H193.721ZM202.674 124V112.216H205.434V124H202.674ZM204.066 110.152C203.57 110.152 203.17 110.008 202.866 109.72C202.562 109.432 202.41 109.048 202.41 108.568C202.41 108.104 202.562 107.728 202.866 107.44C203.17 107.152 203.57 107.008 204.066 107.008C204.562 107.008 204.962 107.152 205.266 107.44C205.57 107.728 205.722 108.104 205.722 108.568C205.722 109.048 205.57 109.432 205.266 109.72C204.962 110.008 204.562 110.152 204.066 110.152ZM208.955 124V112.216H211.235L211.427 113.824H211.523C212.019 113.296 212.555 112.848 213.131 112.48C213.723 112.112 214.387 111.928 215.123 111.928C215.987 111.928 216.675 112.12 217.187 112.504C217.715 112.872 218.115 113.384 218.387 114.04C218.947 113.432 219.531 112.928 220.139 112.528C220.763 112.128 221.443 111.928 222.179 111.928C223.427 111.928 224.347 112.336 224.939 113.152C225.531 113.968 225.827 115.12 225.827 116.608V124H223.043V116.968C223.043 115.992 222.891 115.304 222.587 114.904C222.299 114.504 221.851 114.304 221.243 114.304C220.507 114.304 219.683 114.792 218.771 115.768V124H216.011V116.968C216.011 115.992 215.859 115.304 215.555 114.904C215.267 114.504 214.811 114.304 214.187 114.304C213.451 114.304 212.627 114.792 211.715 115.768V124H208.955ZM232.038 124.288C231.014 124.288 230.174 123.968 229.518 123.328C228.878 122.688 228.558 121.856 228.558 120.832C228.558 119.568 229.11 118.592 230.214 117.904C231.318 117.2 233.078 116.72 235.494 116.464C235.478 115.84 235.31 115.304 234.99 114.856C234.686 114.392 234.134 114.16 233.334 114.16C232.758 114.16 232.19 114.272 231.63 114.496C231.086 114.72 230.55 114.992 230.022 115.312L229.014 113.464C229.67 113.048 230.406 112.688 231.222 112.384C232.054 112.08 232.934 111.928 233.862 111.928C235.334 111.928 236.43 112.368 237.15 113.248C237.886 114.112 238.254 115.368 238.254 117.016V124H235.974L235.782 122.704H235.686C235.158 123.152 234.59 123.528 233.982 123.832C233.39 124.136 232.742 124.288 232.038 124.288ZM232.926 122.128C233.406 122.128 233.838 122.016 234.222 121.792C234.622 121.552 235.046 121.232 235.494 120.832V118.192C233.894 118.4 232.782 118.712 232.158 119.128C231.534 119.528 231.222 120.024 231.222 120.616C231.222 121.144 231.382 121.528 231.702 121.768C232.022 122.008 232.43 122.128 232.926 122.128ZM241.557 124V112.216H243.837L244.029 114.304H244.125C244.541 113.536 245.045 112.952 245.637 112.552C246.229 112.136 246.837 111.928 247.461 111.928C248.021 111.928 248.469 112.008 248.805 112.168L248.325 114.568C248.117 114.504 247.925 114.456 247.749 114.424C247.573 114.392 247.357 114.376 247.101 114.376C246.637 114.376 246.149 114.56 245.637 114.928C245.125 115.28 244.685 115.904 244.317 116.8V124H241.557ZM251.677 128.848C251.357 128.848 251.077 128.824 250.837 128.776C250.597 128.728 250.365 128.672 250.141 128.608L250.645 126.448C250.757 126.48 250.885 126.512 251.029 126.544C251.189 126.592 251.341 126.616 251.485 126.616C252.109 126.616 252.605 126.424 252.973 126.04C253.357 125.672 253.645 125.192 253.837 124.6L254.053 123.856L249.421 112.216H252.229L254.269 118C254.445 118.512 254.613 119.056 254.773 119.632C254.949 120.192 255.125 120.752 255.301 121.312H255.397C255.541 120.768 255.685 120.216 255.829 119.656C255.989 119.08 256.141 118.528 256.285 118L258.061 112.216H260.725L256.453 124.528C255.957 125.856 255.357 126.904 254.653 127.672C253.949 128.456 252.957 128.848 251.677 128.848Z" fill="#FCFCFD"/>
<rect width="37.5" height="50" transform="translate(70 190)" fill="#EBF3FE"/>
<path d="M84.026 224V221.744H87.434V211.712H84.626V209.984C85.378 209.84 86.034 209.672 86.594 209.48C87.154 209.272 87.674 209.024 88.154 208.736H90.218V221.744H93.218V224H84.026Z" fill="#282B33"/>
<rect width="37.5" height="50" transform="translate(107.5 190)" fill="#B5D2FC"/>
<path d="M120.662 224V222.392C122.086 221.016 123.31 219.792 124.334 218.72C125.374 217.632 126.174 216.648 126.734 215.768C127.294 214.872 127.574 214.04 127.574 213.272C127.574 212.472 127.358 211.832 126.926 211.352C126.494 210.872 125.87 210.632 125.054 210.632C124.462 210.632 123.918 210.8 123.422 211.136C122.942 211.472 122.494 211.872 122.078 212.336L120.542 210.8C121.246 210.048 121.974 209.472 122.726 209.072C123.478 208.656 124.374 208.448 125.414 208.448C126.886 208.448 128.054 208.872 128.918 209.72C129.798 210.568 130.238 211.704 130.238 213.128C130.238 214.024 129.982 214.944 129.47 215.888C128.974 216.816 128.302 217.768 127.454 218.744C126.622 219.72 125.702 220.744 124.694 221.816C125.094 221.784 125.526 221.752 125.99 221.72C126.454 221.672 126.87 221.648 127.238 221.648H130.982V224H120.662Z" fill="#282B33"/>
<rect width="37.5" height="50" transform="translate(145 190)" fill="#84B4FA"/>
<path d="M163.01 224.288C161.778 224.288 160.738 224.08 159.89 223.664C159.058 223.232 158.37 222.72 157.826 222.128L159.146 220.352C159.61 220.816 160.138 221.216 160.73 221.552C161.322 221.872 162.002 222.032 162.77 222.032C163.602 222.032 164.274 221.832 164.786 221.432C165.314 221.016 165.578 220.448 165.578 219.728C165.578 219.2 165.442 218.744 165.17 218.36C164.914 217.96 164.458 217.656 163.802 217.448C163.162 217.24 162.258 217.136 161.09 217.136V215.12C162.594 215.12 163.634 214.888 164.21 214.424C164.786 213.96 165.074 213.376 165.074 212.672C165.074 212.032 164.874 211.536 164.474 211.184C164.074 210.816 163.522 210.632 162.818 210.632C162.226 210.632 161.682 210.768 161.186 211.04C160.69 211.296 160.21 211.64 159.746 212.072L158.33 210.368C158.986 209.792 159.682 209.328 160.418 208.976C161.17 208.624 162.002 208.448 162.914 208.448C164.386 208.448 165.578 208.8 166.49 209.504C167.402 210.192 167.858 211.184 167.858 212.48C167.858 213.328 167.618 214.048 167.138 214.64C166.674 215.216 166.026 215.664 165.194 215.984V216.08C166.09 216.32 166.842 216.76 167.45 217.4C168.058 218.04 168.362 218.864 168.362 219.872C168.362 220.8 168.114 221.592 167.618 222.248C167.138 222.904 166.49 223.408 165.674 223.76C164.874 224.112 163.986 224.288 163.01 224.288Z" fill="#282B33"/>
<rect width="37.5" height="50" transform="translate(182.5 190)" fill="#5396F8"/>
<path d="M197.918 217.928H201.926V214.472C201.926 214.024 201.942 213.496 201.974 212.888C202.006 212.28 202.03 211.752 202.046 211.304H201.95C201.758 211.704 201.558 212.096 201.35 212.48C201.142 212.864 200.926 213.264 200.702 213.68L197.918 217.928ZM201.926 224V220.064H195.182V218.192L201.23 208.736H204.518V217.928H206.438V220.064H204.518V224H201.926Z" fill="#282B33"/>
<rect width="37.5" height="50" transform="translate(220 190)" fill="#146FF5"/>
<path d="M238.034 224.288C236.802 224.288 235.762 224.08 234.914 223.664C234.082 223.232 233.386 222.736 232.826 222.176L234.098 220.4C234.562 220.832 235.082 221.216 235.658 221.552C236.234 221.872 236.906 222.032 237.674 222.032C238.522 222.032 239.226 221.776 239.786 221.264C240.346 220.752 240.626 220.032 240.626 219.104C240.626 218.192 240.37 217.488 239.858 216.992C239.346 216.496 238.666 216.248 237.818 216.248C237.322 216.248 236.906 216.32 236.57 216.464C236.234 216.592 235.834 216.808 235.37 217.112L234.05 216.272L234.506 208.736H242.666V211.064H236.906L236.594 214.76C236.914 214.6 237.226 214.48 237.53 214.4C237.85 214.304 238.21 214.256 238.61 214.256C239.49 214.256 240.29 214.424 241.01 214.76C241.73 215.096 242.306 215.616 242.738 216.32C243.186 217.024 243.41 217.928 243.41 219.032C243.41 220.136 243.154 221.08 242.642 221.864C242.146 222.648 241.49 223.248 240.674 223.664C239.858 224.08 238.978 224.288 238.034 224.288Z" fill="#FCFCFD"/>
<rect width="37.5" height="50" transform="translate(257.5 190)" fill="#0858CE"/>
<path d="M276.182 216.56C275.75 216.56 275.294 216.696 274.814 216.968C274.334 217.224 273.878 217.672 273.446 218.312C273.59 219.672 273.918 220.656 274.43 221.264C274.942 221.872 275.566 222.176 276.302 222.176C276.942 222.176 277.478 221.928 277.91 221.432C278.358 220.92 278.582 220.2 278.582 219.272C278.582 218.376 278.366 217.704 277.934 217.256C277.518 216.792 276.934 216.56 276.182 216.56ZM276.35 224.288C275.358 224.288 274.438 224.024 273.59 223.496C272.742 222.968 272.062 222.152 271.55 221.048C271.054 219.944 270.806 218.536 270.806 216.824C270.806 214.84 271.086 213.24 271.646 212.024C272.222 210.792 272.966 209.888 273.878 209.312C274.79 208.736 275.766 208.448 276.806 208.448C277.734 208.448 278.534 208.616 279.206 208.952C279.878 209.288 280.438 209.696 280.886 210.176L279.398 211.856C279.126 211.52 278.766 211.248 278.318 211.04C277.886 210.816 277.438 210.704 276.974 210.704C276.334 210.704 275.75 210.88 275.222 211.232C274.694 211.584 274.262 212.176 273.926 213.008C273.606 213.824 273.422 214.936 273.374 216.344C273.822 215.784 274.35 215.344 274.958 215.024C275.566 214.704 276.142 214.544 276.686 214.544C278.014 214.544 279.086 214.936 279.902 215.72C280.734 216.488 281.15 217.672 281.15 219.272C281.15 220.28 280.926 221.16 280.478 221.912C280.046 222.664 279.47 223.248 278.75 223.664C278.03 224.08 277.23 224.288 276.35 224.288Z" fill="#FCFCFD"/>
<rect width="37.5" height="50" transform="translate(295 190)" fill="#06439D"/>
<path d="M311.282 224C311.378 222.192 311.57 220.576 311.858 219.152C312.146 217.712 312.586 216.344 313.178 215.048C313.77 213.752 314.554 212.424 315.53 211.064H308.306V208.736H318.554V210.416C317.658 211.52 316.93 212.576 316.37 213.584C315.826 214.592 315.394 215.616 315.074 216.656C314.77 217.68 314.546 218.792 314.402 219.992C314.258 221.176 314.154 222.512 314.09 224H311.282Z" fill="#FCFCFD"/>
<rect width="37.5" height="50" transform="translate(332.5 190)" fill="#042A62"/>
<path d="M350.918 224.288C349.926 224.288 349.038 224.112 348.254 223.76C347.47 223.392 346.854 222.896 346.406 222.272C345.958 221.648 345.734 220.92 345.734 220.088C345.734 219.144 346.014 218.352 346.574 217.712C347.134 217.072 347.774 216.56 348.494 216.176V216.08C347.902 215.664 347.398 215.168 346.982 214.592C346.582 214 346.382 213.304 346.382 212.504C346.382 211.672 346.582 210.96 346.982 210.368C347.382 209.76 347.926 209.288 348.614 208.952C349.318 208.616 350.11 208.448 350.99 208.448C352.366 208.448 353.454 208.832 354.254 209.6C355.07 210.352 355.478 211.344 355.478 212.576C355.478 213.328 355.262 214.008 354.83 214.616C354.398 215.224 353.934 215.712 353.438 216.08V216.176C354.142 216.576 354.758 217.08 355.286 217.688C355.814 218.296 356.078 219.112 356.078 220.136C356.078 220.92 355.862 221.624 355.43 222.248C354.998 222.872 354.398 223.368 353.63 223.736C352.862 224.104 351.958 224.288 350.918 224.288ZM351.926 215.384C352.342 214.968 352.654 214.544 352.862 214.112C353.086 213.68 353.198 213.224 353.198 212.744C353.198 212.072 352.998 211.52 352.598 211.088C352.198 210.64 351.646 210.416 350.942 210.416C350.35 210.416 349.854 210.6 349.454 210.968C349.054 211.336 348.854 211.848 348.854 212.504C348.854 213.016 348.99 213.448 349.262 213.8C349.534 214.136 349.902 214.432 350.366 214.688C350.846 214.928 351.366 215.16 351.926 215.384ZM350.966 222.32C351.702 222.32 352.302 222.12 352.766 221.72C353.246 221.304 353.486 220.744 353.486 220.04C353.486 219.48 353.318 219.024 352.982 218.672C352.662 218.32 352.222 218.016 351.662 217.76C351.118 217.488 350.502 217.216 349.814 216.944C349.334 217.296 348.934 217.712 348.614 218.192C348.31 218.672 348.158 219.208 348.158 219.8C348.158 220.552 348.43 221.16 348.974 221.624C349.518 222.088 350.182 222.32 350.966 222.32Z" fill="#FCFCFD"/>
</g>
<g filter="url(#filter1_d_1510_1033)">
<path d="M410 48C410 43.5817 413.582 40 418 40H702C706.418 40 710 43.5817 710 48V190H410V48Z" fill="#505566"/>
<path d="M522.992 124V108.304H525.848L530.744 117.136L532.352 120.472H532.448C532.384 119.672 532.304 118.8 532.208 117.856C532.128 116.912 532.088 116 532.088 115.12V108.304H534.752V124H531.896L527 115.168L525.392 111.832H525.296C525.36 112.664 525.432 113.536 525.512 114.448C525.608 115.36 525.656 116.256 525.656 117.136V124H522.992ZM543.542 124.288C542.454 124.288 541.47 124.048 540.59 123.568C539.71 123.072 539.014 122.368 538.502 121.456C537.99 120.528 537.734 119.416 537.734 118.12C537.734 116.84 537.99 115.736 538.502 114.808C539.03 113.88 539.71 113.168 540.542 112.672C541.374 112.176 542.246 111.928 543.158 111.928C544.23 111.928 545.126 112.168 545.846 112.648C546.566 113.112 547.11 113.768 547.478 114.616C547.846 115.448 548.03 116.416 548.03 117.52C548.03 118.096 547.99 118.544 547.91 118.864H540.422C540.55 119.904 540.926 120.712 541.55 121.288C542.174 121.864 542.958 122.152 543.902 122.152C544.414 122.152 544.886 122.08 545.318 121.936C545.766 121.776 546.206 121.56 546.638 121.288L547.574 123.016C547.014 123.384 546.39 123.688 545.702 123.928C545.014 124.168 544.294 124.288 543.542 124.288ZM540.398 116.992H545.63C545.63 116.08 545.43 115.368 545.03 114.856C544.63 114.328 544.03 114.064 543.23 114.064C542.542 114.064 541.926 114.32 541.382 114.832C540.854 115.328 540.526 116.048 540.398 116.992ZM554.17 124.288C552.906 124.288 551.986 123.88 551.41 123.064C550.834 122.248 550.546 121.096 550.546 119.608V112.216H553.306V119.248C553.306 120.224 553.45 120.912 553.738 121.312C554.026 121.712 554.49 121.912 555.13 121.912C555.642 121.912 556.09 121.784 556.474 121.528C556.874 121.272 557.298 120.856 557.746 120.28V112.216H560.506V124H558.25L558.034 122.272H557.962C557.45 122.88 556.89 123.368 556.282 123.736C555.674 124.104 554.97 124.288 554.17 124.288ZM568.154 124.288C566.794 124.288 565.826 123.896 565.25 123.112C564.69 122.312 564.41 121.28 564.41 120.016V114.4H562.73V112.336L564.554 112.216L564.89 109H567.194V112.216H570.194V114.4H567.194V120.016C567.194 121.392 567.746 122.08 568.85 122.08C569.058 122.08 569.274 122.056 569.498 122.008C569.722 121.944 569.914 121.88 570.074 121.816L570.554 123.856C570.234 123.968 569.866 124.064 569.45 124.144C569.05 124.24 568.618 124.288 568.154 124.288ZM572.674 124V112.216H574.954L575.146 114.304H575.242C575.658 113.536 576.162 112.952 576.754 112.552C577.346 112.136 577.954 111.928 578.578 111.928C579.138 111.928 579.586 112.008 579.922 112.168L579.442 114.568C579.234 114.504 579.042 114.456 578.866 114.424C578.69 114.392 578.474 114.376 578.218 114.376C577.754 114.376 577.266 114.56 576.754 114.928C576.242 115.28 575.802 115.904 575.434 116.8V124H572.674ZM583.85 124.288C582.826 124.288 581.986 123.968 581.33 123.328C580.69 122.688 580.37 121.856 580.37 120.832C580.37 119.568 580.922 118.592 582.026 117.904C583.13 117.2 584.89 116.72 587.306 116.464C587.29 115.84 587.122 115.304 586.802 114.856C586.498 114.392 585.946 114.16 585.146 114.16C584.57 114.16 584.002 114.272 583.442 114.496C582.898 114.72 582.362 114.992 581.834 115.312L580.826 113.464C581.482 113.048 582.218 112.688 583.034 112.384C583.866 112.08 584.746 111.928 585.674 111.928C587.146 111.928 588.242 112.368 588.962 113.248C589.698 114.112 590.066 115.368 590.066 117.016V124H587.786L587.594 122.704H587.498C586.97 123.152 586.402 123.528 585.794 123.832C585.202 124.136 584.554 124.288 583.85 124.288ZM584.738 122.128C585.218 122.128 585.65 122.016 586.034 121.792C586.434 121.552 586.858 121.232 587.306 120.832V118.192C585.706 118.4 584.594 118.712 583.97 119.128C583.346 119.528 583.034 120.024 583.034 120.616C583.034 121.144 583.194 121.528 583.514 121.768C583.834 122.008 584.242 122.128 584.738 122.128ZM596.057 124.288C595.081 124.288 594.385 123.992 593.969 123.4C593.569 122.808 593.369 122 593.369 120.976V107.056H596.129V121.12C596.129 121.456 596.193 121.696 596.321 121.84C596.449 121.968 596.585 122.032 596.729 122.032C596.793 122.032 596.849 122.032 596.897 122.032C596.961 122.016 597.049 122 597.161 121.984L597.521 124.048C597.361 124.112 597.153 124.168 596.897 124.216C596.657 124.264 596.377 124.288 596.057 124.288Z" fill="#FCFCFD"/>
<rect width="37.5" height="50" transform="translate(410 190)" fill="#FCFCFD"/>
<path d="M424.026 224V221.744H427.434V211.712H424.626V209.984C425.378 209.84 426.034 209.672 426.594 209.48C427.154 209.272 427.674 209.024 428.154 208.736H430.218V221.744H433.218V224H424.026Z" fill="#282B33"/>
<rect width="37.5" height="50" transform="translate(447.5 190)" fill="#F2F3F5"/>
<path d="M460.662 224V222.392C462.086 221.016 463.31 219.792 464.334 218.72C465.374 217.632 466.174 216.648 466.734 215.768C467.294 214.872 467.574 214.04 467.574 213.272C467.574 212.472 467.358 211.832 466.926 211.352C466.494 210.872 465.87 210.632 465.054 210.632C464.462 210.632 463.918 210.8 463.422 211.136C462.942 211.472 462.494 211.872 462.078 212.336L460.542 210.8C461.246 210.048 461.974 209.472 462.726 209.072C463.478 208.656 464.374 208.448 465.414 208.448C466.886 208.448 468.054 208.872 468.918 209.72C469.798 210.568 470.238 211.704 470.238 213.128C470.238 214.024 469.982 214.944 469.47 215.888C468.974 216.816 468.302 217.768 467.454 218.744C466.622 219.72 465.702 220.744 464.694 221.816C465.094 221.784 465.526 221.752 465.99 221.72C466.454 221.672 466.87 221.648 467.238 221.648H470.982V224H460.662Z" fill="#282B33"/>
<rect width="37.5" height="50" transform="translate(485 190)" fill="#E4E6EB"/>
<path d="M503.01 224.288C501.778 224.288 500.738 224.08 499.89 223.664C499.058 223.232 498.37 222.72 497.826 222.128L499.146 220.352C499.61 220.816 500.138 221.216 500.73 221.552C501.322 221.872 502.002 222.032 502.77 222.032C503.602 222.032 504.274 221.832 504.786 221.432C505.314 221.016 505.578 220.448 505.578 219.728C505.578 219.2 505.442 218.744 505.17 218.36C504.914 217.96 504.458 217.656 503.802 217.448C503.162 217.24 502.258 217.136 501.09 217.136V215.12C502.594 215.12 503.634 214.888 504.21 214.424C504.786 213.96 505.074 213.376 505.074 212.672C505.074 212.032 504.874 211.536 504.474 211.184C504.074 210.816 503.522 210.632 502.818 210.632C502.226 210.632 501.682 210.768 501.186 211.04C500.69 211.296 500.21 211.64 499.746 212.072L498.33 210.368C498.986 209.792 499.682 209.328 500.418 208.976C501.17 208.624 502.002 208.448 502.914 208.448C504.386 208.448 505.578 208.8 506.49 209.504C507.402 210.192 507.858 211.184 507.858 212.48C507.858 213.328 507.618 214.048 507.138 214.64C506.674 215.216 506.026 215.664 505.194 215.984V216.08C506.09 216.32 506.842 216.76 507.45 217.4C508.058 218.04 508.362 218.864 508.362 219.872C508.362 220.8 508.114 221.592 507.618 222.248C507.138 222.904 506.49 223.408 505.674 223.76C504.874 224.112 503.986 224.288 503.01 224.288Z" fill="#282B33"/>
<rect width="37.5" height="50" transform="translate(522.5 190)" fill="#CED2DB"/>
<path d="M537.918 217.928H541.926V214.472C541.926 214.024 541.942 213.496 541.974 212.888C542.006 212.28 542.03 211.752 542.046 211.304H541.95C541.758 211.704 541.558 212.096 541.35 212.48C541.142 212.864 540.926 213.264 540.702 213.68L537.918 217.928ZM541.926 224V220.064H535.182V218.192L541.23 208.736H544.518V217.928H546.438V220.064H544.518V224H541.926Z" fill="#282B33"/>
<rect width="37.5" height="50" transform="translate(560 190)" fill="#AEB2BD"/>
<path d="M578.034 224.288C576.802 224.288 575.762 224.08 574.914 223.664C574.082 223.232 573.386 222.736 572.826 222.176L574.098 220.4C574.562 220.832 575.082 221.216 575.658 221.552C576.234 221.872 576.906 222.032 577.674 222.032C578.522 222.032 579.226 221.776 579.786 221.264C580.346 220.752 580.626 220.032 580.626 219.104C580.626 218.192 580.37 217.488 579.858 216.992C579.346 216.496 578.666 216.248 577.818 216.248C577.322 216.248 576.906 216.32 576.57 216.464C576.234 216.592 575.834 216.808 575.37 217.112L574.05 216.272L574.506 208.736H582.666V211.064H576.906L576.594 214.76C576.914 214.6 577.226 214.48 577.53 214.4C577.85 214.304 578.21 214.256 578.61 214.256C579.49 214.256 580.29 214.424 581.01 214.76C581.73 215.096 582.306 215.616 582.738 216.32C583.186 217.024 583.41 217.928 583.41 219.032C583.41 220.136 583.154 221.08 582.642 221.864C582.146 222.648 581.49 223.248 580.674 223.664C579.858 224.08 578.978 224.288 578.034 224.288Z" fill="#282B33"/>
<rect width="37.5" height="50" transform="translate(597.5 190)" fill="#8D93A5"/>
<path d="M616.182 216.56C615.75 216.56 615.294 216.696 614.814 216.968C614.334 217.224 613.878 217.672 613.446 218.312C613.59 219.672 613.918 220.656 614.43 221.264C614.942 221.872 615.566 222.176 616.302 222.176C616.942 222.176 617.478 221.928 617.91 221.432C618.358 220.92 618.582 220.2 618.582 219.272C618.582 218.376 618.366 217.704 617.934 217.256C617.518 216.792 616.934 216.56 616.182 216.56ZM616.35 224.288C615.358 224.288 614.438 224.024 613.59 223.496C612.742 222.968 612.062 222.152 611.55 221.048C611.054 219.944 610.806 218.536 610.806 216.824C610.806 214.84 611.086 213.24 611.646 212.024C612.222 210.792 612.966 209.888 613.878 209.312C614.79 208.736 615.766 208.448 616.806 208.448C617.734 208.448 618.534 208.616 619.206 208.952C619.878 209.288 620.438 209.696 620.886 210.176L619.398 211.856C619.126 211.52 618.766 211.248 618.318 211.04C617.886 210.816 617.438 210.704 616.974 210.704C616.334 210.704 615.75 210.88 615.222 211.232C614.694 211.584 614.262 212.176 613.926 213.008C613.606 213.824 613.422 214.936 613.374 216.344C613.822 215.784 614.35 215.344 614.958 215.024C615.566 214.704 616.142 214.544 616.686 214.544C618.014 214.544 619.086 214.936 619.902 215.72C620.734 216.488 621.15 217.672 621.15 219.272C621.15 220.28 620.926 221.16 620.478 221.912C620.046 222.664 619.47 223.248 618.75 223.664C618.03 224.08 617.23 224.288 616.35 224.288Z" fill="#282B33"/>
<rect width="37.5" height="50" transform="translate(635 190)" fill="#505566"/>
<path d="M651.282 224C651.378 222.192 651.57 220.576 651.858 219.152C652.146 217.712 652.586 216.344 653.178 215.048C653.77 213.752 654.554 212.424 655.53 211.064H648.306V208.736H658.554V210.416C657.658 211.52 656.93 212.576 656.37 213.584C655.826 214.592 655.394 215.616 655.074 216.656C654.77 217.68 654.546 218.792 654.402 219.992C654.258 221.176 654.154 222.512 654.09 224H651.282Z" fill="#FCFCFD"/>
<rect width="37.5" height="50" transform="translate(672.5 190)" fill="#282B33"/>
<path d="M690.918 224.288C689.926 224.288 689.038 224.112 688.254 223.76C687.47 223.392 686.854 222.896 686.406 222.272C685.958 221.648 685.734 220.92 685.734 220.088C685.734 219.144 686.014 218.352 686.574 217.712C687.134 217.072 687.774 216.56 688.494 216.176V216.08C687.902 215.664 687.398 215.168 686.982 214.592C686.582 214 686.382 213.304 686.382 212.504C686.382 211.672 686.582 210.96 686.982 210.368C687.382 209.76 687.926 209.288 688.614 208.952C689.318 208.616 690.11 208.448 690.99 208.448C692.366 208.448 693.454 208.832 694.254 209.6C695.07 210.352 695.478 211.344 695.478 212.576C695.478 213.328 695.262 214.008 694.83 214.616C694.398 215.224 693.934 215.712 693.438 216.08V216.176C694.142 216.576 694.758 217.08 695.286 217.688C695.814 218.296 696.078 219.112 696.078 220.136C696.078 220.92 695.862 221.624 695.43 222.248C694.998 222.872 694.398 223.368 693.63 223.736C692.862 224.104 691.958 224.288 690.918 224.288ZM691.926 215.384C692.342 214.968 692.654 214.544 692.862 214.112C693.086 213.68 693.198 213.224 693.198 212.744C693.198 212.072 692.998 211.52 692.598 211.088C692.198 210.64 691.646 210.416 690.942 210.416C690.35 210.416 689.854 210.6 689.454 210.968C689.054 211.336 688.854 211.848 688.854 212.504C688.854 213.016 688.99 213.448 689.262 213.8C689.534 214.136 689.902 214.432 690.366 214.688C690.846 214.928 691.366 215.16 691.926 215.384ZM690.966 222.32C691.702 222.32 692.302 222.12 692.766 221.72C693.246 221.304 693.486 220.744 693.486 220.04C693.486 219.48 693.318 219.024 692.982 218.672C692.662 218.32 692.222 218.016 691.662 217.76C691.118 217.488 690.502 217.216 689.814 216.944C689.334 217.296 688.934 217.712 688.614 218.192C688.31 218.672 688.158 219.208 688.158 219.8C688.158 220.552 688.43 221.16 688.974 221.624C689.518 222.088 690.182 222.32 690.966 222.32Z" fill="#FCFCFD"/>
</g>
<defs>
<filter id="filter0_d_1510_1033" x="66" y="36" width="308" height="208" filterUnits="userSpaceOnUse" color-interpolation-filters="sRGB">
<feFlood flood-opacity="0" result="BackgroundImageFix"/>
<feColorMatrix in="SourceAlpha" type="matrix" values="0 0 0 0 0 0 0 0 0 0 0 0 0 0 0 0 0 0 127 0" result="hardAlpha"/>
<feOffset/>
<feGaussianBlur stdDeviation="2"/>
<feComposite in2="hardAlpha" operator="out"/>
<feColorMatrix type="matrix" values="0 0 0 0 0 0 0 0 0 0 0 0 0 0 0 0 0 0 0.15 0"/>
<feBlend mode="normal" in2="BackgroundImageFix" result="effect1_dropShadow_1510_1033"/>
<feBlend mode="normal" in="SourceGraphic" in2="effect1_dropShadow_1510_1033" result="shape"/>
</filter>
<filter id="filter1_d_1510_1033" x="406" y="36" width="308" height="208" filterUnits="userSpaceOnUse" color-interpolation-filters="sRGB">
<feFlood flood-opacity="0" result="BackgroundImageFix"/>
<feColorMatrix in="SourceAlpha" type="matrix" values="0 0 0 0 0 0 0 0 0 0 0 0 0 0 0 0 0 0 127 0" result="hardAlpha"/>
<feOffset/>
<feGaussianBlur stdDeviation="2"/>
<feComposite in2="hardAlpha" operator="out"/>
<feColorMatrix type="matrix" values="0 0 0 0 0 0 0 0 0 0 0 0 0 0 0 0 0 0 0.15 0"/>
<feBlend mode="normal" in2="BackgroundImageFix" result="effect1_dropShadow_1510_1033"/>
<feBlend mode="normal" in="SourceGraphic" in2="effect1_dropShadow_1510_1033" result="shape"/>
</filter>
</defs>
</svg>
