<svg width="780" height="168" viewBox="0 0 780 168" fill="none" xmlns="http://www.w3.org/2000/svg">
<rect x="0.5" y="0.5" width="779" height="167" rx="7.5" fill="#FCFCFD"/>
<g clip-path="url(#clip0_1571_894)">
<rect width="120" height="120" transform="translate(90 24)" fill="white"/>
<rect x="105.25" y="39.25" width="89.5" height="89.5" rx="4.75" stroke="#A6E6FA" stroke-width="0.5"/>
<rect x="100.25" y="44.25" width="99.5" height="79.5" rx="4.75" stroke="#A6E6FA" stroke-width="0.5"/>
<rect x="110.25" y="34.25" width="79.5" height="99.5" rx="4.75" stroke="#A6E6FA" stroke-width="0.5"/>
<circle cx="150" cy="84" r="24.75" stroke="#A6E6FA" stroke-width="0.5"/>
<rect x="90.25" y="24.25" width="119.5" height="119.5" stroke="#A6E6FA" stroke-width="0.5"/>
<path d="M150 24V144M170 24V144M130 24V144" stroke="#A6E6FA" stroke-width="0.5"/>
<path d="M210 84L90 84M210 104L90 104M210 64L90 64" stroke="#A6E6FA" stroke-width="0.5"/>
<path d="M90 144L210 24M210 144L90 24" stroke="#A6E6FA" stroke-width="0.5"/>
<circle cx="150" cy="84" r="49.5" fill="#0858CE" fill-opacity="0.25" stroke="#146FF5"/>
</g>
<g clip-path="url(#clip1_1571_894)">
<rect width="120" height="120" transform="translate(250 24)" fill="white"/>
<rect x="265.25" y="39.25" width="89.5" height="89.5" rx="4.75" stroke="#A6E6FA" stroke-width="0.5"/>
<rect x="260.25" y="44.25" width="99.5" height="79.5" rx="4.75" stroke="#A6E6FA" stroke-width="0.5"/>
<circle cx="310" cy="84" r="49.75" stroke="#A6E6FA" stroke-width="0.5"/>
<circle cx="310" cy="84" r="24.75" stroke="#A6E6FA" stroke-width="0.5"/>
<rect x="250.25" y="24.25" width="119.5" height="119.5" stroke="#A6E6FA" stroke-width="0.5"/>
<path d="M310 24V144M330 24V144M290 24V144" stroke="#A6E6FA" stroke-width="0.5"/>
<path d="M370 84L250 84M370 104L250 104M370 64L250 64" stroke="#A6E6FA" stroke-width="0.5"/>
<path d="M250 144L370 24M370 144L250 24" stroke="#A6E6FA" stroke-width="0.5"/>
<rect x="270.5" y="34.5" width="79" height="99" rx="4.5" fill="#0858CE" fill-opacity="0.2" stroke="#146FF5"/>
</g>
<g clip-path="url(#clip2_1571_894)">
<rect width="120" height="120" transform="translate(410 24)" fill="white"/>
<rect x="425.25" y="39.25" width="89.5" height="89.5" rx="4.75" stroke="#A6E6FA" stroke-width="0.5"/>
<rect x="430.25" y="34.25" width="79.5" height="99.5" rx="4.75" stroke="#A6E6FA" stroke-width="0.5"/>
<circle cx="470" cy="84" r="49.75" stroke="#A6E6FA" stroke-width="0.5"/>
<circle cx="470" cy="84" r="24.75" stroke="#A6E6FA" stroke-width="0.5"/>
<rect x="410.25" y="24.25" width="119.5" height="119.5" stroke="#A6E6FA" stroke-width="0.5"/>
<path d="M470 24V144M490 24V144M450 24V144" stroke="#A6E6FA" stroke-width="0.5"/>
<path d="M530 84L410 84M530 104L410 104M530 64L410 64" stroke="#A6E6FA" stroke-width="0.5"/>
<path d="M410 144L530 24M530 144L410 24" stroke="#A6E6FA" stroke-width="0.5"/>
<rect x="420.5" y="44.5" width="99" height="79" rx="4.5" fill="#0858CE" fill-opacity="0.2" stroke="#146FF5"/>
</g>
<g clip-path="url(#clip3_1571_894)">
<rect width="120" height="120" transform="translate(570 24)" fill="white"/>
<rect x="580.25" y="44.25" width="99.5" height="79.5" rx="4.75" stroke="#A6E6FA" stroke-width="0.5"/>
<rect x="590.25" y="34.25" width="79.5" height="99.5" rx="4.75" stroke="#A6E6FA" stroke-width="0.5"/>
<circle cx="630" cy="84" r="49.75" stroke="#A6E6FA" stroke-width="0.5"/>
<circle cx="630" cy="84" r="24.75" stroke="#A6E6FA" stroke-width="0.5"/>
<rect x="570.25" y="24.25" width="119.5" height="119.5" stroke="#A6E6FA" stroke-width="0.5"/>
<path d="M630 24V144M650 24V144M610 24V144" stroke="#A6E6FA" stroke-width="0.5"/>
<path d="M690 84L570 84M690 104L570 104M690 64L570 64" stroke="#A6E6FA" stroke-width="0.5"/>
<path d="M570 144L690 24M690 144L570 24" stroke="#A6E6FA" stroke-width="0.5"/>
<rect x="585.5" y="39.5" width="89" height="89" rx="4.5" fill="#0858CE" fill-opacity="0.2" stroke="#146FF5"/>
</g>
<rect x="0.5" y="0.5" width="779" height="167" rx="7.5" stroke="#CED2DB"/>
<defs>
<clipPath id="clip0_1571_894">
<rect width="120" height="120" fill="white" transform="translate(90 24)"/>
</clipPath>
<clipPath id="clip1_1571_894">
<rect width="120" height="120" fill="white" transform="translate(250 24)"/>
</clipPath>
<clipPath id="clip2_1571_894">
<rect width="120" height="120" fill="white" transform="translate(410 24)"/>
</clipPath>
<clipPath id="clip3_1571_894">
<rect width="120" height="120" fill="white" transform="translate(570 24)"/>
</clipPath>
</defs>
</svg>
