<svg width="147" height="47" viewBox="0 0 147 47" fill="none" xmlns="http://www.w3.org/2000/svg">
<path fill-rule="evenodd" clip-rule="evenodd" d="M60.4049 26.8296C58.2918 26.8296 56.5702 25.2109 56.5702 22.8815C56.5702 20.552 58.2918 18.9334 60.4049 18.9334C62.518 18.9334 64.1439 20.583 64.1439 22.8815C64.1439 25.1799 62.5491 26.8296 60.4049 26.8296ZM64.4709 31.3933H68.0431C68.1813 31.3933 68.314 31.3387 68.4119 31.2416C68.5099 31.1445 68.5652 31.0127 68.5658 30.8751V14.848C68.5652 14.7102 68.5099 14.5782 68.412 14.4807C68.3142 14.3832 68.1815 14.3282 68.0431 14.3276H64.4709C64.4022 14.3276 64.3343 14.3411 64.2709 14.3672C64.2074 14.3934 64.1498 14.4317 64.1013 14.48C64.0527 14.5284 64.0142 14.5857 63.988 14.6489C63.9617 14.712 63.9482 14.7797 63.9482 14.848V15.8179C63.2342 15.0406 61.4125 14.3276 59.9445 14.3276C55.556 14.3276 51.8837 18.1473 51.8837 22.8726C51.8837 27.5337 55.4603 31.3844 59.9445 31.3844C61.4414 31.3844 63.2297 30.802 63.9482 29.8632V30.8663C63.9488 31.0039 64.0041 31.1357 64.1021 31.2328C64.2 31.3299 64.3326 31.3844 64.4709 31.3844V31.3933Z" fill="#0858CE"/>
<path d="M40.0281 14.3276C41.1677 14.3276 42.1625 14.5593 43.0124 15.0226C43.7705 15.4267 44.3743 15.9408 44.8239 16.5652C44.8803 16.6436 45.0116 16.6049 45.0116 16.5083V15.2304C45.0116 14.8598 45.3121 14.5593 45.6827 14.5593H49.295C49.6657 14.5593 49.9661 14.8598 49.9661 15.2304V30.6878C49.9661 32.1742 49.6667 33.5159 49.0679 34.7127C48.4885 35.9289 47.5903 36.8941 46.3734 37.6083C45.1758 38.3226 43.6788 38.6797 41.8824 38.6797C39.4872 38.6797 37.546 38.1102 36.0587 36.9713C35.4345 36.5014 35.065 36.2033 34.8464 36.0157C34.6425 35.8405 34.6659 35.5979 34.8749 35.4287L36.5437 34.0777L37.5694 33.376C37.9552 33.112 38.5477 33.3243 38.958 33.5484C39.1167 33.6351 39.3008 33.7206 39.5066 33.844C40.086 34.2108 40.8007 34.3942 41.6506 34.3942C42.6744 34.3942 43.4856 34.095 44.0844 33.4966C44.7025 32.9174 45.0116 31.9812 45.0116 30.6878V28.7273C45.0116 28.6316 44.8832 28.5927 44.8266 28.6699C44.3633 29.3019 43.7586 29.8298 43.0124 30.2535C42.1625 30.7168 41.1677 30.9484 40.0281 30.9484C38.6953 30.9484 37.488 30.6106 36.4064 29.935C35.3247 29.24 34.4651 28.2652 33.8277 27.0104C33.2096 25.7363 32.9005 24.2692 32.9005 22.6091C32.9005 20.9489 33.2096 19.4915 33.8277 18.2367C34.4651 16.9819 35.3247 16.0167 36.4064 15.3411C37.488 14.6655 38.6953 14.3276 40.0281 14.3276ZM45.0116 22.638C45.0116 21.4026 44.6639 20.4277 43.9685 19.7135C43.2925 18.9992 42.4619 18.6421 41.4768 18.6421C40.4917 18.6421 39.6514 18.9992 38.9561 19.7135C38.28 20.4084 37.942 21.3736 37.942 22.6091C37.942 23.8445 38.28 24.829 38.9561 25.5626C39.6514 26.2768 40.4917 26.634 41.4768 26.634C42.4619 26.634 43.2925 26.2768 43.9685 25.5626C44.6639 24.8483 45.0116 23.8735 45.0116 22.638Z" fill="#0858CE"/>
<path d="M26.5255 15.0947H29.9538C30.2772 15.0947 30.4712 15.2864 30.4712 15.606V30.882C30.4712 31.2016 30.2125 31.3933 29.9538 31.3933H26.5255C26.202 31.3933 26.008 31.1377 26.008 30.882V15.606C26.008 15.2864 26.2667 15.0947 26.5255 15.0947Z" fill="#0858CE"/>
<path d="M30.8593 10.5566C30.8593 9.15049 29.695 8 28.272 8C26.8489 8 25.6199 9.15049 25.6846 10.5566C25.6846 11.9628 26.8489 13.1133 28.272 13.1133C29.695 13.1133 30.8593 11.9628 30.8593 10.5566Z" fill="#0858CE"/>
<path fill-rule="evenodd" clip-rule="evenodd" d="M26.4995 10.5379V10.5566C26.4995 11.5036 27.2898 12.2984 28.272 12.2984C29.2542 12.2984 30.0444 11.5036 30.0444 10.5566C30.0444 9.60972 29.2542 8.81493 28.272 8.81493C27.2536 8.81493 26.458 9.6352 26.4986 10.5192L26.4995 10.5379ZM26.8229 15.9096V30.5784H29.6563V15.9096H26.8229ZM25.6846 10.5566C25.6199 9.15049 26.8489 8 28.272 8C29.695 8 30.8593 9.15049 30.8593 10.5566C30.8593 11.9628 29.695 13.1133 28.272 13.1133C26.8489 13.1133 25.6846 11.9628 25.6846 10.5566ZM29.9538 15.0947H26.5255C26.2667 15.0947 26.008 15.2864 26.008 15.606V30.882C26.008 31.1377 26.202 31.3933 26.5255 31.3933H29.9538C30.2125 31.3933 30.4712 31.2016 30.4712 30.882V15.606C30.4712 15.2864 30.2772 15.0947 29.9538 15.0947Z" fill="#0858CE"/>
<path d="M18.6261 25.7716C18.6261 25.1024 18.1528 24.6339 17.1386 24.5001C14.1636 24.0985 12 22.0908 12.0676 19.28C12.0676 16.4023 15.0426 14.3276 17.4766 14.3276C19.4374 14.3276 20.9249 15.0638 22.0743 16.4692C22.2095 16.6031 22.2095 16.7369 22.2095 16.8707V16.8708C22.2095 17.0046 22.1419 17.1384 22.0067 17.2054L19.4374 19.0792C19.2346 19.2131 19.0317 19.2131 18.8289 19.0792C18.4908 18.8785 18.0852 18.6777 17.6119 18.6777C17.0034 18.6777 16.6653 19.0792 16.6653 19.5477C16.6653 20.0831 17.071 20.4177 18.4232 20.5516C21.4658 20.9531 23.7646 22.4924 23.7646 25.8386C23.7646 29.1178 20.9925 31.3933 17.409 31.3933C15.1778 31.3933 13.4875 30.724 12.1352 29.3855C12.0676 29.2517 12 29.1178 12 28.984C12 28.7832 12.0676 28.6494 12.2028 28.5824L15.313 26.374C15.5159 26.2401 15.7187 26.2401 15.9215 26.374C16.3272 26.7086 16.8005 26.8424 17.409 26.8424C18.2204 26.8424 18.6261 26.374 18.6261 25.7716Z" fill="#0858CE"/>
<path fill-rule="evenodd" clip-rule="evenodd" d="M18.8289 19.0792C19.0317 19.2131 19.2346 19.2131 19.4374 19.0792L22.0067 17.2054C22.1419 17.1384 22.2095 17.0046 22.2095 16.8708V16.8707C22.2095 16.7369 22.2095 16.6031 22.0743 16.4692C20.9249 15.0638 19.4374 14.3276 17.4766 14.3276C15.0426 14.3276 12.0676 16.4023 12.0676 19.28C12 22.0908 14.1636 24.0985 17.1386 24.5001C18.1528 24.6339 18.6261 25.1024 18.6261 25.7716C18.6261 26.374 18.2204 26.8424 17.409 26.8424C16.8005 26.8424 16.3272 26.7086 15.9215 26.374C15.7187 26.2401 15.5159 26.2401 15.313 26.374L12.2028 28.5824C12.0676 28.6494 12 28.7832 12 28.984C12 29.1178 12.0676 29.2517 12.1352 29.3855C13.4875 30.724 15.1778 31.3933 17.409 31.3933C20.9925 31.3933 23.7646 29.1178 23.7646 25.8386C23.7646 22.4924 21.4658 20.9531 18.4232 20.5516C17.071 20.4177 16.6653 20.0831 16.6653 19.5477C16.6653 19.0792 17.0034 18.6777 17.6119 18.6777C18.0852 18.6777 18.4908 18.8785 18.8289 19.0792ZM18.3292 21.3612C17.6323 21.2913 17.0413 21.1611 16.6084 20.8933C16.3746 20.7486 16.1721 20.5551 16.0339 20.301C15.8963 20.0481 15.8504 19.7864 15.8504 19.5477C15.8504 19.1157 16.0084 18.6832 16.3371 18.3578C16.6697 18.0286 17.1219 17.8628 17.6119 17.8628C18.237 17.8628 18.7531 18.0991 19.117 18.3043L21.244 16.753C20.2824 15.69 19.0811 15.1426 17.4766 15.1426C16.4726 15.1426 15.3015 15.5792 14.3828 16.3492C13.4713 17.1133 12.8825 18.1388 12.8825 19.28V19.2898L12.8823 19.2996C12.8274 21.5841 14.5638 23.3299 17.2466 23.6923C17.8464 23.7717 18.3942 23.9623 18.8035 24.3256C19.2374 24.7106 19.441 25.2241 19.441 25.7716C19.441 26.2592 19.2728 26.754 18.8826 27.1241C18.4944 27.4924 17.9713 27.6574 17.409 27.6574C16.7552 27.6574 16.1521 27.5266 15.6131 27.1603L12.961 29.0436C14.0988 30.0567 15.5077 30.5783 17.409 30.5783C20.6642 30.5783 22.9497 28.555 22.9497 25.8386C22.9497 24.3729 22.4564 23.3815 21.6919 22.6985C20.904 21.9946 19.7506 21.5505 18.3292 21.3612Z" fill="#0858CE"/>
<path fill-rule="evenodd" clip-rule="evenodd" d="M129.114 30.2861C129.457 30.09 129.741 29.8588 129.929 29.5992V30.5108C129.929 30.5809 129.942 30.6445 129.965 30.7009C130.042 30.8891 130.231 30.997 130.42 30.997H133.674C133.919 30.997 134.165 30.8147 134.165 30.5108V16.0469C134.165 15.8038 133.981 15.5607 133.674 15.5607H130.42C130.229 15.5607 130.037 15.6712 129.962 15.8636C129.941 15.9183 129.929 15.9796 129.929 16.0469V16.8977C129.73 16.6836 129.447 16.4799 129.114 16.299C128.311 15.8639 127.217 15.5607 126.306 15.5607C122.315 15.5607 118.938 19.0248 118.938 23.2789C118.938 27.4722 122.192 30.997 126.306 30.997C127.245 30.997 128.332 30.7328 129.114 30.2861ZM129.264 31.1292C129.07 31.2254 128.872 31.3094 128.675 31.3819C127.929 31.6568 127.081 31.8119 126.306 31.8119C121.699 31.8119 118.123 27.878 118.123 23.2789C118.123 18.6056 121.835 14.7458 126.306 14.7458C127.066 14.7458 127.898 14.9219 128.629 15.191C128.838 15.268 129.047 15.3557 129.25 15.4538C129.482 14.9975 129.969 14.7458 130.42 14.7458H133.674C134.489 14.7458 134.98 15.4138 134.98 16.0469V30.5108C134.98 31.3375 134.293 31.8119 133.674 31.8119H130.42C129.977 31.8119 129.5 31.5695 129.264 31.1292ZM111.402 25.5453L111.4 25.545C108.41 25.1414 106.02 23.0605 106.089 19.9873C106.093 18.3874 106.922 17.0541 108.008 16.144C109.089 15.238 110.498 14.685 111.816 14.685C113.828 14.685 115.404 15.4532 116.6 16.9025C116.931 17.2561 116.929 17.6509 116.929 17.795C116.929 17.8001 116.929 17.8049 116.929 17.8093C116.929 18.1746 116.752 18.5747 116.37 18.8011L114.061 20.4845L114.045 20.495C114.01 20.5187 113.972 20.5412 113.933 20.5622C114.97 20.8249 115.922 21.2643 116.68 21.9419C117.738 22.887 118.341 24.2261 118.341 25.9529C118.341 29.4936 115.337 31.8119 111.755 31.8119C109.542 31.8119 107.792 31.1381 106.392 29.753L106.298 29.6597L106.238 29.5412C106.235 29.5359 106.232 29.5293 106.228 29.5216C106.177 29.4231 106.028 29.137 106.028 28.8092C106.028 28.4558 106.157 28.0065 106.594 27.7528L109.391 25.7665L109.402 25.7588C109.601 25.6278 109.847 25.5329 110.128 25.5329C110.409 25.5329 110.654 25.6278 110.853 25.7588L110.889 25.7828L110.922 25.8104C111.106 25.9617 111.334 26.0495 111.755 26.0495C111.861 26.0495 111.929 26.0341 111.969 26.0204C112.006 26.0072 112.02 25.9946 112.023 25.9921C112.025 25.9898 112.028 25.9863 112.033 25.9759C112.037 25.964 112.045 25.9375 112.045 25.8921C112.045 25.8011 112.023 25.7719 111.989 25.742C111.931 25.6904 111.77 25.5938 111.402 25.5453ZM107.027 28.4445C106.904 28.5053 106.843 28.6269 106.843 28.8092C106.843 28.9307 106.904 29.0523 106.966 29.1738C108.194 30.3893 109.729 30.997 111.755 30.997C115.009 30.997 117.526 28.9307 117.526 25.9529C117.526 22.9142 115.439 21.5164 112.676 21.1518C111.448 21.0303 111.079 20.7264 111.079 20.2402C111.079 19.8148 111.386 19.4502 111.939 19.4502C112.369 19.4502 112.737 19.6325 113.044 19.8148C113.228 19.9363 113.412 19.9363 113.597 19.8148L115.93 18.1132C116.053 18.0524 116.114 17.9308 116.114 17.8093C116.114 17.6878 116.114 17.5662 115.991 17.4447C114.947 16.1684 113.597 15.4999 111.816 15.4999C109.606 15.4999 106.904 17.3839 106.904 19.9971C106.843 22.5496 108.808 24.3728 111.509 24.7374C112.43 24.8589 112.86 25.2844 112.86 25.8921C112.86 26.439 112.491 26.8644 111.755 26.8644C111.202 26.8644 110.772 26.7429 110.404 26.439C110.22 26.3175 110.035 26.3175 109.851 26.439L107.027 28.4445ZM78.3707 15.3811V9.30111C78.3707 8.33704 77.2293 7.59684 76.3333 8.28191L73.1267 10.5576C72.8803 10.7065 72.7486 10.9263 72.6833 11.0716C72.6074 11.2408 72.5658 11.4302 72.5658 11.6105V30.5108C72.5658 31.1439 73.0571 31.8119 73.8719 31.8119H77.126C77.5723 31.8119 78.0537 31.5656 78.2878 31.1185C78.4847 31.2178 78.6875 31.3051 78.8906 31.3808C79.6298 31.6563 80.4628 31.8119 81.2397 31.8119C85.8424 31.8119 89.4224 27.943 89.4224 23.2789V23.2731L89.4223 23.2673C89.3551 18.54 85.6472 14.7458 81.1783 14.7458C80.2411 14.7458 79.2026 15.0222 78.3707 15.3811ZM77.5862 30.6876C77.5127 30.884 77.3194 30.997 77.126 30.997H73.8719C73.5649 30.997 73.3807 30.7539 73.3807 30.5108V11.6105C73.3807 11.4889 73.4421 11.3066 73.5649 11.2458L76.819 8.93648C77.126 8.69339 77.5558 8.93648 77.5558 9.30111V15.9253C77.5558 16.29 77.9242 16.5331 78.2312 16.3508C79.0294 15.9253 80.1959 15.5607 81.1783 15.5607C85.1692 15.5607 88.5461 18.964 88.6075 23.2789C88.6075 27.5329 85.3534 30.997 81.2397 30.997C80.2901 30.997 79.2192 30.7267 78.4321 30.2705C78.0996 30.0778 77.8178 29.8519 77.6172 29.5992V30.5108C77.6172 30.5754 77.6061 30.6346 77.5862 30.6876ZM95.3768 16.2334C95.3471 16.2518 95.3176 16.2707 95.2882 16.29C95.0318 16.4586 94.7883 16.66 94.5631 16.8977V16.29C94.5631 16.1526 94.4934 16.0152 94.4065 15.9298C94.3781 15.9019 94.3478 15.8796 94.3175 15.8646C94.1333 15.8038 93.9491 15.8038 93.8264 15.9253L90.5722 18.2347C90.4494 18.2955 90.3881 18.4778 90.3881 18.5993V30.5108C90.3881 30.7539 90.5722 30.997 90.8792 30.997H94.1333C94.3789 30.997 94.6245 30.8147 94.6245 30.5108V23.2789C94.5631 20.9087 95.9753 19.6933 97.633 19.6933C97.8786 19.6933 98.1242 19.6933 98.3698 19.754C98.6768 19.8148 98.9224 19.5717 98.9224 19.2678V16.0469C98.9224 15.8038 98.7382 15.5607 98.4926 15.5607H97.8786C97.0299 15.5607 96.1486 15.7537 95.3768 16.2334ZM95.0795 15.4612C95.9688 14.9467 96.956 14.7458 97.8786 14.7458H98.4926C99.3141 14.7458 99.7373 15.4908 99.7373 16.0469V19.2678C99.7373 19.9933 99.1088 20.7311 98.2116 20.5534L98.1927 20.5497L98.1741 20.5451C98.0403 20.512 97.8937 20.5082 97.633 20.5082C97.0069 20.5082 96.4657 20.7343 96.0836 21.1493C95.702 21.5637 95.4128 22.2401 95.4392 23.2577L95.4395 23.2683V30.5108C95.4395 31.3375 94.7526 31.8119 94.1333 31.8119H90.8792C90.0644 31.8119 89.5731 31.1439 89.5731 30.5108V18.5993C89.5731 18.4191 89.6147 18.2296 89.6907 18.0604C89.7559 17.9152 89.8876 17.6954 90.134 17.5464L93.3145 15.2893C93.7575 14.9065 94.3003 15.0007 94.5729 15.0907L94.6275 15.1087L94.679 15.1342C94.8474 15.2175 94.98 15.3376 95.0795 15.4612ZM124.051 23.2789C124.051 24.948 125.275 26.0495 126.736 26.0495C128.159 26.0495 129.298 24.9862 129.298 23.2789C129.298 21.6128 128.202 20.5082 126.736 20.5082C125.284 20.5082 124.051 21.6613 124.051 23.2789ZM101.256 14.7458H104.51C104.824 14.7458 105.172 14.8421 105.444 15.1107C105.716 15.3802 105.816 15.7292 105.816 16.0469V30.5716C105.816 31.3983 105.129 31.8727 104.51 31.8727H101.256C100.441 31.8727 99.9494 31.2047 99.9494 30.5716V16.0469C99.9494 15.2202 100.636 14.7458 101.256 14.7458ZM102.913 8C104.706 8 106.184 9.45092 106.184 11.2458C106.184 13.0408 104.706 14.4917 102.913 14.4917C101.127 14.4917 99.6527 13.0508 99.6425 11.2645C99.5687 9.41587 101.162 8 102.913 8ZM100.457 11.2458C100.457 12.5828 101.563 13.6768 102.913 13.6768C104.264 13.6768 105.369 12.5828 105.369 11.2458C105.369 9.90884 104.264 8.81493 102.913 8.81493C101.563 8.81493 100.396 9.90884 100.457 11.2458ZM78.9143 25.3082C79.3498 25.7669 79.9758 26.0495 80.7485 26.0495C82.2617 26.0495 83.4333 24.9573 83.4333 23.2789C83.4333 21.6613 82.2005 20.5082 80.7485 20.5082C79.334 20.5082 78.1865 21.6229 78.1865 23.2789C78.1865 24.1596 78.4764 24.847 78.9143 25.3082ZM123.236 23.2789C123.236 25.4059 124.832 26.8644 126.736 26.8644C128.639 26.8644 130.113 25.4059 130.113 23.2789C130.113 21.2126 128.701 19.6933 126.736 19.6933C124.832 19.6933 123.236 21.2126 123.236 23.2789ZM101.256 15.5607H104.51C104.817 15.5607 105.001 15.743 105.001 16.0469V30.5716C105.001 30.8754 104.755 31.0578 104.51 31.0578H101.256C100.949 31.0578 100.764 30.8147 100.764 30.5716V16.0469C100.764 15.743 101.01 15.5607 101.256 15.5607ZM77.3716 23.2789C77.3716 25.4059 78.7838 26.8644 80.7485 26.8644C82.7133 26.8644 84.2482 25.4059 84.2482 23.2789C84.2482 21.2126 82.6519 19.6933 80.7485 19.6933C78.8452 19.6933 77.3716 21.2126 77.3716 23.2789Z" fill="#0858CE"/>
</svg>
