<svg width="780" height="520" viewBox="0 0 780 520" fill="none" xmlns="http://www.w3.org/2000/svg">
<rect width="780" height="520" rx="8" fill="#F2F3F5"/>
<g filter="url(#filter0_d_1510_1349)">
<path d="M70 48C70 43.5817 73.5817 40 78 40H362C366.418 40 370 43.5817 370 48V190H70V48Z" fill="#2D9F70"/>
<path d="M180.992 124V108.304H185.936C187.104 108.304 188.144 108.456 189.056 108.76C189.968 109.064 190.688 109.568 191.216 110.272C191.744 110.976 192.008 111.936 192.008 113.152C192.008 114.304 191.744 115.256 191.216 116.008C190.688 116.76 189.976 117.32 189.08 117.688C188.184 118.056 187.168 118.24 186.032 118.24H183.776V124H180.992ZM183.776 116.008H185.816C188.12 116.008 189.272 115.056 189.272 113.152C189.272 112.16 188.968 111.48 188.36 111.112C187.768 110.728 186.888 110.536 185.72 110.536H183.776V116.008ZM199.006 124.288C198.03 124.288 197.118 124.048 196.27 123.568C195.422 123.072 194.734 122.368 194.206 121.456C193.678 120.528 193.414 119.416 193.414 118.12C193.414 116.808 193.678 115.696 194.206 114.784C194.734 113.856 195.422 113.152 196.27 112.672C197.118 112.176 198.03 111.928 199.006 111.928C199.998 111.928 200.918 112.176 201.766 112.672C202.614 113.152 203.302 113.856 203.83 114.784C204.358 115.696 204.622 116.808 204.622 118.12C204.622 119.416 204.358 120.528 203.83 121.456C203.302 122.368 202.614 123.072 201.766 123.568C200.918 124.048 199.998 124.288 199.006 124.288ZM199.006 122.032C199.87 122.032 200.55 121.672 201.046 120.952C201.542 120.232 201.79 119.288 201.79 118.12C201.79 116.936 201.542 115.984 201.046 115.264C200.55 114.544 199.87 114.184 199.006 114.184C198.142 114.184 197.462 114.544 196.966 115.264C196.486 115.984 196.246 116.936 196.246 118.12C196.246 119.288 196.486 120.232 196.966 120.952C197.462 121.672 198.142 122.032 199.006 122.032ZM210.548 124.288C209.748 124.288 208.948 124.136 208.148 123.832C207.348 123.512 206.66 123.12 206.084 122.656L207.38 120.88C207.908 121.28 208.436 121.6 208.964 121.84C209.492 122.08 210.052 122.2 210.644 122.2C211.284 122.2 211.756 122.064 212.06 121.792C212.364 121.52 212.516 121.184 212.516 120.784C212.516 120.448 212.388 120.176 212.132 119.968C211.892 119.744 211.58 119.552 211.196 119.392C210.812 119.216 210.412 119.048 209.996 118.888C209.484 118.696 208.972 118.464 208.46 118.192C207.964 117.904 207.556 117.544 207.236 117.112C206.916 116.664 206.756 116.112 206.756 115.456C206.756 114.416 207.14 113.568 207.908 112.912C208.676 112.256 209.716 111.928 211.028 111.928C211.86 111.928 212.604 112.072 213.26 112.36C213.916 112.648 214.484 112.976 214.964 113.344L213.692 115.024C213.276 114.72 212.852 114.48 212.42 114.304C212.004 114.112 211.564 114.016 211.1 114.016C210.508 114.016 210.068 114.144 209.78 114.4C209.492 114.64 209.348 114.944 209.348 115.312C209.348 115.776 209.588 116.128 210.068 116.368C210.548 116.608 211.108 116.84 211.748 117.064C212.292 117.256 212.82 117.496 213.332 117.784C213.844 118.056 214.268 118.416 214.604 118.864C214.956 119.312 215.132 119.904 215.132 120.64C215.132 121.648 214.74 122.512 213.956 123.232C213.172 123.936 212.036 124.288 210.548 124.288ZM217.596 124V112.216H220.356V124H217.596ZM218.988 110.152C218.492 110.152 218.092 110.008 217.788 109.72C217.484 109.432 217.332 109.048 217.332 108.568C217.332 108.104 217.484 107.728 217.788 107.44C218.092 107.152 218.492 107.008 218.988 107.008C219.484 107.008 219.884 107.152 220.188 107.44C220.492 107.728 220.644 108.104 220.644 108.568C220.644 109.048 220.492 109.432 220.188 109.72C219.884 110.008 219.484 110.152 218.988 110.152ZM228.029 124.288C226.669 124.288 225.701 123.896 225.125 123.112C224.565 122.312 224.285 121.28 224.285 120.016V114.4H222.605V112.336L224.429 112.216L224.765 109H227.069V112.216H230.069V114.4H227.069V120.016C227.069 121.392 227.621 122.08 228.725 122.08C228.933 122.08 229.149 122.056 229.373 122.008C229.597 121.944 229.789 121.88 229.949 121.816L230.429 123.856C230.109 123.968 229.741 124.064 229.325 124.144C228.925 124.24 228.493 124.288 228.029 124.288ZM232.549 124V112.216H235.309V124H232.549ZM233.941 110.152C233.445 110.152 233.045 110.008 232.741 109.72C232.437 109.432 232.285 109.048 232.285 108.568C232.285 108.104 232.437 107.728 232.741 107.44C233.045 107.152 233.445 107.008 233.941 107.008C234.437 107.008 234.837 107.152 235.141 107.44C235.445 107.728 235.597 108.104 235.597 108.568C235.597 109.048 235.445 109.432 235.141 109.72C234.837 110.008 234.437 110.152 233.941 110.152ZM241.47 124L237.366 112.216H240.174L242.046 118.336C242.206 118.912 242.366 119.496 242.526 120.088C242.702 120.68 242.87 121.28 243.03 121.888H243.126C243.302 121.28 243.47 120.68 243.63 120.088C243.806 119.496 243.974 118.912 244.134 118.336L246.006 112.216H248.67L244.662 124H241.47ZM255.612 124.288C254.524 124.288 253.54 124.048 252.66 123.568C251.78 123.072 251.084 122.368 250.572 121.456C250.06 120.528 249.804 119.416 249.804 118.12C249.804 116.84 250.06 115.736 250.572 114.808C251.1 113.88 251.78 113.168 252.612 112.672C253.444 112.176 254.316 111.928 255.228 111.928C256.3 111.928 257.196 112.168 257.916 112.648C258.636 113.112 259.18 113.768 259.548 114.616C259.916 115.448 260.1 116.416 260.1 117.52C260.1 118.096 260.06 118.544 259.98 118.864H252.492C252.62 119.904 252.996 120.712 253.62 121.288C254.244 121.864 255.028 122.152 255.972 122.152C256.484 122.152 256.956 122.08 257.388 121.936C257.836 121.776 258.276 121.56 258.708 121.288L259.644 123.016C259.084 123.384 258.46 123.688 257.772 123.928C257.084 124.168 256.364 124.288 255.612 124.288ZM252.468 116.992H257.7C257.7 116.08 257.5 115.368 257.1 114.856C256.7 114.328 256.1 114.064 255.3 114.064C254.612 114.064 253.996 114.32 253.452 114.832C252.924 115.328 252.596 116.048 252.468 116.992Z" fill="#FCFCFD"/>
<rect width="37.5" height="50" transform="translate(70 190)" fill="#E7F9F1"/>
<path d="M84.026 224V221.744H87.434V211.712H84.626V209.984C85.378 209.84 86.034 209.672 86.594 209.48C87.154 209.272 87.674 209.024 88.154 208.736H90.218V221.744H93.218V224H84.026Z" fill="#282B33"/>
<rect width="37.5" height="50" transform="translate(107.5 190)" fill="#CBF0E1"/>
<path d="M120.662 224V222.392C122.086 221.016 123.31 219.792 124.334 218.72C125.374 217.632 126.174 216.648 126.734 215.768C127.294 214.872 127.574 214.04 127.574 213.272C127.574 212.472 127.358 211.832 126.926 211.352C126.494 210.872 125.87 210.632 125.054 210.632C124.462 210.632 123.918 210.8 123.422 211.136C122.942 211.472 122.494 211.872 122.078 212.336L120.542 210.8C121.246 210.048 121.974 209.472 122.726 209.072C123.478 208.656 124.374 208.448 125.414 208.448C126.886 208.448 128.054 208.872 128.918 209.72C129.798 210.568 130.238 211.704 130.238 213.128C130.238 214.024 129.982 214.944 129.47 215.888C128.974 216.816 128.302 217.768 127.454 218.744C126.622 219.72 125.702 220.744 124.694 221.816C125.094 221.784 125.526 221.752 125.99 221.72C126.454 221.672 126.87 221.648 127.238 221.648H130.982V224H120.662Z" fill="#282B33"/>
<rect width="37.5" height="50" transform="translate(145 190)" fill="#9CE3C5"/>
<path d="M163.01 224.288C161.778 224.288 160.738 224.08 159.89 223.664C159.058 223.232 158.37 222.72 157.826 222.128L159.146 220.352C159.61 220.816 160.138 221.216 160.73 221.552C161.322 221.872 162.002 222.032 162.77 222.032C163.602 222.032 164.274 221.832 164.786 221.432C165.314 221.016 165.578 220.448 165.578 219.728C165.578 219.2 165.442 218.744 165.17 218.36C164.914 217.96 164.458 217.656 163.802 217.448C163.162 217.24 162.258 217.136 161.09 217.136V215.12C162.594 215.12 163.634 214.888 164.21 214.424C164.786 213.96 165.074 213.376 165.074 212.672C165.074 212.032 164.874 211.536 164.474 211.184C164.074 210.816 163.522 210.632 162.818 210.632C162.226 210.632 161.682 210.768 161.186 211.04C160.69 211.296 160.21 211.64 159.746 212.072L158.33 210.368C158.986 209.792 159.682 209.328 160.418 208.976C161.17 208.624 162.002 208.448 162.914 208.448C164.386 208.448 165.578 208.8 166.49 209.504C167.402 210.192 167.858 211.184 167.858 212.48C167.858 213.328 167.618 214.048 167.138 214.64C166.674 215.216 166.026 215.664 165.194 215.984V216.08C166.09 216.32 166.842 216.76 167.45 217.4C168.058 218.04 168.362 218.864 168.362 219.872C168.362 220.8 168.114 221.592 167.618 222.248C167.138 222.904 166.49 223.408 165.674 223.76C164.874 224.112 163.986 224.288 163.01 224.288Z" fill="#282B33"/>
<rect width="37.5" height="50" transform="translate(182.5 190)" fill="#60D2A3"/>
<path d="M197.918 217.928H201.926V214.472C201.926 214.024 201.942 213.496 201.974 212.888C202.006 212.28 202.03 211.752 202.046 211.304H201.95C201.758 211.704 201.558 212.096 201.35 212.48C201.142 212.864 200.926 213.264 200.702 213.68L197.918 217.928ZM201.926 224V220.064H195.182V218.192L201.23 208.736H204.518V217.928H206.438V220.064H204.518V224H201.926Z" fill="#282B33"/>
<rect width="37.5" height="50" transform="translate(220 190)" fill="#35BB83"/>
<path d="M238.034 224.288C236.802 224.288 235.762 224.08 234.914 223.664C234.082 223.232 233.386 222.736 232.826 222.176L234.098 220.4C234.562 220.832 235.082 221.216 235.658 221.552C236.234 221.872 236.906 222.032 237.674 222.032C238.522 222.032 239.226 221.776 239.786 221.264C240.346 220.752 240.626 220.032 240.626 219.104C240.626 218.192 240.37 217.488 239.858 216.992C239.346 216.496 238.666 216.248 237.818 216.248C237.322 216.248 236.906 216.32 236.57 216.464C236.234 216.592 235.834 216.808 235.37 217.112L234.05 216.272L234.506 208.736H242.666V211.064H236.906L236.594 214.76C236.914 214.6 237.226 214.48 237.53 214.4C237.85 214.304 238.21 214.256 238.61 214.256C239.49 214.256 240.29 214.424 241.01 214.76C241.73 215.096 242.306 215.616 242.738 216.32C243.186 217.024 243.41 217.928 243.41 219.032C243.41 220.136 243.154 221.08 242.642 221.864C242.146 222.648 241.49 223.248 240.674 223.664C239.858 224.08 238.978 224.288 238.034 224.288Z" fill="#282B33"/>
<rect width="37.5" height="50" transform="translate(257.5 190)" fill="#2D9F70"/>
<path d="M276.182 216.56C275.75 216.56 275.294 216.696 274.814 216.968C274.334 217.224 273.878 217.672 273.446 218.312C273.59 219.672 273.918 220.656 274.43 221.264C274.942 221.872 275.566 222.176 276.302 222.176C276.942 222.176 277.478 221.928 277.91 221.432C278.358 220.92 278.582 220.2 278.582 219.272C278.582 218.376 278.366 217.704 277.934 217.256C277.518 216.792 276.934 216.56 276.182 216.56ZM276.35 224.288C275.358 224.288 274.438 224.024 273.59 223.496C272.742 222.968 272.062 222.152 271.55 221.048C271.054 219.944 270.806 218.536 270.806 216.824C270.806 214.84 271.086 213.24 271.646 212.024C272.222 210.792 272.966 209.888 273.878 209.312C274.79 208.736 275.766 208.448 276.806 208.448C277.734 208.448 278.534 208.616 279.206 208.952C279.878 209.288 280.438 209.696 280.886 210.176L279.398 211.856C279.126 211.52 278.766 211.248 278.318 211.04C277.886 210.816 277.438 210.704 276.974 210.704C276.334 210.704 275.75 210.88 275.222 211.232C274.694 211.584 274.262 212.176 273.926 213.008C273.606 213.824 273.422 214.936 273.374 216.344C273.822 215.784 274.35 215.344 274.958 215.024C275.566 214.704 276.142 214.544 276.686 214.544C278.014 214.544 279.086 214.936 279.902 215.72C280.734 216.488 281.15 217.672 281.15 219.272C281.15 220.28 280.926 221.16 280.478 221.912C280.046 222.664 279.47 223.248 278.75 223.664C278.03 224.08 277.23 224.288 276.35 224.288Z" fill="#FCFCFD"/>
<rect width="37.5" height="50" transform="translate(295 190)" fill="#227754"/>
<path d="M311.282 224C311.378 222.192 311.57 220.576 311.858 219.152C312.146 217.712 312.586 216.344 313.178 215.048C313.77 213.752 314.554 212.424 315.53 211.064H308.306V208.736H318.554V210.416C317.658 211.52 316.93 212.576 316.37 213.584C315.826 214.592 315.394 215.616 315.074 216.656C314.77 217.68 314.546 218.792 314.402 219.992C314.258 221.176 314.154 222.512 314.09 224H311.282Z" fill="#FCFCFD"/>
<rect width="37.5" height="50" transform="translate(332.5 190)" fill="#19583D"/>
<path d="M350.918 224.288C349.926 224.288 349.038 224.112 348.254 223.76C347.47 223.392 346.854 222.896 346.406 222.272C345.958 221.648 345.734 220.92 345.734 220.088C345.734 219.144 346.014 218.352 346.574 217.712C347.134 217.072 347.774 216.56 348.494 216.176V216.08C347.902 215.664 347.398 215.168 346.982 214.592C346.582 214 346.382 213.304 346.382 212.504C346.382 211.672 346.582 210.96 346.982 210.368C347.382 209.76 347.926 209.288 348.614 208.952C349.318 208.616 350.11 208.448 350.99 208.448C352.366 208.448 353.454 208.832 354.254 209.6C355.07 210.352 355.478 211.344 355.478 212.576C355.478 213.328 355.262 214.008 354.83 214.616C354.398 215.224 353.934 215.712 353.438 216.08V216.176C354.142 216.576 354.758 217.08 355.286 217.688C355.814 218.296 356.078 219.112 356.078 220.136C356.078 220.92 355.862 221.624 355.43 222.248C354.998 222.872 354.398 223.368 353.63 223.736C352.862 224.104 351.958 224.288 350.918 224.288ZM351.926 215.384C352.342 214.968 352.654 214.544 352.862 214.112C353.086 213.68 353.198 213.224 353.198 212.744C353.198 212.072 352.998 211.52 352.598 211.088C352.198 210.64 351.646 210.416 350.942 210.416C350.35 210.416 349.854 210.6 349.454 210.968C349.054 211.336 348.854 211.848 348.854 212.504C348.854 213.016 348.99 213.448 349.262 213.8C349.534 214.136 349.902 214.432 350.366 214.688C350.846 214.928 351.366 215.16 351.926 215.384ZM350.966 222.32C351.702 222.32 352.302 222.12 352.766 221.72C353.246 221.304 353.486 220.744 353.486 220.04C353.486 219.48 353.318 219.024 352.982 218.672C352.662 218.32 352.222 218.016 351.662 217.76C351.118 217.488 350.502 217.216 349.814 216.944C349.334 217.296 348.934 217.712 348.614 218.192C348.31 218.672 348.158 219.208 348.158 219.8C348.158 220.552 348.43 221.16 348.974 221.624C349.518 222.088 350.182 222.32 350.966 222.32Z" fill="#FCFCFD"/>
</g>
<g filter="url(#filter1_d_1510_1349)">
<path d="M70 288C70 283.582 73.5817 280 78 280H362C366.418 280 370 283.582 370 288V430H70V288Z" fill="#F9A915"/>
<path d="M180.552 364L177.432 348.304H180.288L181.656 356.224C181.784 357.056 181.912 357.896 182.04 358.744C182.184 359.576 182.312 360.408 182.424 361.24H182.52C182.696 360.408 182.864 359.576 183.024 358.744C183.2 357.896 183.376 357.056 183.552 356.224L185.472 348.304H187.896L189.816 356.224C189.992 357.04 190.168 357.872 190.344 358.72C190.52 359.552 190.696 360.392 190.872 361.24H190.968C191.096 360.392 191.224 359.552 191.352 358.72C191.48 357.888 191.6 357.056 191.712 356.224L193.08 348.304H195.744L192.744 364H189.288L187.344 355.744C187.216 355.136 187.088 354.528 186.96 353.92C186.848 353.312 186.744 352.712 186.648 352.12H186.552C186.44 352.712 186.32 353.312 186.192 353.92C186.08 354.528 185.96 355.136 185.832 355.744L183.936 364H180.552ZM200.475 364.288C199.451 364.288 198.611 363.968 197.955 363.328C197.315 362.688 196.995 361.856 196.995 360.832C196.995 359.568 197.547 358.592 198.651 357.904C199.755 357.2 201.515 356.72 203.931 356.464C203.915 355.84 203.747 355.304 203.427 354.856C203.123 354.392 202.571 354.16 201.771 354.16C201.195 354.16 200.627 354.272 200.067 354.496C199.523 354.72 198.987 354.992 198.459 355.312L197.451 353.464C198.107 353.048 198.843 352.688 199.659 352.384C200.491 352.08 201.371 351.928 202.299 351.928C203.771 351.928 204.867 352.368 205.587 353.248C206.323 354.112 206.691 355.368 206.691 357.016V364H204.411L204.219 362.704H204.123C203.595 363.152 203.027 363.528 202.419 363.832C201.827 364.136 201.179 364.288 200.475 364.288ZM201.363 362.128C201.843 362.128 202.275 362.016 202.659 361.792C203.059 361.552 203.483 361.232 203.931 360.832V358.192C202.331 358.4 201.219 358.712 200.595 359.128C199.971 359.528 199.659 360.024 199.659 360.616C199.659 361.144 199.819 361.528 200.139 361.768C200.459 362.008 200.867 362.128 201.363 362.128ZM209.994 364V352.216H212.274L212.466 354.304H212.562C212.978 353.536 213.482 352.952 214.074 352.552C214.666 352.136 215.274 351.928 215.898 351.928C216.458 351.928 216.906 352.008 217.242 352.168L216.762 354.568C216.554 354.504 216.362 354.456 216.186 354.424C216.01 354.392 215.794 354.376 215.538 354.376C215.074 354.376 214.586 354.56 214.074 354.928C213.562 355.28 213.122 355.904 212.754 356.8V364H209.994ZM218.947 364V352.216H221.227L221.419 353.8H221.515C222.043 353.288 222.619 352.848 223.243 352.48C223.867 352.112 224.579 351.928 225.379 351.928C226.643 351.928 227.563 352.336 228.139 353.152C228.715 353.968 229.003 355.12 229.003 356.608V364H226.243V356.968C226.243 355.992 226.099 355.304 225.811 354.904C225.523 354.504 225.051 354.304 224.395 354.304C223.883 354.304 223.427 354.432 223.027 354.688C222.643 354.928 222.203 355.288 221.707 355.768V364H218.947ZM232.377 364V352.216H235.137V364H232.377ZM233.769 350.152C233.273 350.152 232.873 350.008 232.569 349.72C232.265 349.432 232.113 349.048 232.113 348.568C232.113 348.104 232.265 347.728 232.569 347.44C232.873 347.152 233.273 347.008 233.769 347.008C234.265 347.008 234.665 347.152 234.969 347.44C235.273 347.728 235.425 348.104 235.425 348.568C235.425 349.048 235.273 349.432 234.969 349.72C234.665 350.008 234.265 350.152 233.769 350.152ZM238.658 364V352.216H240.938L241.13 353.8H241.226C241.754 353.288 242.33 352.848 242.954 352.48C243.578 352.112 244.29 351.928 245.09 351.928C246.354 351.928 247.274 352.336 247.85 353.152C248.426 353.968 248.714 355.12 248.714 356.608V364H245.954V356.968C245.954 355.992 245.81 355.304 245.522 354.904C245.234 354.504 244.762 354.304 244.106 354.304C243.594 354.304 243.138 354.432 242.738 354.688C242.354 354.928 241.914 355.288 241.418 355.768V364H238.658ZM256.192 369.208C255.264 369.208 254.424 369.096 253.672 368.872C252.936 368.648 252.352 368.304 251.92 367.84C251.504 367.392 251.296 366.824 251.296 366.136C251.296 365.16 251.856 364.32 252.976 363.616V363.52C252.672 363.328 252.416 363.072 252.208 362.752C252.016 362.432 251.92 362.032 251.92 361.552C251.92 361.088 252.048 360.672 252.304 360.304C252.576 359.92 252.88 359.608 253.216 359.368V359.272C252.816 358.968 252.456 358.544 252.136 358C251.832 357.456 251.68 356.84 251.68 356.152C251.68 355.24 251.896 354.472 252.328 353.848C252.76 353.224 253.328 352.752 254.032 352.432C254.752 352.096 255.52 351.928 256.336 351.928C256.656 351.928 256.96 351.96 257.248 352.024C257.552 352.072 257.824 352.136 258.064 352.216H262.288V354.256H260.128C260.32 354.48 260.48 354.768 260.608 355.12C260.736 355.456 260.8 355.832 260.8 356.248C260.8 357.112 260.6 357.848 260.2 358.456C259.8 359.048 259.264 359.496 258.592 359.8C257.92 360.104 257.168 360.256 256.336 360.256C256.08 360.256 255.816 360.232 255.544 360.184C255.272 360.136 255 360.056 254.728 359.944C254.552 360.104 254.408 360.264 254.296 360.424C254.2 360.584 254.152 360.8 254.152 361.072C254.152 361.408 254.288 361.672 254.56 361.864C254.848 362.056 255.352 362.152 256.072 362.152H258.16C259.584 362.152 260.656 362.384 261.376 362.848C262.112 363.296 262.48 364.032 262.48 365.056C262.48 365.824 262.224 366.52 261.712 367.144C261.2 367.784 260.472 368.288 259.528 368.656C258.584 369.024 257.472 369.208 256.192 369.208ZM256.336 358.528C256.896 358.528 257.376 358.32 257.776 357.904C258.176 357.488 258.376 356.904 258.376 356.152C258.376 355.416 258.176 354.848 257.776 354.448C257.392 354.032 256.912 353.824 256.336 353.824C255.76 353.824 255.272 354.024 254.872 354.424C254.472 354.824 254.272 355.4 254.272 356.152C254.272 356.904 254.472 357.488 254.872 357.904C255.272 358.32 255.76 358.528 256.336 358.528ZM256.624 367.408C257.568 367.408 258.336 367.216 258.928 366.832C259.52 366.448 259.816 366.008 259.816 365.512C259.816 365.048 259.632 364.736 259.264 364.576C258.912 364.416 258.4 364.336 257.728 364.336H256.12C255.48 364.336 254.944 364.28 254.512 364.168C253.904 364.632 253.6 365.152 253.6 365.728C253.6 366.256 253.872 366.664 254.416 366.952C254.96 367.256 255.696 367.408 256.624 367.408Z" fill="#FCFCFD"/>
<rect width="37.5" height="50" transform="translate(70 430)" fill="#FFF5E0"/>
<path d="M84.026 464V461.744H87.434V451.712H84.626V449.984C85.378 449.84 86.034 449.672 86.594 449.48C87.154 449.272 87.674 449.024 88.154 448.736H90.218V461.744H93.218V464H84.026Z" fill="#282B33"/>
<rect width="37.5" height="50" transform="translate(107.5 430)" fill="#FEEDCD"/>
<path d="M120.662 464V462.392C122.086 461.016 123.31 459.792 124.334 458.72C125.374 457.632 126.174 456.648 126.734 455.768C127.294 454.872 127.574 454.04 127.574 453.272C127.574 452.472 127.358 451.832 126.926 451.352C126.494 450.872 125.87 450.632 125.054 450.632C124.462 450.632 123.918 450.8 123.422 451.136C122.942 451.472 122.494 451.872 122.078 452.336L120.542 450.8C121.246 450.048 121.974 449.472 122.726 449.072C123.478 448.656 124.374 448.448 125.414 448.448C126.886 448.448 128.054 448.872 128.918 449.72C129.798 450.568 130.238 451.704 130.238 453.128C130.238 454.024 129.982 454.944 129.47 455.888C128.974 456.816 128.302 457.768 127.454 458.744C126.622 459.72 125.702 460.744 124.694 461.816C125.094 461.784 125.526 461.752 125.99 461.72C126.454 461.672 126.87 461.648 127.238 461.648H130.982V464H120.662Z" fill="#282B33"/>
<rect width="37.5" height="50" transform="translate(145 430)" fill="#FCDB9C"/>
<path d="M163.01 464.288C161.778 464.288 160.738 464.08 159.89 463.664C159.058 463.232 158.37 462.72 157.826 462.128L159.146 460.352C159.61 460.816 160.138 461.216 160.73 461.552C161.322 461.872 162.002 462.032 162.77 462.032C163.602 462.032 164.274 461.832 164.786 461.432C165.314 461.016 165.578 460.448 165.578 459.728C165.578 459.2 165.442 458.744 165.17 458.36C164.914 457.96 164.458 457.656 163.802 457.448C163.162 457.24 162.258 457.136 161.09 457.136V455.12C162.594 455.12 163.634 454.888 164.21 454.424C164.786 453.96 165.074 453.376 165.074 452.672C165.074 452.032 164.874 451.536 164.474 451.184C164.074 450.816 163.522 450.632 162.818 450.632C162.226 450.632 161.682 450.768 161.186 451.04C160.69 451.296 160.21 451.64 159.746 452.072L158.33 450.368C158.986 449.792 159.682 449.328 160.418 448.976C161.17 448.624 162.002 448.448 162.914 448.448C164.386 448.448 165.578 448.8 166.49 449.504C167.402 450.192 167.858 451.184 167.858 452.48C167.858 453.328 167.618 454.048 167.138 454.64C166.674 455.216 166.026 455.664 165.194 455.984V456.08C166.09 456.32 166.842 456.76 167.45 457.4C168.058 458.04 168.362 458.864 168.362 459.872C168.362 460.8 168.114 461.592 167.618 462.248C167.138 462.904 166.49 463.408 165.674 463.76C164.874 464.112 163.986 464.288 163.01 464.288Z" fill="#282B33"/>
<rect width="37.5" height="50" transform="translate(182.5 430)" fill="#FBC86A"/>
<path d="M197.918 457.928H201.926V454.472C201.926 454.024 201.942 453.496 201.974 452.888C202.006 452.28 202.03 451.752 202.046 451.304H201.95C201.758 451.704 201.558 452.096 201.35 452.48C201.142 452.864 200.926 453.264 200.702 453.68L197.918 457.928ZM201.926 464V460.064H195.182V458.192L201.23 448.736H204.518V457.928H206.438V460.064H204.518V464H201.926Z" fill="#282B33"/>
<rect width="37.5" height="50" transform="translate(220 430)" fill="#FABA42"/>
<path d="M238.034 464.288C236.802 464.288 235.762 464.08 234.914 463.664C234.082 463.232 233.386 462.736 232.826 462.176L234.098 460.4C234.562 460.832 235.082 461.216 235.658 461.552C236.234 461.872 236.906 462.032 237.674 462.032C238.522 462.032 239.226 461.776 239.786 461.264C240.346 460.752 240.626 460.032 240.626 459.104C240.626 458.192 240.37 457.488 239.858 456.992C239.346 456.496 238.666 456.248 237.818 456.248C237.322 456.248 236.906 456.32 236.57 456.464C236.234 456.592 235.834 456.808 235.37 457.112L234.05 456.272L234.506 448.736H242.666V451.064H236.906L236.594 454.76C236.914 454.6 237.226 454.48 237.53 454.4C237.85 454.304 238.21 454.256 238.61 454.256C239.49 454.256 240.29 454.424 241.01 454.76C241.73 455.096 242.306 455.616 242.738 456.32C243.186 457.024 243.41 457.928 243.41 459.032C243.41 460.136 243.154 461.08 242.642 461.864C242.146 462.648 241.49 463.248 240.674 463.664C239.858 464.08 238.978 464.288 238.034 464.288Z" fill="#282B33"/>
<rect width="37.5" height="50" transform="translate(257.5 430)" fill="#F9A915"/>
<path d="M276.182 456.56C275.75 456.56 275.294 456.696 274.814 456.968C274.334 457.224 273.878 457.672 273.446 458.312C273.59 459.672 273.918 460.656 274.43 461.264C274.942 461.872 275.566 462.176 276.302 462.176C276.942 462.176 277.478 461.928 277.91 461.432C278.358 460.92 278.582 460.2 278.582 459.272C278.582 458.376 278.366 457.704 277.934 457.256C277.518 456.792 276.934 456.56 276.182 456.56ZM276.35 464.288C275.358 464.288 274.438 464.024 273.59 463.496C272.742 462.968 272.062 462.152 271.55 461.048C271.054 459.944 270.806 458.536 270.806 456.824C270.806 454.84 271.086 453.24 271.646 452.024C272.222 450.792 272.966 449.888 273.878 449.312C274.79 448.736 275.766 448.448 276.806 448.448C277.734 448.448 278.534 448.616 279.206 448.952C279.878 449.288 280.438 449.696 280.886 450.176L279.398 451.856C279.126 451.52 278.766 451.248 278.318 451.04C277.886 450.816 277.438 450.704 276.974 450.704C276.334 450.704 275.75 450.88 275.222 451.232C274.694 451.584 274.262 452.176 273.926 453.008C273.606 453.824 273.422 454.936 273.374 456.344C273.822 455.784 274.35 455.344 274.958 455.024C275.566 454.704 276.142 454.544 276.686 454.544C278.014 454.544 279.086 454.936 279.902 455.72C280.734 456.488 281.15 457.672 281.15 459.272C281.15 460.28 280.926 461.16 280.478 461.912C280.046 462.664 279.47 463.248 278.75 463.664C278.03 464.08 277.23 464.288 276.35 464.288Z" fill="#FCFCFD"/>
<rect width="37.5" height="50" transform="translate(295 430)" fill="#E09306"/>
<path d="M311.282 464C311.378 462.192 311.57 460.576 311.858 459.152C312.146 457.712 312.586 456.344 313.178 455.048C313.77 453.752 314.554 452.424 315.53 451.064H308.306V448.736H318.554V450.416C317.658 451.52 316.93 452.576 316.37 453.584C315.826 454.592 315.394 455.616 315.074 456.656C314.77 457.68 314.546 458.792 314.402 459.992C314.258 461.176 314.154 462.512 314.09 464H311.282Z" fill="#FCFCFD"/>
<rect width="37.5" height="50" transform="translate(332.5 430)" fill="#B87905"/>
<path d="M350.918 464.288C349.926 464.288 349.038 464.112 348.254 463.76C347.47 463.392 346.854 462.896 346.406 462.272C345.958 461.648 345.734 460.92 345.734 460.088C345.734 459.144 346.014 458.352 346.574 457.712C347.134 457.072 347.774 456.56 348.494 456.176V456.08C347.902 455.664 347.398 455.168 346.982 454.592C346.582 454 346.382 453.304 346.382 452.504C346.382 451.672 346.582 450.96 346.982 450.368C347.382 449.76 347.926 449.288 348.614 448.952C349.318 448.616 350.11 448.448 350.99 448.448C352.366 448.448 353.454 448.832 354.254 449.6C355.07 450.352 355.478 451.344 355.478 452.576C355.478 453.328 355.262 454.008 354.83 454.616C354.398 455.224 353.934 455.712 353.438 456.08V456.176C354.142 456.576 354.758 457.08 355.286 457.688C355.814 458.296 356.078 459.112 356.078 460.136C356.078 460.92 355.862 461.624 355.43 462.248C354.998 462.872 354.398 463.368 353.63 463.736C352.862 464.104 351.958 464.288 350.918 464.288ZM351.926 455.384C352.342 454.968 352.654 454.544 352.862 454.112C353.086 453.68 353.198 453.224 353.198 452.744C353.198 452.072 352.998 451.52 352.598 451.088C352.198 450.64 351.646 450.416 350.942 450.416C350.35 450.416 349.854 450.6 349.454 450.968C349.054 451.336 348.854 451.848 348.854 452.504C348.854 453.016 348.99 453.448 349.262 453.8C349.534 454.136 349.902 454.432 350.366 454.688C350.846 454.928 351.366 455.16 351.926 455.384ZM350.966 462.32C351.702 462.32 352.302 462.12 352.766 461.72C353.246 461.304 353.486 460.744 353.486 460.04C353.486 459.48 353.318 459.024 352.982 458.672C352.662 458.32 352.222 458.016 351.662 457.76C351.118 457.488 350.502 457.216 349.814 456.944C349.334 457.296 348.934 457.712 348.614 458.192C348.31 458.672 348.158 459.208 348.158 459.8C348.158 460.552 348.43 461.16 348.974 461.624C349.518 462.088 350.182 462.32 350.966 462.32Z" fill="#FCFCFD"/>
</g>
<g filter="url(#filter2_d_1510_1349)">
<path d="M410 48C410 43.5817 413.582 40 418 40H702C706.418 40 710 43.5817 710 48V190H410V48Z" fill="#D6293A"/>
<path d="M516.492 124V108.304H519.348L524.244 117.136L525.852 120.472H525.948C525.884 119.672 525.804 118.8 525.708 117.856C525.628 116.912 525.588 116 525.588 115.12V108.304H528.252V124H525.396L520.5 115.168L518.892 111.832H518.796C518.86 112.664 518.932 113.536 519.012 114.448C519.108 115.36 519.156 116.256 519.156 117.136V124H516.492ZM537.042 124.288C535.954 124.288 534.97 124.048 534.09 123.568C533.21 123.072 532.514 122.368 532.002 121.456C531.49 120.528 531.234 119.416 531.234 118.12C531.234 116.84 531.49 115.736 532.002 114.808C532.53 113.88 533.21 113.168 534.042 112.672C534.874 112.176 535.746 111.928 536.658 111.928C537.73 111.928 538.626 112.168 539.346 112.648C540.066 113.112 540.61 113.768 540.978 114.616C541.346 115.448 541.53 116.416 541.53 117.52C541.53 118.096 541.49 118.544 541.41 118.864H533.922C534.05 119.904 534.426 120.712 535.05 121.288C535.674 121.864 536.458 122.152 537.402 122.152C537.914 122.152 538.386 122.08 538.818 121.936C539.266 121.776 539.706 121.56 540.138 121.288L541.074 123.016C540.514 123.384 539.89 123.688 539.202 123.928C538.514 124.168 537.794 124.288 537.042 124.288ZM533.898 116.992H539.13C539.13 116.08 538.93 115.368 538.53 114.856C538.13 114.328 537.53 114.064 536.73 114.064C536.042 114.064 535.426 114.32 534.882 114.832C534.354 115.328 534.026 116.048 533.898 116.992ZM548.036 129.208C547.108 129.208 546.268 129.096 545.516 128.872C544.78 128.648 544.196 128.304 543.764 127.84C543.348 127.392 543.14 126.824 543.14 126.136C543.14 125.16 543.7 124.32 544.82 123.616V123.52C544.516 123.328 544.26 123.072 544.052 122.752C543.86 122.432 543.764 122.032 543.764 121.552C543.764 121.088 543.892 120.672 544.148 120.304C544.42 119.92 544.724 119.608 545.06 119.368V119.272C544.66 118.968 544.3 118.544 543.98 118C543.676 117.456 543.524 116.84 543.524 116.152C543.524 115.24 543.74 114.472 544.172 113.848C544.604 113.224 545.172 112.752 545.876 112.432C546.596 112.096 547.364 111.928 548.18 111.928C548.5 111.928 548.804 111.96 549.092 112.024C549.396 112.072 549.668 112.136 549.908 112.216H554.132V114.256H551.972C552.164 114.48 552.324 114.768 552.452 115.12C552.58 115.456 552.644 115.832 552.644 116.248C552.644 117.112 552.444 117.848 552.044 118.456C551.644 119.048 551.108 119.496 550.436 119.8C549.764 120.104 549.012 120.256 548.18 120.256C547.924 120.256 547.66 120.232 547.388 120.184C547.116 120.136 546.844 120.056 546.572 119.944C546.396 120.104 546.252 120.264 546.14 120.424C546.044 120.584 545.996 120.8 545.996 121.072C545.996 121.408 546.132 121.672 546.404 121.864C546.692 122.056 547.196 122.152 547.916 122.152H550.004C551.428 122.152 552.5 122.384 553.22 122.848C553.956 123.296 554.324 124.032 554.324 125.056C554.324 125.824 554.068 126.52 553.556 127.144C553.044 127.784 552.316 128.288 551.372 128.656C550.428 129.024 549.316 129.208 548.036 129.208ZM548.18 118.528C548.74 118.528 549.22 118.32 549.62 117.904C550.02 117.488 550.22 116.904 550.22 116.152C550.22 115.416 550.02 114.848 549.62 114.448C549.236 114.032 548.756 113.824 548.18 113.824C547.604 113.824 547.116 114.024 546.716 114.424C546.316 114.824 546.116 115.4 546.116 116.152C546.116 116.904 546.316 117.488 546.716 117.904C547.116 118.32 547.604 118.528 548.18 118.528ZM548.468 127.408C549.412 127.408 550.18 127.216 550.772 126.832C551.364 126.448 551.66 126.008 551.66 125.512C551.66 125.048 551.476 124.736 551.108 124.576C550.756 124.416 550.244 124.336 549.572 124.336H547.964C547.324 124.336 546.788 124.28 546.356 124.168C545.748 124.632 545.444 125.152 545.444 125.728C545.444 126.256 545.716 126.664 546.26 126.952C546.804 127.256 547.54 127.408 548.468 127.408ZM558.835 124.288C557.811 124.288 556.971 123.968 556.315 123.328C555.675 122.688 555.355 121.856 555.355 120.832C555.355 119.568 555.907 118.592 557.011 117.904C558.115 117.2 559.875 116.72 562.291 116.464C562.275 115.84 562.107 115.304 561.787 114.856C561.483 114.392 560.931 114.16 560.131 114.16C559.555 114.16 558.987 114.272 558.427 114.496C557.883 114.72 557.347 114.992 556.819 115.312L555.811 113.464C556.467 113.048 557.203 112.688 558.019 112.384C558.851 112.08 559.731 111.928 560.659 111.928C562.131 111.928 563.227 112.368 563.947 113.248C564.683 114.112 565.051 115.368 565.051 117.016V124H562.771L562.579 122.704H562.483C561.955 123.152 561.387 123.528 560.779 123.832C560.187 124.136 559.539 124.288 558.835 124.288ZM559.723 122.128C560.203 122.128 560.635 122.016 561.019 121.792C561.419 121.552 561.843 121.232 562.291 120.832V118.192C560.691 118.4 559.579 118.712 558.955 119.128C558.331 119.528 558.019 120.024 558.019 120.616C558.019 121.144 558.179 121.528 558.499 121.768C558.819 122.008 559.227 122.128 559.723 122.128ZM572.131 124.288C570.771 124.288 569.803 123.896 569.227 123.112C568.667 122.312 568.387 121.28 568.387 120.016V114.4H566.707V112.336L568.531 112.216L568.867 109H571.171V112.216H574.171V114.4H571.171V120.016C571.171 121.392 571.723 122.08 572.827 122.08C573.035 122.08 573.251 122.056 573.475 122.008C573.699 121.944 573.891 121.88 574.051 121.816L574.531 123.856C574.211 123.968 573.843 124.064 573.427 124.144C573.027 124.24 572.595 124.288 572.131 124.288ZM576.65 124V112.216H579.41V124H576.65ZM578.042 110.152C577.546 110.152 577.146 110.008 576.842 109.72C576.538 109.432 576.386 109.048 576.386 108.568C576.386 108.104 576.538 107.728 576.842 107.44C577.146 107.152 577.546 107.008 578.042 107.008C578.538 107.008 578.938 107.152 579.242 107.44C579.546 107.728 579.698 108.104 579.698 108.568C579.698 109.048 579.546 109.432 579.242 109.72C578.938 110.008 578.538 110.152 578.042 110.152ZM585.572 124L581.468 112.216H584.276L586.148 118.336C586.308 118.912 586.468 119.496 586.628 120.088C586.804 120.68 586.972 121.28 587.132 121.888H587.228C587.404 121.28 587.572 120.68 587.732 120.088C587.908 119.496 588.076 118.912 588.236 118.336L590.108 112.216H592.772L588.764 124H585.572ZM599.714 124.288C598.626 124.288 597.642 124.048 596.762 123.568C595.882 123.072 595.186 122.368 594.674 121.456C594.162 120.528 593.906 119.416 593.906 118.12C593.906 116.84 594.162 115.736 594.674 114.808C595.202 113.88 595.882 113.168 596.714 112.672C597.546 112.176 598.418 111.928 599.33 111.928C600.402 111.928 601.298 112.168 602.018 112.648C602.738 113.112 603.282 113.768 603.65 114.616C604.018 115.448 604.202 116.416 604.202 117.52C604.202 118.096 604.162 118.544 604.082 118.864H596.594C596.722 119.904 597.098 120.712 597.722 121.288C598.346 121.864 599.13 122.152 600.074 122.152C600.586 122.152 601.058 122.08 601.49 121.936C601.938 121.776 602.378 121.56 602.81 121.288L603.746 123.016C603.186 123.384 602.562 123.688 601.874 123.928C601.186 124.168 600.466 124.288 599.714 124.288ZM596.57 116.992H601.802C601.802 116.08 601.602 115.368 601.202 114.856C600.802 114.328 600.202 114.064 599.402 114.064C598.714 114.064 598.098 114.32 597.554 114.832C597.026 115.328 596.698 116.048 596.57 116.992Z" fill="#FCFCFD"/>
<rect width="37.5" height="50" transform="translate(410 190)" fill="#FAEAEC"/>
<path d="M424.026 224V221.744H427.434V211.712H424.626V209.984C425.378 209.84 426.034 209.672 426.594 209.48C427.154 209.272 427.674 209.024 428.154 208.736H430.218V221.744H433.218V224H424.026Z" fill="#282B33"/>
<rect width="37.5" height="50" transform="translate(447.5 190)" fill="#F7D4D8"/>
<path d="M460.662 224V222.392C462.086 221.016 463.31 219.792 464.334 218.72C465.374 217.632 466.174 216.648 466.734 215.768C467.294 214.872 467.574 214.04 467.574 213.272C467.574 212.472 467.358 211.832 466.926 211.352C466.494 210.872 465.87 210.632 465.054 210.632C464.462 210.632 463.918 210.8 463.422 211.136C462.942 211.472 462.494 211.872 462.078 212.336L460.542 210.8C461.246 210.048 461.974 209.472 462.726 209.072C463.478 208.656 464.374 208.448 465.414 208.448C466.886 208.448 468.054 208.872 468.918 209.72C469.798 210.568 470.238 211.704 470.238 213.128C470.238 214.024 469.982 214.944 469.47 215.888C468.974 216.816 468.302 217.768 467.454 218.744C466.622 219.72 465.702 220.744 464.694 221.816C465.094 221.784 465.526 221.752 465.99 221.72C466.454 221.672 466.87 221.648 467.238 221.648H470.982V224H460.662Z" fill="#282B33"/>
<rect width="37.5" height="50" transform="translate(485 190)" fill="#EFA9B0"/>
<path d="M503.01 224.288C501.778 224.288 500.738 224.08 499.89 223.664C499.058 223.232 498.37 222.72 497.826 222.128L499.146 220.352C499.61 220.816 500.138 221.216 500.73 221.552C501.322 221.872 502.002 222.032 502.77 222.032C503.602 222.032 504.274 221.832 504.786 221.432C505.314 221.016 505.578 220.448 505.578 219.728C505.578 219.2 505.442 218.744 505.17 218.36C504.914 217.96 504.458 217.656 503.802 217.448C503.162 217.24 502.258 217.136 501.09 217.136V215.12C502.594 215.12 503.634 214.888 504.21 214.424C504.786 213.96 505.074 213.376 505.074 212.672C505.074 212.032 504.874 211.536 504.474 211.184C504.074 210.816 503.522 210.632 502.818 210.632C502.226 210.632 501.682 210.768 501.186 211.04C500.69 211.296 500.21 211.64 499.746 212.072L498.33 210.368C498.986 209.792 499.682 209.328 500.418 208.976C501.17 208.624 502.002 208.448 502.914 208.448C504.386 208.448 505.578 208.8 506.49 209.504C507.402 210.192 507.858 211.184 507.858 212.48C507.858 213.328 507.618 214.048 507.138 214.64C506.674 215.216 506.026 215.664 505.194 215.984V216.08C506.09 216.32 506.842 216.76 507.45 217.4C508.058 218.04 508.362 218.864 508.362 219.872C508.362 220.8 508.114 221.592 507.618 222.248C507.138 222.904 506.49 223.408 505.674 223.76C504.874 224.112 503.986 224.288 503.01 224.288Z" fill="#282B33"/>
<rect width="37.5" height="50" transform="translate(522.5 190)" fill="#E77E89"/>
<path d="M537.918 217.928H541.926V214.472C541.926 214.024 541.942 213.496 541.974 212.888C542.006 212.28 542.03 211.752 542.046 211.304H541.95C541.758 211.704 541.558 212.096 541.35 212.48C541.142 212.864 540.926 213.264 540.702 213.68L537.918 217.928ZM541.926 224V220.064H535.182V218.192L541.23 208.736H544.518V217.928H546.438V220.064H544.518V224H541.926Z" fill="#282B33"/>
<rect width="37.5" height="50" transform="translate(560 190)" fill="#DE5462"/>
<path d="M578.034 224.288C576.802 224.288 575.762 224.08 574.914 223.664C574.082 223.232 573.386 222.736 572.826 222.176L574.098 220.4C574.562 220.832 575.082 221.216 575.658 221.552C576.234 221.872 576.906 222.032 577.674 222.032C578.522 222.032 579.226 221.776 579.786 221.264C580.346 220.752 580.626 220.032 580.626 219.104C580.626 218.192 580.37 217.488 579.858 216.992C579.346 216.496 578.666 216.248 577.818 216.248C577.322 216.248 576.906 216.32 576.57 216.464C576.234 216.592 575.834 216.808 575.37 217.112L574.05 216.272L574.506 208.736H582.666V211.064H576.906L576.594 214.76C576.914 214.6 577.226 214.48 577.53 214.4C577.85 214.304 578.21 214.256 578.61 214.256C579.49 214.256 580.29 214.424 581.01 214.76C581.73 215.096 582.306 215.616 582.738 216.32C583.186 217.024 583.41 217.928 583.41 219.032C583.41 220.136 583.154 221.08 582.642 221.864C582.146 222.648 581.49 223.248 580.674 223.664C579.858 224.08 578.978 224.288 578.034 224.288Z" fill="#FCFCFD"/>
<rect width="37.5" height="50" transform="translate(597.5 190)" fill="#D6293A"/>
<path d="M616.182 216.56C615.75 216.56 615.294 216.696 614.814 216.968C614.334 217.224 613.878 217.672 613.446 218.312C613.59 219.672 613.918 220.656 614.43 221.264C614.942 221.872 615.566 222.176 616.302 222.176C616.942 222.176 617.478 221.928 617.91 221.432C618.358 220.92 618.582 220.2 618.582 219.272C618.582 218.376 618.366 217.704 617.934 217.256C617.518 216.792 616.934 216.56 616.182 216.56ZM616.35 224.288C615.358 224.288 614.438 224.024 613.59 223.496C612.742 222.968 612.062 222.152 611.55 221.048C611.054 219.944 610.806 218.536 610.806 216.824C610.806 214.84 611.086 213.24 611.646 212.024C612.222 210.792 612.966 209.888 613.878 209.312C614.79 208.736 615.766 208.448 616.806 208.448C617.734 208.448 618.534 208.616 619.206 208.952C619.878 209.288 620.438 209.696 620.886 210.176L619.398 211.856C619.126 211.52 618.766 211.248 618.318 211.04C617.886 210.816 617.438 210.704 616.974 210.704C616.334 210.704 615.75 210.88 615.222 211.232C614.694 211.584 614.262 212.176 613.926 213.008C613.606 213.824 613.422 214.936 613.374 216.344C613.822 215.784 614.35 215.344 614.958 215.024C615.566 214.704 616.142 214.544 616.686 214.544C618.014 214.544 619.086 214.936 619.902 215.72C620.734 216.488 621.15 217.672 621.15 219.272C621.15 220.28 620.926 221.16 620.478 221.912C620.046 222.664 619.47 223.248 618.75 223.664C618.03 224.08 617.23 224.288 616.35 224.288Z" fill="#FCFCFD"/>
<rect width="37.5" height="50" transform="translate(635 190)" fill="#AB212F"/>
<path d="M651.282 224C651.378 222.192 651.57 220.576 651.858 219.152C652.146 217.712 652.586 216.344 653.178 215.048C653.77 213.752 654.554 212.424 655.53 211.064H648.306V208.736H658.554V210.416C657.658 211.52 656.93 212.576 656.37 213.584C655.826 214.592 655.394 215.616 655.074 216.656C654.77 217.68 654.546 218.792 654.402 219.992C654.258 221.176 654.154 222.512 654.09 224H651.282Z" fill="#FCFCFD"/>
<rect width="37.5" height="50" transform="translate(672.5 190)" fill="#8D1B26"/>
<path d="M690.918 224.288C689.926 224.288 689.038 224.112 688.254 223.76C687.47 223.392 686.854 222.896 686.406 222.272C685.958 221.648 685.734 220.92 685.734 220.088C685.734 219.144 686.014 218.352 686.574 217.712C687.134 217.072 687.774 216.56 688.494 216.176V216.08C687.902 215.664 687.398 215.168 686.982 214.592C686.582 214 686.382 213.304 686.382 212.504C686.382 211.672 686.582 210.96 686.982 210.368C687.382 209.76 687.926 209.288 688.614 208.952C689.318 208.616 690.11 208.448 690.99 208.448C692.366 208.448 693.454 208.832 694.254 209.6C695.07 210.352 695.478 211.344 695.478 212.576C695.478 213.328 695.262 214.008 694.83 214.616C694.398 215.224 693.934 215.712 693.438 216.08V216.176C694.142 216.576 694.758 217.08 695.286 217.688C695.814 218.296 696.078 219.112 696.078 220.136C696.078 220.92 695.862 221.624 695.43 222.248C694.998 222.872 694.398 223.368 693.63 223.736C692.862 224.104 691.958 224.288 690.918 224.288ZM691.926 215.384C692.342 214.968 692.654 214.544 692.862 214.112C693.086 213.68 693.198 213.224 693.198 212.744C693.198 212.072 692.998 211.52 692.598 211.088C692.198 210.64 691.646 210.416 690.942 210.416C690.35 210.416 689.854 210.6 689.454 210.968C689.054 211.336 688.854 211.848 688.854 212.504C688.854 213.016 688.99 213.448 689.262 213.8C689.534 214.136 689.902 214.432 690.366 214.688C690.846 214.928 691.366 215.16 691.926 215.384ZM690.966 222.32C691.702 222.32 692.302 222.12 692.766 221.72C693.246 221.304 693.486 220.744 693.486 220.04C693.486 219.48 693.318 219.024 692.982 218.672C692.662 218.32 692.222 218.016 691.662 217.76C691.118 217.488 690.502 217.216 689.814 216.944C689.334 217.296 688.934 217.712 688.614 218.192C688.31 218.672 688.158 219.208 688.158 219.8C688.158 220.552 688.43 221.16 688.974 221.624C689.518 222.088 690.182 222.32 690.966 222.32Z" fill="#FCFCFD"/>
</g>
<g filter="url(#filter3_d_1510_1349)">
<path d="M410 288C410 283.582 413.582 280 418 280H702C706.418 280 710 283.582 710 288V430H410V288Z" fill="#0BB2CB"/>
<path d="M541.492 364V348.304H544.276V364H541.492ZM548.025 364V352.216H550.305L550.497 353.8H550.593C551.121 353.288 551.697 352.848 552.321 352.48C552.945 352.112 553.657 351.928 554.457 351.928C555.721 351.928 556.641 352.336 557.217 353.152C557.793 353.968 558.081 355.12 558.081 356.608V364H555.321V356.968C555.321 355.992 555.177 355.304 554.889 354.904C554.601 354.504 554.129 354.304 553.473 354.304C552.961 354.304 552.505 354.432 552.105 354.688C551.721 354.928 551.281 355.288 550.785 355.768V364H548.025ZM561.935 364V354.4H560.351V352.336L561.935 352.216V350.992C561.935 349.76 562.239 348.752 562.847 347.968C563.455 347.168 564.455 346.768 565.847 346.768C566.263 346.768 566.663 346.808 567.047 346.888C567.431 346.968 567.751 347.064 568.007 347.176L567.479 349.24C567.047 349.048 566.615 348.952 566.183 348.952C565.191 348.952 564.695 349.616 564.695 350.944V352.216H566.999V354.4H564.695V364H561.935ZM573.662 364.288C572.686 364.288 571.774 364.048 570.926 363.568C570.078 363.072 569.39 362.368 568.862 361.456C568.334 360.528 568.07 359.416 568.07 358.12C568.07 356.808 568.334 355.696 568.862 354.784C569.39 353.856 570.078 353.152 570.926 352.672C571.774 352.176 572.686 351.928 573.662 351.928C574.654 351.928 575.574 352.176 576.422 352.672C577.27 353.152 577.958 353.856 578.486 354.784C579.014 355.696 579.278 356.808 579.278 358.12C579.278 359.416 579.014 360.528 578.486 361.456C577.958 362.368 577.27 363.072 576.422 363.568C575.574 364.048 574.654 364.288 573.662 364.288ZM573.662 362.032C574.526 362.032 575.206 361.672 575.702 360.952C576.198 360.232 576.446 359.288 576.446 358.12C576.446 356.936 576.198 355.984 575.702 355.264C575.206 354.544 574.526 354.184 573.662 354.184C572.798 354.184 572.118 354.544 571.622 355.264C571.142 355.984 570.902 356.936 570.902 358.12C570.902 359.288 571.142 360.232 571.622 360.952C572.118 361.672 572.798 362.032 573.662 362.032Z" fill="#FCFCFD"/>
<rect width="37.5" height="50" transform="translate(410 430)" fill="#E2F9FD"/>
<path d="M424.026 464V461.744H427.434V451.712H424.626V449.984C425.378 449.84 426.034 449.672 426.594 449.48C427.154 449.272 427.674 449.024 428.154 448.736H430.218V461.744H433.218V464H424.026Z" fill="#282B33"/>
<rect width="37.5" height="50" transform="translate(447.5 430)" fill="#CFF6FC"/>
<path d="M460.662 464V462.392C462.086 461.016 463.31 459.792 464.334 458.72C465.374 457.632 466.174 456.648 466.734 455.768C467.294 454.872 467.574 454.04 467.574 453.272C467.574 452.472 467.358 451.832 466.926 451.352C466.494 450.872 465.87 450.632 465.054 450.632C464.462 450.632 463.918 450.8 463.422 451.136C462.942 451.472 462.494 451.872 462.078 452.336L460.542 450.8C461.246 450.048 461.974 449.472 462.726 449.072C463.478 448.656 464.374 448.448 465.414 448.448C466.886 448.448 468.054 448.872 468.918 449.72C469.798 450.568 470.238 451.704 470.238 453.128C470.238 454.024 469.982 454.944 469.47 455.888C468.974 456.816 468.302 457.768 467.454 458.744C466.622 459.72 465.702 460.744 464.694 461.816C465.094 461.784 465.526 461.752 465.99 461.72C466.454 461.672 466.87 461.648 467.238 461.648H470.982V464H460.662Z" fill="#282B33"/>
<rect width="37.5" height="50" transform="translate(485 430)" fill="#9EEEFA"/>
<path d="M503.01 464.288C501.778 464.288 500.738 464.08 499.89 463.664C499.058 463.232 498.37 462.72 497.826 462.128L499.146 460.352C499.61 460.816 500.138 461.216 500.73 461.552C501.322 461.872 502.002 462.032 502.77 462.032C503.602 462.032 504.274 461.832 504.786 461.432C505.314 461.016 505.578 460.448 505.578 459.728C505.578 459.2 505.442 458.744 505.17 458.36C504.914 457.96 504.458 457.656 503.802 457.448C503.162 457.24 502.258 457.136 501.09 457.136V455.12C502.594 455.12 503.634 454.888 504.21 454.424C504.786 453.96 505.074 453.376 505.074 452.672C505.074 452.032 504.874 451.536 504.474 451.184C504.074 450.816 503.522 450.632 502.818 450.632C502.226 450.632 501.682 450.768 501.186 451.04C500.69 451.296 500.21 451.64 499.746 452.072L498.33 450.368C498.986 449.792 499.682 449.328 500.418 448.976C501.17 448.624 502.002 448.448 502.914 448.448C504.386 448.448 505.578 448.8 506.49 449.504C507.402 450.192 507.858 451.184 507.858 452.48C507.858 453.328 507.618 454.048 507.138 454.64C506.674 455.216 506.026 455.664 505.194 455.984V456.08C506.09 456.32 506.842 456.76 507.45 457.4C508.058 458.04 508.362 458.864 508.362 459.872C508.362 460.8 508.114 461.592 507.618 462.248C507.138 462.904 506.49 463.408 505.674 463.76C504.874 464.112 503.986 464.288 503.01 464.288Z" fill="#282B33"/>
<rect width="37.5" height="50" transform="translate(522.5 430)" fill="#55E1F6"/>
<path d="M537.918 457.928H541.926V454.472C541.926 454.024 541.942 453.496 541.974 452.888C542.006 452.28 542.03 451.752 542.046 451.304H541.95C541.758 451.704 541.558 452.096 541.35 452.48C541.142 452.864 540.926 453.264 540.702 453.68L537.918 457.928ZM541.926 464V460.064H535.182V458.192L541.23 448.736H544.518V457.928H546.438V460.064H544.518V464H541.926Z" fill="#282B33"/>
<rect width="37.5" height="50" transform="translate(560 430)" fill="#0CCBE9"/>
<path d="M578.034 464.288C576.802 464.288 575.762 464.08 574.914 463.664C574.082 463.232 573.386 462.736 572.826 462.176L574.098 460.4C574.562 460.832 575.082 461.216 575.658 461.552C576.234 461.872 576.906 462.032 577.674 462.032C578.522 462.032 579.226 461.776 579.786 461.264C580.346 460.752 580.626 460.032 580.626 459.104C580.626 458.192 580.37 457.488 579.858 456.992C579.346 456.496 578.666 456.248 577.818 456.248C577.322 456.248 576.906 456.32 576.57 456.464C576.234 456.592 575.834 456.808 575.37 457.112L574.05 456.272L574.506 448.736H582.666V451.064H576.906L576.594 454.76C576.914 454.6 577.226 454.48 577.53 454.4C577.85 454.304 578.21 454.256 578.61 454.256C579.49 454.256 580.29 454.424 581.01 454.76C581.73 455.096 582.306 455.616 582.738 456.32C583.186 457.024 583.41 457.928 583.41 459.032C583.41 460.136 583.154 461.08 582.642 461.864C582.146 462.648 581.49 463.248 580.674 463.664C579.858 464.08 578.978 464.288 578.034 464.288Z" fill="#FCFCFD"/>
<rect width="37.5" height="50" transform="translate(597.5 430)" fill="#0BB2CB"/>
<path d="M616.182 456.56C615.75 456.56 615.294 456.696 614.814 456.968C614.334 457.224 613.878 457.672 613.446 458.312C613.59 459.672 613.918 460.656 614.43 461.264C614.942 461.872 615.566 462.176 616.302 462.176C616.942 462.176 617.478 461.928 617.91 461.432C618.358 460.92 618.582 460.2 618.582 459.272C618.582 458.376 618.366 457.704 617.934 457.256C617.518 456.792 616.934 456.56 616.182 456.56ZM616.35 464.288C615.358 464.288 614.438 464.024 613.59 463.496C612.742 462.968 612.062 462.152 611.55 461.048C611.054 459.944 610.806 458.536 610.806 456.824C610.806 454.84 611.086 453.24 611.646 452.024C612.222 450.792 612.966 449.888 613.878 449.312C614.79 448.736 615.766 448.448 616.806 448.448C617.734 448.448 618.534 448.616 619.206 448.952C619.878 449.288 620.438 449.696 620.886 450.176L619.398 451.856C619.126 451.52 618.766 451.248 618.318 451.04C617.886 450.816 617.438 450.704 616.974 450.704C616.334 450.704 615.75 450.88 615.222 451.232C614.694 451.584 614.262 452.176 613.926 453.008C613.606 453.824 613.422 454.936 613.374 456.344C613.822 455.784 614.35 455.344 614.958 455.024C615.566 454.704 616.142 454.544 616.686 454.544C618.014 454.544 619.086 454.936 619.902 455.72C620.734 456.488 621.15 457.672 621.15 459.272C621.15 460.28 620.926 461.16 620.478 461.912C620.046 462.664 619.47 463.248 618.75 463.664C618.03 464.08 617.23 464.288 616.35 464.288Z" fill="#FCFCFD"/>
<rect width="37.5" height="50" transform="translate(635 430)" fill="#0994AA"/>
<path d="M651.282 464C651.378 462.192 651.57 460.576 651.858 459.152C652.146 457.712 652.586 456.344 653.178 455.048C653.77 453.752 654.554 452.424 655.53 451.064H648.306V448.736H658.554V450.416C657.658 451.52 656.93 452.576 656.37 453.584C655.826 454.592 655.394 455.616 655.074 456.656C654.77 457.68 654.546 458.792 654.402 459.992C654.258 461.176 654.154 462.512 654.09 464H651.282Z" fill="#FCFCFD"/>
<rect width="37.5" height="50" transform="translate(672.5 430)" fill="#077283"/>
<path d="M690.918 464.288C689.926 464.288 689.038 464.112 688.254 463.76C687.47 463.392 686.854 462.896 686.406 462.272C685.958 461.648 685.734 460.92 685.734 460.088C685.734 459.144 686.014 458.352 686.574 457.712C687.134 457.072 687.774 456.56 688.494 456.176V456.08C687.902 455.664 687.398 455.168 686.982 454.592C686.582 454 686.382 453.304 686.382 452.504C686.382 451.672 686.582 450.96 686.982 450.368C687.382 449.76 687.926 449.288 688.614 448.952C689.318 448.616 690.11 448.448 690.99 448.448C692.366 448.448 693.454 448.832 694.254 449.6C695.07 450.352 695.478 451.344 695.478 452.576C695.478 453.328 695.262 454.008 694.83 454.616C694.398 455.224 693.934 455.712 693.438 456.08V456.176C694.142 456.576 694.758 457.08 695.286 457.688C695.814 458.296 696.078 459.112 696.078 460.136C696.078 460.92 695.862 461.624 695.43 462.248C694.998 462.872 694.398 463.368 693.63 463.736C692.862 464.104 691.958 464.288 690.918 464.288ZM691.926 455.384C692.342 454.968 692.654 454.544 692.862 454.112C693.086 453.68 693.198 453.224 693.198 452.744C693.198 452.072 692.998 451.52 692.598 451.088C692.198 450.64 691.646 450.416 690.942 450.416C690.35 450.416 689.854 450.6 689.454 450.968C689.054 451.336 688.854 451.848 688.854 452.504C688.854 453.016 688.99 453.448 689.262 453.8C689.534 454.136 689.902 454.432 690.366 454.688C690.846 454.928 691.366 455.16 691.926 455.384ZM690.966 462.32C691.702 462.32 692.302 462.12 692.766 461.72C693.246 461.304 693.486 460.744 693.486 460.04C693.486 459.48 693.318 459.024 692.982 458.672C692.662 458.32 692.222 458.016 691.662 457.76C691.118 457.488 690.502 457.216 689.814 456.944C689.334 457.296 688.934 457.712 688.614 458.192C688.31 458.672 688.158 459.208 688.158 459.8C688.158 460.552 688.43 461.16 688.974 461.624C689.518 462.088 690.182 462.32 690.966 462.32Z" fill="#FCFCFD"/>
</g>
<defs>
<filter id="filter0_d_1510_1349" x="66" y="36" width="308" height="208" filterUnits="userSpaceOnUse" color-interpolation-filters="sRGB">
<feFlood flood-opacity="0" result="BackgroundImageFix"/>
<feColorMatrix in="SourceAlpha" type="matrix" values="0 0 0 0 0 0 0 0 0 0 0 0 0 0 0 0 0 0 127 0" result="hardAlpha"/>
<feOffset/>
<feGaussianBlur stdDeviation="2"/>
<feComposite in2="hardAlpha" operator="out"/>
<feColorMatrix type="matrix" values="0 0 0 0 0 0 0 0 0 0 0 0 0 0 0 0 0 0 0.15 0"/>
<feBlend mode="normal" in2="BackgroundImageFix" result="effect1_dropShadow_1510_1349"/>
<feBlend mode="normal" in="SourceGraphic" in2="effect1_dropShadow_1510_1349" result="shape"/>
</filter>
<filter id="filter1_d_1510_1349" x="66" y="276" width="308" height="208" filterUnits="userSpaceOnUse" color-interpolation-filters="sRGB">
<feFlood flood-opacity="0" result="BackgroundImageFix"/>
<feColorMatrix in="SourceAlpha" type="matrix" values="0 0 0 0 0 0 0 0 0 0 0 0 0 0 0 0 0 0 127 0" result="hardAlpha"/>
<feOffset/>
<feGaussianBlur stdDeviation="2"/>
<feComposite in2="hardAlpha" operator="out"/>
<feColorMatrix type="matrix" values="0 0 0 0 0 0 0 0 0 0 0 0 0 0 0 0 0 0 0.15 0"/>
<feBlend mode="normal" in2="BackgroundImageFix" result="effect1_dropShadow_1510_1349"/>
<feBlend mode="normal" in="SourceGraphic" in2="effect1_dropShadow_1510_1349" result="shape"/>
</filter>
<filter id="filter2_d_1510_1349" x="406" y="36" width="308" height="208" filterUnits="userSpaceOnUse" color-interpolation-filters="sRGB">
<feFlood flood-opacity="0" result="BackgroundImageFix"/>
<feColorMatrix in="SourceAlpha" type="matrix" values="0 0 0 0 0 0 0 0 0 0 0 0 0 0 0 0 0 0 127 0" result="hardAlpha"/>
<feOffset/>
<feGaussianBlur stdDeviation="2"/>
<feComposite in2="hardAlpha" operator="out"/>
<feColorMatrix type="matrix" values="0 0 0 0 0 0 0 0 0 0 0 0 0 0 0 0 0 0 0.15 0"/>
<feBlend mode="normal" in2="BackgroundImageFix" result="effect1_dropShadow_1510_1349"/>
<feBlend mode="normal" in="SourceGraphic" in2="effect1_dropShadow_1510_1349" result="shape"/>
</filter>
<filter id="filter3_d_1510_1349" x="406" y="276" width="308" height="208" filterUnits="userSpaceOnUse" color-interpolation-filters="sRGB">
<feFlood flood-opacity="0" result="BackgroundImageFix"/>
<feColorMatrix in="SourceAlpha" type="matrix" values="0 0 0 0 0 0 0 0 0 0 0 0 0 0 0 0 0 0 127 0" result="hardAlpha"/>
<feOffset/>
<feGaussianBlur stdDeviation="2"/>
<feComposite in2="hardAlpha" operator="out"/>
<feColorMatrix type="matrix" values="0 0 0 0 0 0 0 0 0 0 0 0 0 0 0 0 0 0 0.15 0"/>
<feBlend mode="normal" in2="BackgroundImageFix" result="effect1_dropShadow_1510_1349"/>
<feBlend mode="normal" in="SourceGraphic" in2="effect1_dropShadow_1510_1349" result="shape"/>
</filter>
</defs>
</svg>
