<svg width="780" height="340" viewBox="0 0 780 340" fill="none" xmlns="http://www.w3.org/2000/svg">
<rect width="780" height="340" rx="8" fill="#F2F3F5"/>
<g filter="url(#filter0_d_1510_1396)">
<rect x="50" y="40" width="120" height="120" rx="8" fill="#D96D36" shape-rendering="crispEdges"/>
<path d="M70.492 109V93.304H75.436C76.604 93.304 77.644 93.456 78.556 93.76C79.468 94.064 80.188 94.568 80.716 95.272C81.244 95.976 81.508 96.936 81.508 98.152C81.508 99.304 81.244 100.256 80.716 101.008C80.188 101.76 79.476 102.32 78.58 102.688C77.684 103.056 76.668 103.24 75.532 103.24H73.276V109H70.492ZM73.276 101.008H75.316C77.62 101.008 78.772 100.056 78.772 98.152C78.772 97.16 78.468 96.48 77.86 96.112C77.268 95.728 76.388 95.536 75.22 95.536H73.276V101.008ZM84.2208 109V97.216H86.5008L86.6928 99.304H86.7888C87.2048 98.536 87.7088 97.952 88.3008 97.552C88.8928 97.136 89.5008 96.928 90.1248 96.928C90.6848 96.928 91.1328 97.008 91.4688 97.168L90.9888 99.568C90.7808 99.504 90.5888 99.456 90.4128 99.424C90.2368 99.392 90.0208 99.376 89.7648 99.376C89.3008 99.376 88.8128 99.56 88.3008 99.928C87.7888 100.28 87.3488 100.904 86.9808 101.8V109H84.2208ZM97.9795 109.288C96.8915 109.288 95.9075 109.048 95.0275 108.568C94.1475 108.072 93.4515 107.368 92.9395 106.456C92.4275 105.528 92.1715 104.416 92.1715 103.12C92.1715 101.84 92.4275 100.736 92.9395 99.808C93.4675 98.88 94.1475 98.168 94.9795 97.672C95.8115 97.176 96.6835 96.928 97.5955 96.928C98.6675 96.928 99.5635 97.168 100.284 97.648C101.004 98.112 101.548 98.768 101.916 99.616C102.284 100.448 102.468 101.416 102.468 102.52C102.468 103.096 102.428 103.544 102.348 103.864H94.8595C94.9875 104.904 95.3635 105.712 95.9875 106.288C96.6115 106.864 97.3955 107.152 98.3395 107.152C98.8515 107.152 99.3235 107.08 99.7555 106.936C100.204 106.776 100.644 106.56 101.076 106.288L102.012 108.016C101.452 108.384 100.828 108.688 100.14 108.928C99.4515 109.168 98.7315 109.288 97.9795 109.288ZM94.8355 101.992H100.068C100.068 101.08 99.8675 100.368 99.4675 99.856C99.0675 99.328 98.4675 99.064 97.6675 99.064C96.9795 99.064 96.3635 99.32 95.8195 99.832C95.2915 100.328 94.9635 101.048 94.8355 101.992ZM108.392 109.288C107.592 109.288 106.792 109.136 105.992 108.832C105.192 108.512 104.504 108.12 103.928 107.656L105.224 105.88C105.752 106.28 106.28 106.6 106.808 106.84C107.336 107.08 107.896 107.2 108.488 107.2C109.128 107.2 109.6 107.064 109.904 106.792C110.208 106.52 110.36 106.184 110.36 105.784C110.36 105.448 110.232 105.176 109.976 104.968C109.736 104.744 109.424 104.552 109.04 104.392C108.656 104.216 108.256 104.048 107.84 103.888C107.328 103.696 106.816 103.464 106.304 103.192C105.808 102.904 105.4 102.544 105.08 102.112C104.76 101.664 104.6 101.112 104.6 100.456C104.6 99.416 104.984 98.568 105.752 97.912C106.52 97.256 107.56 96.928 108.872 96.928C109.704 96.928 110.448 97.072 111.104 97.36C111.76 97.648 112.328 97.976 112.808 98.344L111.536 100.024C111.12 99.72 110.696 99.48 110.264 99.304C109.848 99.112 109.408 99.016 108.944 99.016C108.352 99.016 107.912 99.144 107.624 99.4C107.336 99.64 107.192 99.944 107.192 100.312C107.192 100.776 107.432 101.128 107.912 101.368C108.392 101.608 108.952 101.84 109.592 102.064C110.136 102.256 110.664 102.496 111.176 102.784C111.688 103.056 112.112 103.416 112.448 103.864C112.8 104.312 112.976 104.904 112.976 105.64C112.976 106.648 112.584 107.512 111.8 108.232C111.016 108.936 109.88 109.288 108.392 109.288ZM120.48 109.288C119.392 109.288 118.408 109.048 117.528 108.568C116.648 108.072 115.952 107.368 115.44 106.456C114.928 105.528 114.672 104.416 114.672 103.12C114.672 101.84 114.928 100.736 115.44 99.808C115.968 98.88 116.648 98.168 117.48 97.672C118.312 97.176 119.184 96.928 120.096 96.928C121.168 96.928 122.064 97.168 122.784 97.648C123.504 98.112 124.048 98.768 124.416 99.616C124.784 100.448 124.968 101.416 124.968 102.52C124.968 103.096 124.928 103.544 124.848 103.864H117.36C117.488 104.904 117.864 105.712 118.488 106.288C119.112 106.864 119.896 107.152 120.84 107.152C121.352 107.152 121.824 107.08 122.256 106.936C122.704 106.776 123.144 106.56 123.576 106.288L124.512 108.016C123.952 108.384 123.328 108.688 122.64 108.928C121.952 109.168 121.232 109.288 120.48 109.288ZM117.336 101.992H122.568C122.568 101.08 122.368 100.368 121.968 99.856C121.568 99.328 120.968 99.064 120.168 99.064C119.48 99.064 118.864 99.32 118.32 99.832C117.792 100.328 117.464 101.048 117.336 101.992ZM131.521 109.288C130.161 109.288 129.193 108.896 128.617 108.112C128.057 107.312 127.777 106.28 127.777 105.016V99.4H126.097V97.336L127.921 97.216L128.257 94H130.561V97.216H133.561V99.4H130.561V105.016C130.561 106.392 131.113 107.08 132.217 107.08C132.425 107.08 132.641 107.056 132.865 107.008C133.089 106.944 133.281 106.88 133.441 106.816L133.921 108.856C133.601 108.968 133.233 109.064 132.817 109.144C132.417 109.24 131.985 109.288 131.521 109.288ZM140.87 109V106.744H144.278V96.712H141.47V94.984C142.222 94.84 142.878 94.672 143.438 94.48C143.998 94.272 144.518 94.024 144.998 93.736H147.062V106.744H150.062V109H140.87Z" fill="#FCFCFD"/>
</g>
<g filter="url(#filter1_d_1510_1396)">
<rect x="610" y="40" width="120" height="120" rx="8" fill="#3DCCB4" shape-rendering="crispEdges"/>
<path d="M630.492 109V93.304H635.436C636.604 93.304 637.644 93.456 638.556 93.76C639.468 94.064 640.188 94.568 640.716 95.272C641.244 95.976 641.508 96.936 641.508 98.152C641.508 99.304 641.244 100.256 640.716 101.008C640.188 101.76 639.476 102.32 638.58 102.688C637.684 103.056 636.668 103.24 635.532 103.24H633.276V109H630.492ZM633.276 101.008H635.316C637.62 101.008 638.772 100.056 638.772 98.152C638.772 97.16 638.468 96.48 637.86 96.112C637.268 95.728 636.388 95.536 635.22 95.536H633.276V101.008ZM644.221 109V97.216H646.501L646.693 99.304H646.789C647.205 98.536 647.709 97.952 648.301 97.552C648.893 97.136 649.501 96.928 650.125 96.928C650.685 96.928 651.133 97.008 651.469 97.168L650.989 99.568C650.781 99.504 650.589 99.456 650.413 99.424C650.237 99.392 650.021 99.376 649.765 99.376C649.301 99.376 648.813 99.56 648.301 99.928C647.789 100.28 647.349 100.904 646.981 101.8V109H644.221ZM657.98 109.288C656.892 109.288 655.908 109.048 655.028 108.568C654.148 108.072 653.452 107.368 652.94 106.456C652.428 105.528 652.172 104.416 652.172 103.12C652.172 101.84 652.428 100.736 652.94 99.808C653.468 98.88 654.148 98.168 654.98 97.672C655.812 97.176 656.684 96.928 657.596 96.928C658.668 96.928 659.564 97.168 660.284 97.648C661.004 98.112 661.548 98.768 661.916 99.616C662.284 100.448 662.468 101.416 662.468 102.52C662.468 103.096 662.428 103.544 662.348 103.864H654.86C654.988 104.904 655.364 105.712 655.988 106.288C656.612 106.864 657.396 107.152 658.34 107.152C658.852 107.152 659.324 107.08 659.756 106.936C660.204 106.776 660.644 106.56 661.076 106.288L662.012 108.016C661.452 108.384 660.828 108.688 660.14 108.928C659.452 109.168 658.732 109.288 657.98 109.288ZM654.836 101.992H660.068C660.068 101.08 659.868 100.368 659.468 99.856C659.068 99.328 658.468 99.064 657.668 99.064C656.98 99.064 656.364 99.32 655.82 99.832C655.292 100.328 654.964 101.048 654.836 101.992ZM668.392 109.288C667.592 109.288 666.792 109.136 665.992 108.832C665.192 108.512 664.504 108.12 663.928 107.656L665.224 105.88C665.752 106.28 666.28 106.6 666.808 106.84C667.336 107.08 667.896 107.2 668.488 107.2C669.128 107.2 669.6 107.064 669.904 106.792C670.208 106.52 670.36 106.184 670.36 105.784C670.36 105.448 670.232 105.176 669.976 104.968C669.736 104.744 669.424 104.552 669.04 104.392C668.656 104.216 668.256 104.048 667.84 103.888C667.328 103.696 666.816 103.464 666.304 103.192C665.808 102.904 665.4 102.544 665.08 102.112C664.76 101.664 664.6 101.112 664.6 100.456C664.6 99.416 664.984 98.568 665.752 97.912C666.52 97.256 667.56 96.928 668.872 96.928C669.704 96.928 670.448 97.072 671.104 97.36C671.76 97.648 672.328 97.976 672.808 98.344L671.536 100.024C671.12 99.72 670.696 99.48 670.264 99.304C669.848 99.112 669.408 99.016 668.944 99.016C668.352 99.016 667.912 99.144 667.624 99.4C667.336 99.64 667.192 99.944 667.192 100.312C667.192 100.776 667.432 101.128 667.912 101.368C668.392 101.608 668.952 101.84 669.592 102.064C670.136 102.256 670.664 102.496 671.176 102.784C671.688 103.056 672.112 103.416 672.448 103.864C672.8 104.312 672.976 104.904 672.976 105.64C672.976 106.648 672.584 107.512 671.8 108.232C671.016 108.936 669.88 109.288 668.392 109.288ZM680.48 109.288C679.392 109.288 678.408 109.048 677.528 108.568C676.648 108.072 675.952 107.368 675.44 106.456C674.928 105.528 674.672 104.416 674.672 103.12C674.672 101.84 674.928 100.736 675.44 99.808C675.968 98.88 676.648 98.168 677.48 97.672C678.312 97.176 679.184 96.928 680.096 96.928C681.168 96.928 682.064 97.168 682.784 97.648C683.504 98.112 684.048 98.768 684.416 99.616C684.784 100.448 684.968 101.416 684.968 102.52C684.968 103.096 684.928 103.544 684.848 103.864H677.36C677.488 104.904 677.864 105.712 678.488 106.288C679.112 106.864 679.896 107.152 680.84 107.152C681.352 107.152 681.824 107.08 682.256 106.936C682.704 106.776 683.144 106.56 683.576 106.288L684.512 108.016C683.952 108.384 683.328 108.688 682.64 108.928C681.952 109.168 681.232 109.288 680.48 109.288ZM677.336 101.992H682.568C682.568 101.08 682.368 100.368 681.968 99.856C681.568 99.328 680.968 99.064 680.168 99.064C679.48 99.064 678.864 99.32 678.32 99.832C677.792 100.328 677.464 101.048 677.336 101.992ZM691.521 109.288C690.161 109.288 689.193 108.896 688.617 108.112C688.057 107.312 687.777 106.28 687.777 105.016V99.4H686.097V97.336L687.921 97.216L688.257 94H690.561V97.216H693.561V99.4H690.561V105.016C690.561 106.392 691.113 107.08 692.217 107.08C692.425 107.08 692.641 107.056 692.865 107.008C693.089 106.944 693.281 106.88 693.441 106.816L693.921 108.856C693.601 108.968 693.233 109.064 692.817 109.144C692.417 109.24 691.985 109.288 691.521 109.288ZM704.878 109.288C703.646 109.288 702.606 109.08 701.758 108.664C700.926 108.232 700.23 107.736 699.67 107.176L700.942 105.4C701.406 105.832 701.926 106.216 702.502 106.552C703.078 106.872 703.75 107.032 704.518 107.032C705.366 107.032 706.07 106.776 706.63 106.264C707.19 105.752 707.47 105.032 707.47 104.104C707.47 103.192 707.214 102.488 706.702 101.992C706.19 101.496 705.51 101.248 704.662 101.248C704.166 101.248 703.75 101.32 703.414 101.464C703.078 101.592 702.678 101.808 702.214 102.112L700.894 101.272L701.35 93.736H709.51V96.064H703.75L703.438 99.76C703.758 99.6 704.07 99.48 704.374 99.4C704.694 99.304 705.054 99.256 705.454 99.256C706.334 99.256 707.134 99.424 707.854 99.76C708.574 100.096 709.15 100.616 709.582 101.32C710.03 102.024 710.254 102.928 710.254 104.032C710.254 105.136 709.998 106.08 709.486 106.864C708.99 107.648 708.334 108.248 707.518 108.664C706.702 109.08 705.822 109.288 704.878 109.288Z" fill="#FCFCFD"/>
</g>
<g filter="url(#filter2_d_1510_1396)">
<rect x="470" y="180" width="120" height="120" rx="8" fill="#D94CD9" shape-rendering="crispEdges"/>
<path d="M490.492 249V233.304H495.436C496.604 233.304 497.644 233.456 498.556 233.76C499.468 234.064 500.188 234.568 500.716 235.272C501.244 235.976 501.508 236.936 501.508 238.152C501.508 239.304 501.244 240.256 500.716 241.008C500.188 241.76 499.476 242.32 498.58 242.688C497.684 243.056 496.668 243.24 495.532 243.24H493.276V249H490.492ZM493.276 241.008H495.316C497.62 241.008 498.772 240.056 498.772 238.152C498.772 237.16 498.468 236.48 497.86 236.112C497.268 235.728 496.388 235.536 495.22 235.536H493.276V241.008ZM504.221 249V237.216H506.501L506.693 239.304H506.789C507.205 238.536 507.709 237.952 508.301 237.552C508.893 237.136 509.501 236.928 510.125 236.928C510.685 236.928 511.133 237.008 511.469 237.168L510.989 239.568C510.781 239.504 510.589 239.456 510.413 239.424C510.237 239.392 510.021 239.376 509.765 239.376C509.301 239.376 508.813 239.56 508.301 239.928C507.789 240.28 507.349 240.904 506.981 241.8V249H504.221ZM517.98 249.288C516.892 249.288 515.908 249.048 515.028 248.568C514.148 248.072 513.452 247.368 512.94 246.456C512.428 245.528 512.172 244.416 512.172 243.12C512.172 241.84 512.428 240.736 512.94 239.808C513.468 238.88 514.148 238.168 514.98 237.672C515.812 237.176 516.684 236.928 517.596 236.928C518.668 236.928 519.564 237.168 520.284 237.648C521.004 238.112 521.548 238.768 521.916 239.616C522.284 240.448 522.468 241.416 522.468 242.52C522.468 243.096 522.428 243.544 522.348 243.864H514.86C514.988 244.904 515.364 245.712 515.988 246.288C516.612 246.864 517.396 247.152 518.34 247.152C518.852 247.152 519.324 247.08 519.756 246.936C520.204 246.776 520.644 246.56 521.076 246.288L522.012 248.016C521.452 248.384 520.828 248.688 520.14 248.928C519.452 249.168 518.732 249.288 517.98 249.288ZM514.836 241.992H520.068C520.068 241.08 519.868 240.368 519.468 239.856C519.068 239.328 518.468 239.064 517.668 239.064C516.98 239.064 516.364 239.32 515.82 239.832C515.292 240.328 514.964 241.048 514.836 241.992ZM528.392 249.288C527.592 249.288 526.792 249.136 525.992 248.832C525.192 248.512 524.504 248.12 523.928 247.656L525.224 245.88C525.752 246.28 526.28 246.6 526.808 246.84C527.336 247.08 527.896 247.2 528.488 247.2C529.128 247.2 529.6 247.064 529.904 246.792C530.208 246.52 530.36 246.184 530.36 245.784C530.36 245.448 530.232 245.176 529.976 244.968C529.736 244.744 529.424 244.552 529.04 244.392C528.656 244.216 528.256 244.048 527.84 243.888C527.328 243.696 526.816 243.464 526.304 243.192C525.808 242.904 525.4 242.544 525.08 242.112C524.76 241.664 524.6 241.112 524.6 240.456C524.6 239.416 524.984 238.568 525.752 237.912C526.52 237.256 527.56 236.928 528.872 236.928C529.704 236.928 530.448 237.072 531.104 237.36C531.76 237.648 532.328 237.976 532.808 238.344L531.536 240.024C531.12 239.72 530.696 239.48 530.264 239.304C529.848 239.112 529.408 239.016 528.944 239.016C528.352 239.016 527.912 239.144 527.624 239.4C527.336 239.64 527.192 239.944 527.192 240.312C527.192 240.776 527.432 241.128 527.912 241.368C528.392 241.608 528.952 241.84 529.592 242.064C530.136 242.256 530.664 242.496 531.176 242.784C531.688 243.056 532.112 243.416 532.448 243.864C532.8 244.312 532.976 244.904 532.976 245.64C532.976 246.648 532.584 247.512 531.8 248.232C531.016 248.936 529.88 249.288 528.392 249.288ZM540.48 249.288C539.392 249.288 538.408 249.048 537.528 248.568C536.648 248.072 535.952 247.368 535.44 246.456C534.928 245.528 534.672 244.416 534.672 243.12C534.672 241.84 534.928 240.736 535.44 239.808C535.968 238.88 536.648 238.168 537.48 237.672C538.312 237.176 539.184 236.928 540.096 236.928C541.168 236.928 542.064 237.168 542.784 237.648C543.504 238.112 544.048 238.768 544.416 239.616C544.784 240.448 544.968 241.416 544.968 242.52C544.968 243.096 544.928 243.544 544.848 243.864H537.36C537.488 244.904 537.864 245.712 538.488 246.288C539.112 246.864 539.896 247.152 540.84 247.152C541.352 247.152 541.824 247.08 542.256 246.936C542.704 246.776 543.144 246.56 543.576 246.288L544.512 248.016C543.952 248.384 543.328 248.688 542.64 248.928C541.952 249.168 541.232 249.288 540.48 249.288ZM537.336 241.992H542.568C542.568 241.08 542.368 240.368 541.968 239.856C541.568 239.328 540.968 239.064 540.168 239.064C539.48 239.064 538.864 239.32 538.32 239.832C537.792 240.328 537.464 241.048 537.336 241.992ZM551.521 249.288C550.161 249.288 549.193 248.896 548.617 248.112C548.057 247.312 547.777 246.28 547.777 245.016V239.4H546.097V237.336L547.921 237.216L548.257 234H550.561V237.216H553.561V239.4H550.561V245.016C550.561 246.392 551.113 247.08 552.217 247.08C552.425 247.08 552.641 247.056 552.865 247.008C553.089 246.944 553.281 246.88 553.441 246.816L553.921 248.856C553.601 248.968 553.233 249.064 552.817 249.144C552.417 249.24 551.985 249.288 551.521 249.288ZM562.526 238.44C562.526 239.336 562.734 240.016 563.15 240.48C563.582 240.944 564.182 241.176 564.95 241.176C565.398 241.176 565.862 241.04 566.342 240.768C566.838 240.48 567.286 240.024 567.686 239.4C567.542 238.056 567.214 237.08 566.702 236.472C566.19 235.864 565.558 235.56 564.806 235.56C564.182 235.56 563.646 235.808 563.198 236.304C562.75 236.8 562.526 237.512 562.526 238.44ZM564.302 249.288C563.39 249.288 562.598 249.12 561.926 248.784C561.254 248.448 560.686 248.04 560.222 247.56L561.71 245.88C561.998 246.216 562.358 246.496 562.79 246.72C563.238 246.928 563.694 247.032 564.158 247.032C564.798 247.032 565.382 246.856 565.91 246.504C566.438 246.152 566.87 245.568 567.206 244.752C567.542 243.92 567.726 242.8 567.758 241.392C567.31 241.936 566.782 242.368 566.174 242.688C565.566 243.008 564.982 243.168 564.422 243.168C563.11 243.168 562.038 242.784 561.206 242.016C560.39 241.232 559.982 240.04 559.982 238.44C559.982 237.416 560.198 236.536 560.63 235.8C561.078 235.048 561.662 234.472 562.382 234.072C563.118 233.656 563.918 233.448 564.782 233.448C565.774 233.448 566.686 233.712 567.518 234.24C568.366 234.768 569.038 235.584 569.534 236.688C570.046 237.776 570.302 239.176 570.302 240.888C570.302 242.856 570.022 244.464 569.462 245.712C568.902 246.944 568.166 247.848 567.254 248.424C566.342 249 565.358 249.288 564.302 249.288Z" fill="#FCFCFD"/>
</g>
<g filter="url(#filter3_d_1510_1396)">
<rect x="190" y="40" width="120" height="120" rx="8" fill="#D99F2B" shape-rendering="crispEdges"/>
<path d="M210.492 109V93.304H215.436C216.604 93.304 217.644 93.456 218.556 93.76C219.468 94.064 220.188 94.568 220.716 95.272C221.244 95.976 221.508 96.936 221.508 98.152C221.508 99.304 221.244 100.256 220.716 101.008C220.188 101.76 219.476 102.32 218.58 102.688C217.684 103.056 216.668 103.24 215.532 103.24H213.276V109H210.492ZM213.276 101.008H215.316C217.62 101.008 218.772 100.056 218.772 98.152C218.772 97.16 218.468 96.48 217.86 96.112C217.268 95.728 216.388 95.536 215.22 95.536H213.276V101.008ZM224.221 109V97.216H226.501L226.693 99.304H226.789C227.205 98.536 227.709 97.952 228.301 97.552C228.893 97.136 229.501 96.928 230.125 96.928C230.685 96.928 231.133 97.008 231.469 97.168L230.989 99.568C230.781 99.504 230.589 99.456 230.413 99.424C230.237 99.392 230.021 99.376 229.765 99.376C229.301 99.376 228.813 99.56 228.301 99.928C227.789 100.28 227.349 100.904 226.981 101.8V109H224.221ZM237.98 109.288C236.892 109.288 235.908 109.048 235.028 108.568C234.148 108.072 233.452 107.368 232.94 106.456C232.428 105.528 232.172 104.416 232.172 103.12C232.172 101.84 232.428 100.736 232.94 99.808C233.468 98.88 234.148 98.168 234.98 97.672C235.812 97.176 236.684 96.928 237.596 96.928C238.668 96.928 239.564 97.168 240.284 97.648C241.004 98.112 241.548 98.768 241.916 99.616C242.284 100.448 242.468 101.416 242.468 102.52C242.468 103.096 242.428 103.544 242.348 103.864H234.86C234.988 104.904 235.364 105.712 235.988 106.288C236.612 106.864 237.396 107.152 238.34 107.152C238.852 107.152 239.324 107.08 239.756 106.936C240.204 106.776 240.644 106.56 241.076 106.288L242.012 108.016C241.452 108.384 240.828 108.688 240.14 108.928C239.452 109.168 238.732 109.288 237.98 109.288ZM234.836 101.992H240.068C240.068 101.08 239.868 100.368 239.468 99.856C239.068 99.328 238.468 99.064 237.668 99.064C236.98 99.064 236.364 99.32 235.82 99.832C235.292 100.328 234.964 101.048 234.836 101.992ZM248.392 109.288C247.592 109.288 246.792 109.136 245.992 108.832C245.192 108.512 244.504 108.12 243.928 107.656L245.224 105.88C245.752 106.28 246.28 106.6 246.808 106.84C247.336 107.08 247.896 107.2 248.488 107.2C249.128 107.2 249.6 107.064 249.904 106.792C250.208 106.52 250.36 106.184 250.36 105.784C250.36 105.448 250.232 105.176 249.976 104.968C249.736 104.744 249.424 104.552 249.04 104.392C248.656 104.216 248.256 104.048 247.84 103.888C247.328 103.696 246.816 103.464 246.304 103.192C245.808 102.904 245.4 102.544 245.08 102.112C244.76 101.664 244.6 101.112 244.6 100.456C244.6 99.416 244.984 98.568 245.752 97.912C246.52 97.256 247.56 96.928 248.872 96.928C249.704 96.928 250.448 97.072 251.104 97.36C251.76 97.648 252.328 97.976 252.808 98.344L251.536 100.024C251.12 99.72 250.696 99.48 250.264 99.304C249.848 99.112 249.408 99.016 248.944 99.016C248.352 99.016 247.912 99.144 247.624 99.4C247.336 99.64 247.192 99.944 247.192 100.312C247.192 100.776 247.432 101.128 247.912 101.368C248.392 101.608 248.952 101.84 249.592 102.064C250.136 102.256 250.664 102.496 251.176 102.784C251.688 103.056 252.112 103.416 252.448 103.864C252.8 104.312 252.976 104.904 252.976 105.64C252.976 106.648 252.584 107.512 251.8 108.232C251.016 108.936 249.88 109.288 248.392 109.288ZM260.48 109.288C259.392 109.288 258.408 109.048 257.528 108.568C256.648 108.072 255.952 107.368 255.44 106.456C254.928 105.528 254.672 104.416 254.672 103.12C254.672 101.84 254.928 100.736 255.44 99.808C255.968 98.88 256.648 98.168 257.48 97.672C258.312 97.176 259.184 96.928 260.096 96.928C261.168 96.928 262.064 97.168 262.784 97.648C263.504 98.112 264.048 98.768 264.416 99.616C264.784 100.448 264.968 101.416 264.968 102.52C264.968 103.096 264.928 103.544 264.848 103.864H257.36C257.488 104.904 257.864 105.712 258.488 106.288C259.112 106.864 259.896 107.152 260.84 107.152C261.352 107.152 261.824 107.08 262.256 106.936C262.704 106.776 263.144 106.56 263.576 106.288L264.512 108.016C263.952 108.384 263.328 108.688 262.64 108.928C261.952 109.168 261.232 109.288 260.48 109.288ZM257.336 101.992H262.568C262.568 101.08 262.368 100.368 261.968 99.856C261.568 99.328 260.968 99.064 260.168 99.064C259.48 99.064 258.864 99.32 258.32 99.832C257.792 100.328 257.464 101.048 257.336 101.992ZM271.521 109.288C270.161 109.288 269.193 108.896 268.617 108.112C268.057 107.312 267.777 106.28 267.777 105.016V99.4H266.097V97.336L267.921 97.216L268.257 94H270.561V97.216H273.561V99.4H270.561V105.016C270.561 106.392 271.113 107.08 272.217 107.08C272.425 107.08 272.641 107.056 272.865 107.008C273.089 106.944 273.281 106.88 273.441 106.816L273.921 108.856C273.601 108.968 273.233 109.064 272.817 109.144C272.417 109.24 271.985 109.288 271.521 109.288ZM280.006 109V107.392C281.43 106.016 282.654 104.792 283.678 103.72C284.718 102.632 285.518 101.648 286.078 100.768C286.638 99.872 286.918 99.04 286.918 98.272C286.918 97.472 286.702 96.832 286.27 96.352C285.838 95.872 285.214 95.632 284.398 95.632C283.806 95.632 283.262 95.8 282.766 96.136C282.286 96.472 281.838 96.872 281.422 97.336L279.886 95.8C280.59 95.048 281.318 94.472 282.07 94.072C282.822 93.656 283.718 93.448 284.758 93.448C286.23 93.448 287.398 93.872 288.262 94.72C289.142 95.568 289.582 96.704 289.582 98.128C289.582 99.024 289.326 99.944 288.814 100.888C288.318 101.816 287.646 102.768 286.798 103.744C285.966 104.72 285.046 105.744 284.038 106.816C284.438 106.784 284.87 106.752 285.334 106.72C285.798 106.672 286.214 106.648 286.582 106.648H290.326V109H280.006Z" fill="#FCFCFD"/>
</g>
<g filter="url(#filter4_d_1510_1396)">
<rect x="50" y="180" width="120" height="120" rx="8" fill="#4595E5" shape-rendering="crispEdges"/>
<path d="M70.492 249V233.304H75.436C76.604 233.304 77.644 233.456 78.556 233.76C79.468 234.064 80.188 234.568 80.716 235.272C81.244 235.976 81.508 236.936 81.508 238.152C81.508 239.304 81.244 240.256 80.716 241.008C80.188 241.76 79.476 242.32 78.58 242.688C77.684 243.056 76.668 243.24 75.532 243.24H73.276V249H70.492ZM73.276 241.008H75.316C77.62 241.008 78.772 240.056 78.772 238.152C78.772 237.16 78.468 236.48 77.86 236.112C77.268 235.728 76.388 235.536 75.22 235.536H73.276V241.008ZM84.2208 249V237.216H86.5008L86.6928 239.304H86.7888C87.2048 238.536 87.7088 237.952 88.3008 237.552C88.8928 237.136 89.5008 236.928 90.1248 236.928C90.6848 236.928 91.1328 237.008 91.4688 237.168L90.9888 239.568C90.7808 239.504 90.5888 239.456 90.4128 239.424C90.2368 239.392 90.0208 239.376 89.7648 239.376C89.3008 239.376 88.8128 239.56 88.3008 239.928C87.7888 240.28 87.3488 240.904 86.9808 241.8V249H84.2208ZM97.9795 249.288C96.8915 249.288 95.9075 249.048 95.0275 248.568C94.1475 248.072 93.4515 247.368 92.9395 246.456C92.4275 245.528 92.1715 244.416 92.1715 243.12C92.1715 241.84 92.4275 240.736 92.9395 239.808C93.4675 238.88 94.1475 238.168 94.9795 237.672C95.8115 237.176 96.6835 236.928 97.5955 236.928C98.6675 236.928 99.5635 237.168 100.284 237.648C101.004 238.112 101.548 238.768 101.916 239.616C102.284 240.448 102.468 241.416 102.468 242.52C102.468 243.096 102.428 243.544 102.348 243.864H94.8595C94.9875 244.904 95.3635 245.712 95.9875 246.288C96.6115 246.864 97.3955 247.152 98.3395 247.152C98.8515 247.152 99.3235 247.08 99.7555 246.936C100.204 246.776 100.644 246.56 101.076 246.288L102.012 248.016C101.452 248.384 100.828 248.688 100.14 248.928C99.4515 249.168 98.7315 249.288 97.9795 249.288ZM94.8355 241.992H100.068C100.068 241.08 99.8675 240.368 99.4675 239.856C99.0675 239.328 98.4675 239.064 97.6675 239.064C96.9795 239.064 96.3635 239.32 95.8195 239.832C95.2915 240.328 94.9635 241.048 94.8355 241.992ZM108.392 249.288C107.592 249.288 106.792 249.136 105.992 248.832C105.192 248.512 104.504 248.12 103.928 247.656L105.224 245.88C105.752 246.28 106.28 246.6 106.808 246.84C107.336 247.08 107.896 247.2 108.488 247.2C109.128 247.2 109.6 247.064 109.904 246.792C110.208 246.52 110.36 246.184 110.36 245.784C110.36 245.448 110.232 245.176 109.976 244.968C109.736 244.744 109.424 244.552 109.04 244.392C108.656 244.216 108.256 244.048 107.84 243.888C107.328 243.696 106.816 243.464 106.304 243.192C105.808 242.904 105.4 242.544 105.08 242.112C104.76 241.664 104.6 241.112 104.6 240.456C104.6 239.416 104.984 238.568 105.752 237.912C106.52 237.256 107.56 236.928 108.872 236.928C109.704 236.928 110.448 237.072 111.104 237.36C111.76 237.648 112.328 237.976 112.808 238.344L111.536 240.024C111.12 239.72 110.696 239.48 110.264 239.304C109.848 239.112 109.408 239.016 108.944 239.016C108.352 239.016 107.912 239.144 107.624 239.4C107.336 239.64 107.192 239.944 107.192 240.312C107.192 240.776 107.432 241.128 107.912 241.368C108.392 241.608 108.952 241.84 109.592 242.064C110.136 242.256 110.664 242.496 111.176 242.784C111.688 243.056 112.112 243.416 112.448 243.864C112.8 244.312 112.976 244.904 112.976 245.64C112.976 246.648 112.584 247.512 111.8 248.232C111.016 248.936 109.88 249.288 108.392 249.288ZM120.48 249.288C119.392 249.288 118.408 249.048 117.528 248.568C116.648 248.072 115.952 247.368 115.44 246.456C114.928 245.528 114.672 244.416 114.672 243.12C114.672 241.84 114.928 240.736 115.44 239.808C115.968 238.88 116.648 238.168 117.48 237.672C118.312 237.176 119.184 236.928 120.096 236.928C121.168 236.928 122.064 237.168 122.784 237.648C123.504 238.112 124.048 238.768 124.416 239.616C124.784 240.448 124.968 241.416 124.968 242.52C124.968 243.096 124.928 243.544 124.848 243.864H117.36C117.488 244.904 117.864 245.712 118.488 246.288C119.112 246.864 119.896 247.152 120.84 247.152C121.352 247.152 121.824 247.08 122.256 246.936C122.704 246.776 123.144 246.56 123.576 246.288L124.512 248.016C123.952 248.384 123.328 248.688 122.64 248.928C121.952 249.168 121.232 249.288 120.48 249.288ZM117.336 241.992H122.568C122.568 241.08 122.368 240.368 121.968 239.856C121.568 239.328 120.968 239.064 120.168 239.064C119.48 239.064 118.864 239.32 118.32 239.832C117.792 240.328 117.464 241.048 117.336 241.992ZM131.521 249.288C130.161 249.288 129.193 248.896 128.617 248.112C128.057 247.312 127.777 246.28 127.777 245.016V239.4H126.097V237.336L127.921 237.216L128.257 234H130.561V237.216H133.561V239.4H130.561V245.016C130.561 246.392 131.113 247.08 132.217 247.08C132.425 247.08 132.641 247.056 132.865 247.008C133.089 246.944 133.281 246.88 133.441 246.816L133.921 248.856C133.601 248.968 133.233 249.064 132.817 249.144C132.417 249.24 131.985 249.288 131.521 249.288ZM145.526 241.56C145.094 241.56 144.638 241.696 144.158 241.968C143.678 242.224 143.222 242.672 142.79 243.312C142.934 244.672 143.262 245.656 143.774 246.264C144.286 246.872 144.91 247.176 145.646 247.176C146.286 247.176 146.822 246.928 147.254 246.432C147.702 245.92 147.926 245.2 147.926 244.272C147.926 243.376 147.71 242.704 147.278 242.256C146.862 241.792 146.278 241.56 145.526 241.56ZM145.694 249.288C144.702 249.288 143.782 249.024 142.934 248.496C142.086 247.968 141.406 247.152 140.894 246.048C140.398 244.944 140.15 243.536 140.15 241.824C140.15 239.84 140.43 238.24 140.99 237.024C141.566 235.792 142.31 234.888 143.222 234.312C144.134 233.736 145.11 233.448 146.15 233.448C147.078 233.448 147.878 233.616 148.55 233.952C149.222 234.288 149.782 234.696 150.23 235.176L148.742 236.856C148.47 236.52 148.11 236.248 147.662 236.04C147.23 235.816 146.782 235.704 146.318 235.704C145.678 235.704 145.094 235.88 144.566 236.232C144.038 236.584 143.606 237.176 143.27 238.008C142.95 238.824 142.766 239.936 142.718 241.344C143.166 240.784 143.694 240.344 144.302 240.024C144.91 239.704 145.486 239.544 146.03 239.544C147.358 239.544 148.43 239.936 149.246 240.72C150.078 241.488 150.494 242.672 150.494 244.272C150.494 245.28 150.27 246.16 149.822 246.912C149.39 247.664 148.814 248.248 148.094 248.664C147.374 249.08 146.574 249.288 145.694 249.288Z" fill="#FCFCFD"/>
</g>
<g filter="url(#filter5_d_1510_1396)">
<rect x="610" y="180" width="120" height="120" rx="8" fill="#D94C92" shape-rendering="crispEdges"/>
<path d="M623.992 249V233.304H628.936C630.104 233.304 631.144 233.456 632.056 233.76C632.968 234.064 633.688 234.568 634.216 235.272C634.744 235.976 635.008 236.936 635.008 238.152C635.008 239.304 634.744 240.256 634.216 241.008C633.688 241.76 632.976 242.32 632.08 242.688C631.184 243.056 630.168 243.24 629.032 243.24H626.776V249H623.992ZM626.776 241.008H628.816C631.12 241.008 632.272 240.056 632.272 238.152C632.272 237.16 631.968 236.48 631.36 236.112C630.768 235.728 629.888 235.536 628.72 235.536H626.776V241.008ZM637.721 249V237.216H640.001L640.193 239.304H640.289C640.705 238.536 641.209 237.952 641.801 237.552C642.393 237.136 643.001 236.928 643.625 236.928C644.185 236.928 644.633 237.008 644.969 237.168L644.489 239.568C644.281 239.504 644.089 239.456 643.913 239.424C643.737 239.392 643.521 239.376 643.265 239.376C642.801 239.376 642.313 239.56 641.801 239.928C641.289 240.28 640.849 240.904 640.481 241.8V249H637.721ZM651.48 249.288C650.392 249.288 649.408 249.048 648.528 248.568C647.648 248.072 646.952 247.368 646.44 246.456C645.928 245.528 645.672 244.416 645.672 243.12C645.672 241.84 645.928 240.736 646.44 239.808C646.968 238.88 647.648 238.168 648.48 237.672C649.312 237.176 650.184 236.928 651.096 236.928C652.168 236.928 653.064 237.168 653.784 237.648C654.504 238.112 655.048 238.768 655.416 239.616C655.784 240.448 655.968 241.416 655.968 242.52C655.968 243.096 655.928 243.544 655.848 243.864H648.36C648.488 244.904 648.864 245.712 649.488 246.288C650.112 246.864 650.896 247.152 651.84 247.152C652.352 247.152 652.824 247.08 653.256 246.936C653.704 246.776 654.144 246.56 654.576 246.288L655.512 248.016C654.952 248.384 654.328 248.688 653.64 248.928C652.952 249.168 652.232 249.288 651.48 249.288ZM648.336 241.992H653.568C653.568 241.08 653.368 240.368 652.968 239.856C652.568 239.328 651.968 239.064 651.168 239.064C650.48 239.064 649.864 239.32 649.32 239.832C648.792 240.328 648.464 241.048 648.336 241.992ZM661.892 249.288C661.092 249.288 660.292 249.136 659.492 248.832C658.692 248.512 658.004 248.12 657.428 247.656L658.724 245.88C659.252 246.28 659.78 246.6 660.308 246.84C660.836 247.08 661.396 247.2 661.988 247.2C662.628 247.2 663.1 247.064 663.404 246.792C663.708 246.52 663.86 246.184 663.86 245.784C663.86 245.448 663.732 245.176 663.476 244.968C663.236 244.744 662.924 244.552 662.54 244.392C662.156 244.216 661.756 244.048 661.34 243.888C660.828 243.696 660.316 243.464 659.804 243.192C659.308 242.904 658.9 242.544 658.58 242.112C658.26 241.664 658.1 241.112 658.1 240.456C658.1 239.416 658.484 238.568 659.252 237.912C660.02 237.256 661.06 236.928 662.372 236.928C663.204 236.928 663.948 237.072 664.604 237.36C665.26 237.648 665.828 237.976 666.308 238.344L665.036 240.024C664.62 239.72 664.196 239.48 663.764 239.304C663.348 239.112 662.908 239.016 662.444 239.016C661.852 239.016 661.412 239.144 661.124 239.4C660.836 239.64 660.692 239.944 660.692 240.312C660.692 240.776 660.932 241.128 661.412 241.368C661.892 241.608 662.452 241.84 663.092 242.064C663.636 242.256 664.164 242.496 664.676 242.784C665.188 243.056 665.612 243.416 665.948 243.864C666.3 244.312 666.476 244.904 666.476 245.64C666.476 246.648 666.084 247.512 665.3 248.232C664.516 248.936 663.38 249.288 661.892 249.288ZM673.98 249.288C672.892 249.288 671.908 249.048 671.028 248.568C670.148 248.072 669.452 247.368 668.94 246.456C668.428 245.528 668.172 244.416 668.172 243.12C668.172 241.84 668.428 240.736 668.94 239.808C669.468 238.88 670.148 238.168 670.98 237.672C671.812 237.176 672.684 236.928 673.596 236.928C674.668 236.928 675.564 237.168 676.284 237.648C677.004 238.112 677.548 238.768 677.916 239.616C678.284 240.448 678.468 241.416 678.468 242.52C678.468 243.096 678.428 243.544 678.348 243.864H670.86C670.988 244.904 671.364 245.712 671.988 246.288C672.612 246.864 673.396 247.152 674.34 247.152C674.852 247.152 675.324 247.08 675.756 246.936C676.204 246.776 676.644 246.56 677.076 246.288L678.012 248.016C677.452 248.384 676.828 248.688 676.14 248.928C675.452 249.168 674.732 249.288 673.98 249.288ZM670.836 241.992H676.068C676.068 241.08 675.868 240.368 675.468 239.856C675.068 239.328 674.468 239.064 673.668 239.064C672.98 239.064 672.364 239.32 671.82 239.832C671.292 240.328 670.964 241.048 670.836 241.992ZM685.021 249.288C683.661 249.288 682.693 248.896 682.117 248.112C681.557 247.312 681.277 246.28 681.277 245.016V239.4H679.597V237.336L681.421 237.216L681.757 234H684.061V237.216H687.061V239.4H684.061V245.016C684.061 246.392 684.613 247.08 685.717 247.08C685.925 247.08 686.141 247.056 686.365 247.008C686.589 246.944 686.781 246.88 686.941 246.816L687.421 248.856C687.101 248.968 686.733 249.064 686.317 249.144C685.917 249.24 685.485 249.288 685.021 249.288ZM694.37 249V246.744H697.778V236.712H694.97V234.984C695.722 234.84 696.378 234.672 696.938 234.48C697.498 234.272 698.018 234.024 698.498 233.736H700.562V246.744H703.562V249H694.37ZM711.042 249.288C709.458 249.288 708.194 248.6 707.25 247.224C706.322 245.848 705.858 243.872 705.858 241.296C705.858 238.72 706.322 236.768 707.25 235.44C708.194 234.112 709.458 233.448 711.042 233.448C712.626 233.448 713.882 234.112 714.81 235.44C715.754 236.768 716.226 238.72 716.226 241.296C716.226 243.872 715.754 245.848 714.81 247.224C713.882 248.6 712.626 249.288 711.042 249.288ZM711.042 247.128C711.538 247.128 711.978 246.944 712.362 246.576C712.746 246.192 713.042 245.576 713.25 244.728C713.474 243.88 713.586 242.736 713.586 241.296C713.586 239.856 713.474 238.72 713.25 237.888C713.042 237.056 712.746 236.472 712.362 236.136C711.978 235.784 711.538 235.608 711.042 235.608C710.562 235.608 710.13 235.784 709.746 236.136C709.362 236.472 709.058 237.056 708.834 237.888C708.61 238.72 708.498 239.856 708.498 241.296C708.498 242.736 708.61 243.88 708.834 244.728C709.058 245.576 709.362 246.192 709.746 246.576C710.13 246.944 710.562 247.128 711.042 247.128Z" fill="#FCFCFD"/>
</g>
<g filter="url(#filter6_d_1510_1396)">
<rect x="330" y="40" width="120" height="120" rx="8" fill="#98B212" shape-rendering="crispEdges"/>
<path d="M350.492 109V93.304H355.436C356.604 93.304 357.644 93.456 358.556 93.76C359.468 94.064 360.188 94.568 360.716 95.272C361.244 95.976 361.508 96.936 361.508 98.152C361.508 99.304 361.244 100.256 360.716 101.008C360.188 101.76 359.476 102.32 358.58 102.688C357.684 103.056 356.668 103.24 355.532 103.24H353.276V109H350.492ZM353.276 101.008H355.316C357.62 101.008 358.772 100.056 358.772 98.152C358.772 97.16 358.468 96.48 357.86 96.112C357.268 95.728 356.388 95.536 355.22 95.536H353.276V101.008ZM364.221 109V97.216H366.501L366.693 99.304H366.789C367.205 98.536 367.709 97.952 368.301 97.552C368.893 97.136 369.501 96.928 370.125 96.928C370.685 96.928 371.133 97.008 371.469 97.168L370.989 99.568C370.781 99.504 370.589 99.456 370.413 99.424C370.237 99.392 370.021 99.376 369.765 99.376C369.301 99.376 368.813 99.56 368.301 99.928C367.789 100.28 367.349 100.904 366.981 101.8V109H364.221ZM377.98 109.288C376.892 109.288 375.908 109.048 375.028 108.568C374.148 108.072 373.452 107.368 372.94 106.456C372.428 105.528 372.172 104.416 372.172 103.12C372.172 101.84 372.428 100.736 372.94 99.808C373.468 98.88 374.148 98.168 374.98 97.672C375.812 97.176 376.684 96.928 377.596 96.928C378.668 96.928 379.564 97.168 380.284 97.648C381.004 98.112 381.548 98.768 381.916 99.616C382.284 100.448 382.468 101.416 382.468 102.52C382.468 103.096 382.428 103.544 382.348 103.864H374.86C374.988 104.904 375.364 105.712 375.988 106.288C376.612 106.864 377.396 107.152 378.34 107.152C378.852 107.152 379.324 107.08 379.756 106.936C380.204 106.776 380.644 106.56 381.076 106.288L382.012 108.016C381.452 108.384 380.828 108.688 380.14 108.928C379.452 109.168 378.732 109.288 377.98 109.288ZM374.836 101.992H380.068C380.068 101.08 379.868 100.368 379.468 99.856C379.068 99.328 378.468 99.064 377.668 99.064C376.98 99.064 376.364 99.32 375.82 99.832C375.292 100.328 374.964 101.048 374.836 101.992ZM388.392 109.288C387.592 109.288 386.792 109.136 385.992 108.832C385.192 108.512 384.504 108.12 383.928 107.656L385.224 105.88C385.752 106.28 386.28 106.6 386.808 106.84C387.336 107.08 387.896 107.2 388.488 107.2C389.128 107.2 389.6 107.064 389.904 106.792C390.208 106.52 390.36 106.184 390.36 105.784C390.36 105.448 390.232 105.176 389.976 104.968C389.736 104.744 389.424 104.552 389.04 104.392C388.656 104.216 388.256 104.048 387.84 103.888C387.328 103.696 386.816 103.464 386.304 103.192C385.808 102.904 385.4 102.544 385.08 102.112C384.76 101.664 384.6 101.112 384.6 100.456C384.6 99.416 384.984 98.568 385.752 97.912C386.52 97.256 387.56 96.928 388.872 96.928C389.704 96.928 390.448 97.072 391.104 97.36C391.76 97.648 392.328 97.976 392.808 98.344L391.536 100.024C391.12 99.72 390.696 99.48 390.264 99.304C389.848 99.112 389.408 99.016 388.944 99.016C388.352 99.016 387.912 99.144 387.624 99.4C387.336 99.64 387.192 99.944 387.192 100.312C387.192 100.776 387.432 101.128 387.912 101.368C388.392 101.608 388.952 101.84 389.592 102.064C390.136 102.256 390.664 102.496 391.176 102.784C391.688 103.056 392.112 103.416 392.448 103.864C392.8 104.312 392.976 104.904 392.976 105.64C392.976 106.648 392.584 107.512 391.8 108.232C391.016 108.936 389.88 109.288 388.392 109.288ZM400.48 109.288C399.392 109.288 398.408 109.048 397.528 108.568C396.648 108.072 395.952 107.368 395.44 106.456C394.928 105.528 394.672 104.416 394.672 103.12C394.672 101.84 394.928 100.736 395.44 99.808C395.968 98.88 396.648 98.168 397.48 97.672C398.312 97.176 399.184 96.928 400.096 96.928C401.168 96.928 402.064 97.168 402.784 97.648C403.504 98.112 404.048 98.768 404.416 99.616C404.784 100.448 404.968 101.416 404.968 102.52C404.968 103.096 404.928 103.544 404.848 103.864H397.36C397.488 104.904 397.864 105.712 398.488 106.288C399.112 106.864 399.896 107.152 400.84 107.152C401.352 107.152 401.824 107.08 402.256 106.936C402.704 106.776 403.144 106.56 403.576 106.288L404.512 108.016C403.952 108.384 403.328 108.688 402.64 108.928C401.952 109.168 401.232 109.288 400.48 109.288ZM397.336 101.992H402.568C402.568 101.08 402.368 100.368 401.968 99.856C401.568 99.328 400.968 99.064 400.168 99.064C399.48 99.064 398.864 99.32 398.32 99.832C397.792 100.328 397.464 101.048 397.336 101.992ZM411.521 109.288C410.161 109.288 409.193 108.896 408.617 108.112C408.057 107.312 407.777 106.28 407.777 105.016V99.4H406.097V97.336L407.921 97.216L408.257 94H410.561V97.216H413.561V99.4H410.561V105.016C410.561 106.392 411.113 107.08 412.217 107.08C412.425 107.08 412.641 107.056 412.865 107.008C413.089 106.944 413.281 106.88 413.441 106.816L413.921 108.856C413.601 108.968 413.233 109.064 412.817 109.144C412.417 109.24 411.985 109.288 411.521 109.288ZM424.854 109.288C423.622 109.288 422.582 109.08 421.734 108.664C420.902 108.232 420.214 107.72 419.67 107.128L420.99 105.352C421.454 105.816 421.982 106.216 422.574 106.552C423.166 106.872 423.846 107.032 424.614 107.032C425.446 107.032 426.118 106.832 426.63 106.432C427.158 106.016 427.422 105.448 427.422 104.728C427.422 104.2 427.286 103.744 427.014 103.36C426.758 102.96 426.302 102.656 425.646 102.448C425.006 102.24 424.102 102.136 422.934 102.136V100.12C424.438 100.12 425.478 99.888 426.054 99.424C426.63 98.96 426.918 98.376 426.918 97.672C426.918 97.032 426.718 96.536 426.318 96.184C425.918 95.816 425.366 95.632 424.662 95.632C424.07 95.632 423.526 95.768 423.03 96.04C422.534 96.296 422.054 96.64 421.59 97.072L420.174 95.368C420.83 94.792 421.526 94.328 422.262 93.976C423.014 93.624 423.846 93.448 424.758 93.448C426.23 93.448 427.422 93.8 428.334 94.504C429.246 95.192 429.702 96.184 429.702 97.48C429.702 98.328 429.462 99.048 428.982 99.64C428.518 100.216 427.87 100.664 427.038 100.984V101.08C427.934 101.32 428.686 101.76 429.294 102.4C429.902 103.04 430.206 103.864 430.206 104.872C430.206 105.8 429.958 106.592 429.462 107.248C428.982 107.904 428.334 108.408 427.518 108.76C426.718 109.112 425.83 109.288 424.854 109.288Z" fill="#FCFCFD"/>
</g>
<g filter="url(#filter7_d_1510_1396)">
<rect x="190" y="180" width="120" height="120" rx="8" fill="#3956E5" shape-rendering="crispEdges"/>
<path d="M210.492 249V233.304H215.436C216.604 233.304 217.644 233.456 218.556 233.76C219.468 234.064 220.188 234.568 220.716 235.272C221.244 235.976 221.508 236.936 221.508 238.152C221.508 239.304 221.244 240.256 220.716 241.008C220.188 241.76 219.476 242.32 218.58 242.688C217.684 243.056 216.668 243.24 215.532 243.24H213.276V249H210.492ZM213.276 241.008H215.316C217.62 241.008 218.772 240.056 218.772 238.152C218.772 237.16 218.468 236.48 217.86 236.112C217.268 235.728 216.388 235.536 215.22 235.536H213.276V241.008ZM224.221 249V237.216H226.501L226.693 239.304H226.789C227.205 238.536 227.709 237.952 228.301 237.552C228.893 237.136 229.501 236.928 230.125 236.928C230.685 236.928 231.133 237.008 231.469 237.168L230.989 239.568C230.781 239.504 230.589 239.456 230.413 239.424C230.237 239.392 230.021 239.376 229.765 239.376C229.301 239.376 228.813 239.56 228.301 239.928C227.789 240.28 227.349 240.904 226.981 241.8V249H224.221ZM237.98 249.288C236.892 249.288 235.908 249.048 235.028 248.568C234.148 248.072 233.452 247.368 232.94 246.456C232.428 245.528 232.172 244.416 232.172 243.12C232.172 241.84 232.428 240.736 232.94 239.808C233.468 238.88 234.148 238.168 234.98 237.672C235.812 237.176 236.684 236.928 237.596 236.928C238.668 236.928 239.564 237.168 240.284 237.648C241.004 238.112 241.548 238.768 241.916 239.616C242.284 240.448 242.468 241.416 242.468 242.52C242.468 243.096 242.428 243.544 242.348 243.864H234.86C234.988 244.904 235.364 245.712 235.988 246.288C236.612 246.864 237.396 247.152 238.34 247.152C238.852 247.152 239.324 247.08 239.756 246.936C240.204 246.776 240.644 246.56 241.076 246.288L242.012 248.016C241.452 248.384 240.828 248.688 240.14 248.928C239.452 249.168 238.732 249.288 237.98 249.288ZM234.836 241.992H240.068C240.068 241.08 239.868 240.368 239.468 239.856C239.068 239.328 238.468 239.064 237.668 239.064C236.98 239.064 236.364 239.32 235.82 239.832C235.292 240.328 234.964 241.048 234.836 241.992ZM248.392 249.288C247.592 249.288 246.792 249.136 245.992 248.832C245.192 248.512 244.504 248.12 243.928 247.656L245.224 245.88C245.752 246.28 246.28 246.6 246.808 246.84C247.336 247.08 247.896 247.2 248.488 247.2C249.128 247.2 249.6 247.064 249.904 246.792C250.208 246.52 250.36 246.184 250.36 245.784C250.36 245.448 250.232 245.176 249.976 244.968C249.736 244.744 249.424 244.552 249.04 244.392C248.656 244.216 248.256 244.048 247.84 243.888C247.328 243.696 246.816 243.464 246.304 243.192C245.808 242.904 245.4 242.544 245.08 242.112C244.76 241.664 244.6 241.112 244.6 240.456C244.6 239.416 244.984 238.568 245.752 237.912C246.52 237.256 247.56 236.928 248.872 236.928C249.704 236.928 250.448 237.072 251.104 237.36C251.76 237.648 252.328 237.976 252.808 238.344L251.536 240.024C251.12 239.72 250.696 239.48 250.264 239.304C249.848 239.112 249.408 239.016 248.944 239.016C248.352 239.016 247.912 239.144 247.624 239.4C247.336 239.64 247.192 239.944 247.192 240.312C247.192 240.776 247.432 241.128 247.912 241.368C248.392 241.608 248.952 241.84 249.592 242.064C250.136 242.256 250.664 242.496 251.176 242.784C251.688 243.056 252.112 243.416 252.448 243.864C252.8 244.312 252.976 244.904 252.976 245.64C252.976 246.648 252.584 247.512 251.8 248.232C251.016 248.936 249.88 249.288 248.392 249.288ZM260.48 249.288C259.392 249.288 258.408 249.048 257.528 248.568C256.648 248.072 255.952 247.368 255.44 246.456C254.928 245.528 254.672 244.416 254.672 243.12C254.672 241.84 254.928 240.736 255.44 239.808C255.968 238.88 256.648 238.168 257.48 237.672C258.312 237.176 259.184 236.928 260.096 236.928C261.168 236.928 262.064 237.168 262.784 237.648C263.504 238.112 264.048 238.768 264.416 239.616C264.784 240.448 264.968 241.416 264.968 242.52C264.968 243.096 264.928 243.544 264.848 243.864H257.36C257.488 244.904 257.864 245.712 258.488 246.288C259.112 246.864 259.896 247.152 260.84 247.152C261.352 247.152 261.824 247.08 262.256 246.936C262.704 246.776 263.144 246.56 263.576 246.288L264.512 248.016C263.952 248.384 263.328 248.688 262.64 248.928C261.952 249.168 261.232 249.288 260.48 249.288ZM257.336 241.992H262.568C262.568 241.08 262.368 240.368 261.968 239.856C261.568 239.328 260.968 239.064 260.168 239.064C259.48 239.064 258.864 239.32 258.32 239.832C257.792 240.328 257.464 241.048 257.336 241.992ZM271.521 249.288C270.161 249.288 269.193 248.896 268.617 248.112C268.057 247.312 267.777 246.28 267.777 245.016V239.4H266.097V237.336L267.921 237.216L268.257 234H270.561V237.216H273.561V239.4H270.561V245.016C270.561 246.392 271.113 247.08 272.217 247.08C272.425 247.08 272.641 247.056 272.865 247.008C273.089 246.944 273.281 246.88 273.441 246.816L273.921 248.856C273.601 248.968 273.233 249.064 272.817 249.144C272.417 249.24 271.985 249.288 271.521 249.288ZM283.126 249C283.222 247.192 283.414 245.576 283.702 244.152C283.99 242.712 284.43 241.344 285.022 240.048C285.614 238.752 286.398 237.424 287.374 236.064H280.15V233.736H290.398V235.416C289.502 236.52 288.774 237.576 288.214 238.584C287.67 239.592 287.238 240.616 286.918 241.656C286.614 242.68 286.39 243.792 286.246 244.992C286.102 246.176 285.998 247.512 285.934 249H283.126Z" fill="#FCFCFD"/>
</g>
<g filter="url(#filter8_d_1510_1396)">
<rect x="470" y="40" width="120" height="120" rx="8" fill="#02C242" shape-rendering="crispEdges"/>
<path d="M490.492 109V93.304H495.436C496.604 93.304 497.644 93.456 498.556 93.76C499.468 94.064 500.188 94.568 500.716 95.272C501.244 95.976 501.508 96.936 501.508 98.152C501.508 99.304 501.244 100.256 500.716 101.008C500.188 101.76 499.476 102.32 498.58 102.688C497.684 103.056 496.668 103.24 495.532 103.24H493.276V109H490.492ZM493.276 101.008H495.316C497.62 101.008 498.772 100.056 498.772 98.152C498.772 97.16 498.468 96.48 497.86 96.112C497.268 95.728 496.388 95.536 495.22 95.536H493.276V101.008ZM504.221 109V97.216H506.501L506.693 99.304H506.789C507.205 98.536 507.709 97.952 508.301 97.552C508.893 97.136 509.501 96.928 510.125 96.928C510.685 96.928 511.133 97.008 511.469 97.168L510.989 99.568C510.781 99.504 510.589 99.456 510.413 99.424C510.237 99.392 510.021 99.376 509.765 99.376C509.301 99.376 508.813 99.56 508.301 99.928C507.789 100.28 507.349 100.904 506.981 101.8V109H504.221ZM517.98 109.288C516.892 109.288 515.908 109.048 515.028 108.568C514.148 108.072 513.452 107.368 512.94 106.456C512.428 105.528 512.172 104.416 512.172 103.12C512.172 101.84 512.428 100.736 512.94 99.808C513.468 98.88 514.148 98.168 514.98 97.672C515.812 97.176 516.684 96.928 517.596 96.928C518.668 96.928 519.564 97.168 520.284 97.648C521.004 98.112 521.548 98.768 521.916 99.616C522.284 100.448 522.468 101.416 522.468 102.52C522.468 103.096 522.428 103.544 522.348 103.864H514.86C514.988 104.904 515.364 105.712 515.988 106.288C516.612 106.864 517.396 107.152 518.34 107.152C518.852 107.152 519.324 107.08 519.756 106.936C520.204 106.776 520.644 106.56 521.076 106.288L522.012 108.016C521.452 108.384 520.828 108.688 520.14 108.928C519.452 109.168 518.732 109.288 517.98 109.288ZM514.836 101.992H520.068C520.068 101.08 519.868 100.368 519.468 99.856C519.068 99.328 518.468 99.064 517.668 99.064C516.98 99.064 516.364 99.32 515.82 99.832C515.292 100.328 514.964 101.048 514.836 101.992ZM528.392 109.288C527.592 109.288 526.792 109.136 525.992 108.832C525.192 108.512 524.504 108.12 523.928 107.656L525.224 105.88C525.752 106.28 526.28 106.6 526.808 106.84C527.336 107.08 527.896 107.2 528.488 107.2C529.128 107.2 529.6 107.064 529.904 106.792C530.208 106.52 530.36 106.184 530.36 105.784C530.36 105.448 530.232 105.176 529.976 104.968C529.736 104.744 529.424 104.552 529.04 104.392C528.656 104.216 528.256 104.048 527.84 103.888C527.328 103.696 526.816 103.464 526.304 103.192C525.808 102.904 525.4 102.544 525.08 102.112C524.76 101.664 524.6 101.112 524.6 100.456C524.6 99.416 524.984 98.568 525.752 97.912C526.52 97.256 527.56 96.928 528.872 96.928C529.704 96.928 530.448 97.072 531.104 97.36C531.76 97.648 532.328 97.976 532.808 98.344L531.536 100.024C531.12 99.72 530.696 99.48 530.264 99.304C529.848 99.112 529.408 99.016 528.944 99.016C528.352 99.016 527.912 99.144 527.624 99.4C527.336 99.64 527.192 99.944 527.192 100.312C527.192 100.776 527.432 101.128 527.912 101.368C528.392 101.608 528.952 101.84 529.592 102.064C530.136 102.256 530.664 102.496 531.176 102.784C531.688 103.056 532.112 103.416 532.448 103.864C532.8 104.312 532.976 104.904 532.976 105.64C532.976 106.648 532.584 107.512 531.8 108.232C531.016 108.936 529.88 109.288 528.392 109.288ZM540.48 109.288C539.392 109.288 538.408 109.048 537.528 108.568C536.648 108.072 535.952 107.368 535.44 106.456C534.928 105.528 534.672 104.416 534.672 103.12C534.672 101.84 534.928 100.736 535.44 99.808C535.968 98.88 536.648 98.168 537.48 97.672C538.312 97.176 539.184 96.928 540.096 96.928C541.168 96.928 542.064 97.168 542.784 97.648C543.504 98.112 544.048 98.768 544.416 99.616C544.784 100.448 544.968 101.416 544.968 102.52C544.968 103.096 544.928 103.544 544.848 103.864H537.36C537.488 104.904 537.864 105.712 538.488 106.288C539.112 106.864 539.896 107.152 540.84 107.152C541.352 107.152 541.824 107.08 542.256 106.936C542.704 106.776 543.144 106.56 543.576 106.288L544.512 108.016C543.952 108.384 543.328 108.688 542.64 108.928C541.952 109.168 541.232 109.288 540.48 109.288ZM537.336 101.992H542.568C542.568 101.08 542.368 100.368 541.968 99.856C541.568 99.328 540.968 99.064 540.168 99.064C539.48 99.064 538.864 99.32 538.32 99.832C537.792 100.328 537.464 101.048 537.336 101.992ZM551.521 109.288C550.161 109.288 549.193 108.896 548.617 108.112C548.057 107.312 547.777 106.28 547.777 105.016V99.4H546.097V97.336L547.921 97.216L548.257 94H550.561V97.216H553.561V99.4H550.561V105.016C550.561 106.392 551.113 107.08 552.217 107.08C552.425 107.08 552.641 107.056 552.865 107.008C553.089 106.944 553.281 106.88 553.441 106.816L553.921 108.856C553.601 108.968 553.233 109.064 552.817 109.144C552.417 109.24 551.985 109.288 551.521 109.288ZM562.262 102.928H566.27V99.472C566.27 99.024 566.286 98.496 566.318 97.888C566.35 97.28 566.374 96.752 566.39 96.304H566.294C566.102 96.704 565.902 97.096 565.694 97.48C565.486 97.864 565.27 98.264 565.046 98.68L562.262 102.928ZM566.27 109V105.064H559.526V103.192L565.574 93.736H568.862V102.928H570.782V105.064H568.862V109H566.27Z" fill="#FCFCFD"/>
</g>
<g filter="url(#filter9_d_1510_1396)">
<rect x="330" y="180" width="120" height="120" rx="8" fill="#9B50E5" shape-rendering="crispEdges"/>
<path d="M350.492 249V233.304H355.436C356.604 233.304 357.644 233.456 358.556 233.76C359.468 234.064 360.188 234.568 360.716 235.272C361.244 235.976 361.508 236.936 361.508 238.152C361.508 239.304 361.244 240.256 360.716 241.008C360.188 241.76 359.476 242.32 358.58 242.688C357.684 243.056 356.668 243.24 355.532 243.24H353.276V249H350.492ZM353.276 241.008H355.316C357.62 241.008 358.772 240.056 358.772 238.152C358.772 237.16 358.468 236.48 357.86 236.112C357.268 235.728 356.388 235.536 355.22 235.536H353.276V241.008ZM364.221 249V237.216H366.501L366.693 239.304H366.789C367.205 238.536 367.709 237.952 368.301 237.552C368.893 237.136 369.501 236.928 370.125 236.928C370.685 236.928 371.133 237.008 371.469 237.168L370.989 239.568C370.781 239.504 370.589 239.456 370.413 239.424C370.237 239.392 370.021 239.376 369.765 239.376C369.301 239.376 368.813 239.56 368.301 239.928C367.789 240.28 367.349 240.904 366.981 241.8V249H364.221ZM377.98 249.288C376.892 249.288 375.908 249.048 375.028 248.568C374.148 248.072 373.452 247.368 372.94 246.456C372.428 245.528 372.172 244.416 372.172 243.12C372.172 241.84 372.428 240.736 372.94 239.808C373.468 238.88 374.148 238.168 374.98 237.672C375.812 237.176 376.684 236.928 377.596 236.928C378.668 236.928 379.564 237.168 380.284 237.648C381.004 238.112 381.548 238.768 381.916 239.616C382.284 240.448 382.468 241.416 382.468 242.52C382.468 243.096 382.428 243.544 382.348 243.864H374.86C374.988 244.904 375.364 245.712 375.988 246.288C376.612 246.864 377.396 247.152 378.34 247.152C378.852 247.152 379.324 247.08 379.756 246.936C380.204 246.776 380.644 246.56 381.076 246.288L382.012 248.016C381.452 248.384 380.828 248.688 380.14 248.928C379.452 249.168 378.732 249.288 377.98 249.288ZM374.836 241.992H380.068C380.068 241.08 379.868 240.368 379.468 239.856C379.068 239.328 378.468 239.064 377.668 239.064C376.98 239.064 376.364 239.32 375.82 239.832C375.292 240.328 374.964 241.048 374.836 241.992ZM388.392 249.288C387.592 249.288 386.792 249.136 385.992 248.832C385.192 248.512 384.504 248.12 383.928 247.656L385.224 245.88C385.752 246.28 386.28 246.6 386.808 246.84C387.336 247.08 387.896 247.2 388.488 247.2C389.128 247.2 389.6 247.064 389.904 246.792C390.208 246.52 390.36 246.184 390.36 245.784C390.36 245.448 390.232 245.176 389.976 244.968C389.736 244.744 389.424 244.552 389.04 244.392C388.656 244.216 388.256 244.048 387.84 243.888C387.328 243.696 386.816 243.464 386.304 243.192C385.808 242.904 385.4 242.544 385.08 242.112C384.76 241.664 384.6 241.112 384.6 240.456C384.6 239.416 384.984 238.568 385.752 237.912C386.52 237.256 387.56 236.928 388.872 236.928C389.704 236.928 390.448 237.072 391.104 237.36C391.76 237.648 392.328 237.976 392.808 238.344L391.536 240.024C391.12 239.72 390.696 239.48 390.264 239.304C389.848 239.112 389.408 239.016 388.944 239.016C388.352 239.016 387.912 239.144 387.624 239.4C387.336 239.64 387.192 239.944 387.192 240.312C387.192 240.776 387.432 241.128 387.912 241.368C388.392 241.608 388.952 241.84 389.592 242.064C390.136 242.256 390.664 242.496 391.176 242.784C391.688 243.056 392.112 243.416 392.448 243.864C392.8 244.312 392.976 244.904 392.976 245.64C392.976 246.648 392.584 247.512 391.8 248.232C391.016 248.936 389.88 249.288 388.392 249.288ZM400.48 249.288C399.392 249.288 398.408 249.048 397.528 248.568C396.648 248.072 395.952 247.368 395.44 246.456C394.928 245.528 394.672 244.416 394.672 243.12C394.672 241.84 394.928 240.736 395.44 239.808C395.968 238.88 396.648 238.168 397.48 237.672C398.312 237.176 399.184 236.928 400.096 236.928C401.168 236.928 402.064 237.168 402.784 237.648C403.504 238.112 404.048 238.768 404.416 239.616C404.784 240.448 404.968 241.416 404.968 242.52C404.968 243.096 404.928 243.544 404.848 243.864H397.36C397.488 244.904 397.864 245.712 398.488 246.288C399.112 246.864 399.896 247.152 400.84 247.152C401.352 247.152 401.824 247.08 402.256 246.936C402.704 246.776 403.144 246.56 403.576 246.288L404.512 248.016C403.952 248.384 403.328 248.688 402.64 248.928C401.952 249.168 401.232 249.288 400.48 249.288ZM397.336 241.992H402.568C402.568 241.08 402.368 240.368 401.968 239.856C401.568 239.328 400.968 239.064 400.168 239.064C399.48 239.064 398.864 239.32 398.32 239.832C397.792 240.328 397.464 241.048 397.336 241.992ZM411.521 249.288C410.161 249.288 409.193 248.896 408.617 248.112C408.057 247.312 407.777 246.28 407.777 245.016V239.4H406.097V237.336L407.921 237.216L408.257 234H410.561V237.216H413.561V239.4H410.561V245.016C410.561 246.392 411.113 247.08 412.217 247.08C412.425 247.08 412.641 247.056 412.865 247.008C413.089 246.944 413.281 246.88 413.441 246.816L413.921 248.856C413.601 248.968 413.233 249.064 412.817 249.144C412.417 249.24 411.985 249.288 411.521 249.288ZM425.262 249.288C424.27 249.288 423.382 249.112 422.598 248.76C421.814 248.392 421.198 247.896 420.75 247.272C420.302 246.648 420.078 245.92 420.078 245.088C420.078 244.144 420.358 243.352 420.918 242.712C421.478 242.072 422.118 241.56 422.838 241.176V241.08C422.246 240.664 421.742 240.168 421.326 239.592C420.926 239 420.726 238.304 420.726 237.504C420.726 236.672 420.926 235.96 421.326 235.368C421.726 234.76 422.27 234.288 422.958 233.952C423.662 233.616 424.454 233.448 425.334 233.448C426.71 233.448 427.798 233.832 428.598 234.6C429.414 235.352 429.822 236.344 429.822 237.576C429.822 238.328 429.606 239.008 429.174 239.616C428.742 240.224 428.278 240.712 427.782 241.08V241.176C428.486 241.576 429.102 242.08 429.63 242.688C430.158 243.296 430.422 244.112 430.422 245.136C430.422 245.92 430.206 246.624 429.774 247.248C429.342 247.872 428.742 248.368 427.974 248.736C427.206 249.104 426.302 249.288 425.262 249.288ZM426.27 240.384C426.686 239.968 426.998 239.544 427.206 239.112C427.43 238.68 427.542 238.224 427.542 237.744C427.542 237.072 427.342 236.52 426.942 236.088C426.542 235.64 425.99 235.416 425.286 235.416C424.694 235.416 424.198 235.6 423.798 235.968C423.398 236.336 423.198 236.848 423.198 237.504C423.198 238.016 423.334 238.448 423.606 238.8C423.878 239.136 424.246 239.432 424.71 239.688C425.19 239.928 425.71 240.16 426.27 240.384ZM425.31 247.32C426.046 247.32 426.646 247.12 427.11 246.72C427.59 246.304 427.83 245.744 427.83 245.04C427.83 244.48 427.662 244.024 427.326 243.672C427.006 243.32 426.566 243.016 426.006 242.76C425.462 242.488 424.846 242.216 424.158 241.944C423.678 242.296 423.278 242.712 422.958 243.192C422.654 243.672 422.502 244.208 422.502 244.8C422.502 245.552 422.774 246.16 423.318 246.624C423.862 247.088 424.526 247.32 425.31 247.32Z" fill="#FCFCFD"/>
</g>
<defs>
<filter id="filter0_d_1510_1396" x="46" y="36" width="128" height="128" filterUnits="userSpaceOnUse" color-interpolation-filters="sRGB">
<feFlood flood-opacity="0" result="BackgroundImageFix"/>
<feColorMatrix in="SourceAlpha" type="matrix" values="0 0 0 0 0 0 0 0 0 0 0 0 0 0 0 0 0 0 127 0" result="hardAlpha"/>
<feOffset/>
<feGaussianBlur stdDeviation="2"/>
<feComposite in2="hardAlpha" operator="out"/>
<feColorMatrix type="matrix" values="0 0 0 0 0 0 0 0 0 0 0 0 0 0 0 0 0 0 0.15 0"/>
<feBlend mode="normal" in2="BackgroundImageFix" result="effect1_dropShadow_1510_1396"/>
<feBlend mode="normal" in="SourceGraphic" in2="effect1_dropShadow_1510_1396" result="shape"/>
</filter>
<filter id="filter1_d_1510_1396" x="606" y="36" width="128" height="128" filterUnits="userSpaceOnUse" color-interpolation-filters="sRGB">
<feFlood flood-opacity="0" result="BackgroundImageFix"/>
<feColorMatrix in="SourceAlpha" type="matrix" values="0 0 0 0 0 0 0 0 0 0 0 0 0 0 0 0 0 0 127 0" result="hardAlpha"/>
<feOffset/>
<feGaussianBlur stdDeviation="2"/>
<feComposite in2="hardAlpha" operator="out"/>
<feColorMatrix type="matrix" values="0 0 0 0 0 0 0 0 0 0 0 0 0 0 0 0 0 0 0.15 0"/>
<feBlend mode="normal" in2="BackgroundImageFix" result="effect1_dropShadow_1510_1396"/>
<feBlend mode="normal" in="SourceGraphic" in2="effect1_dropShadow_1510_1396" result="shape"/>
</filter>
<filter id="filter2_d_1510_1396" x="466" y="176" width="128" height="128" filterUnits="userSpaceOnUse" color-interpolation-filters="sRGB">
<feFlood flood-opacity="0" result="BackgroundImageFix"/>
<feColorMatrix in="SourceAlpha" type="matrix" values="0 0 0 0 0 0 0 0 0 0 0 0 0 0 0 0 0 0 127 0" result="hardAlpha"/>
<feOffset/>
<feGaussianBlur stdDeviation="2"/>
<feComposite in2="hardAlpha" operator="out"/>
<feColorMatrix type="matrix" values="0 0 0 0 0 0 0 0 0 0 0 0 0 0 0 0 0 0 0.15 0"/>
<feBlend mode="normal" in2="BackgroundImageFix" result="effect1_dropShadow_1510_1396"/>
<feBlend mode="normal" in="SourceGraphic" in2="effect1_dropShadow_1510_1396" result="shape"/>
</filter>
<filter id="filter3_d_1510_1396" x="186" y="36" width="128" height="128" filterUnits="userSpaceOnUse" color-interpolation-filters="sRGB">
<feFlood flood-opacity="0" result="BackgroundImageFix"/>
<feColorMatrix in="SourceAlpha" type="matrix" values="0 0 0 0 0 0 0 0 0 0 0 0 0 0 0 0 0 0 127 0" result="hardAlpha"/>
<feOffset/>
<feGaussianBlur stdDeviation="2"/>
<feComposite in2="hardAlpha" operator="out"/>
<feColorMatrix type="matrix" values="0 0 0 0 0 0 0 0 0 0 0 0 0 0 0 0 0 0 0.15 0"/>
<feBlend mode="normal" in2="BackgroundImageFix" result="effect1_dropShadow_1510_1396"/>
<feBlend mode="normal" in="SourceGraphic" in2="effect1_dropShadow_1510_1396" result="shape"/>
</filter>
<filter id="filter4_d_1510_1396" x="46" y="176" width="128" height="128" filterUnits="userSpaceOnUse" color-interpolation-filters="sRGB">
<feFlood flood-opacity="0" result="BackgroundImageFix"/>
<feColorMatrix in="SourceAlpha" type="matrix" values="0 0 0 0 0 0 0 0 0 0 0 0 0 0 0 0 0 0 127 0" result="hardAlpha"/>
<feOffset/>
<feGaussianBlur stdDeviation="2"/>
<feComposite in2="hardAlpha" operator="out"/>
<feColorMatrix type="matrix" values="0 0 0 0 0 0 0 0 0 0 0 0 0 0 0 0 0 0 0.15 0"/>
<feBlend mode="normal" in2="BackgroundImageFix" result="effect1_dropShadow_1510_1396"/>
<feBlend mode="normal" in="SourceGraphic" in2="effect1_dropShadow_1510_1396" result="shape"/>
</filter>
<filter id="filter5_d_1510_1396" x="606" y="176" width="128" height="128" filterUnits="userSpaceOnUse" color-interpolation-filters="sRGB">
<feFlood flood-opacity="0" result="BackgroundImageFix"/>
<feColorMatrix in="SourceAlpha" type="matrix" values="0 0 0 0 0 0 0 0 0 0 0 0 0 0 0 0 0 0 127 0" result="hardAlpha"/>
<feOffset/>
<feGaussianBlur stdDeviation="2"/>
<feComposite in2="hardAlpha" operator="out"/>
<feColorMatrix type="matrix" values="0 0 0 0 0 0 0 0 0 0 0 0 0 0 0 0 0 0 0.15 0"/>
<feBlend mode="normal" in2="BackgroundImageFix" result="effect1_dropShadow_1510_1396"/>
<feBlend mode="normal" in="SourceGraphic" in2="effect1_dropShadow_1510_1396" result="shape"/>
</filter>
<filter id="filter6_d_1510_1396" x="326" y="36" width="128" height="128" filterUnits="userSpaceOnUse" color-interpolation-filters="sRGB">
<feFlood flood-opacity="0" result="BackgroundImageFix"/>
<feColorMatrix in="SourceAlpha" type="matrix" values="0 0 0 0 0 0 0 0 0 0 0 0 0 0 0 0 0 0 127 0" result="hardAlpha"/>
<feOffset/>
<feGaussianBlur stdDeviation="2"/>
<feComposite in2="hardAlpha" operator="out"/>
<feColorMatrix type="matrix" values="0 0 0 0 0 0 0 0 0 0 0 0 0 0 0 0 0 0 0.15 0"/>
<feBlend mode="normal" in2="BackgroundImageFix" result="effect1_dropShadow_1510_1396"/>
<feBlend mode="normal" in="SourceGraphic" in2="effect1_dropShadow_1510_1396" result="shape"/>
</filter>
<filter id="filter7_d_1510_1396" x="186" y="176" width="128" height="128" filterUnits="userSpaceOnUse" color-interpolation-filters="sRGB">
<feFlood flood-opacity="0" result="BackgroundImageFix"/>
<feColorMatrix in="SourceAlpha" type="matrix" values="0 0 0 0 0 0 0 0 0 0 0 0 0 0 0 0 0 0 127 0" result="hardAlpha"/>
<feOffset/>
<feGaussianBlur stdDeviation="2"/>
<feComposite in2="hardAlpha" operator="out"/>
<feColorMatrix type="matrix" values="0 0 0 0 0 0 0 0 0 0 0 0 0 0 0 0 0 0 0.15 0"/>
<feBlend mode="normal" in2="BackgroundImageFix" result="effect1_dropShadow_1510_1396"/>
<feBlend mode="normal" in="SourceGraphic" in2="effect1_dropShadow_1510_1396" result="shape"/>
</filter>
<filter id="filter8_d_1510_1396" x="466" y="36" width="128" height="128" filterUnits="userSpaceOnUse" color-interpolation-filters="sRGB">
<feFlood flood-opacity="0" result="BackgroundImageFix"/>
<feColorMatrix in="SourceAlpha" type="matrix" values="0 0 0 0 0 0 0 0 0 0 0 0 0 0 0 0 0 0 127 0" result="hardAlpha"/>
<feOffset/>
<feGaussianBlur stdDeviation="2"/>
<feComposite in2="hardAlpha" operator="out"/>
<feColorMatrix type="matrix" values="0 0 0 0 0 0 0 0 0 0 0 0 0 0 0 0 0 0 0.15 0"/>
<feBlend mode="normal" in2="BackgroundImageFix" result="effect1_dropShadow_1510_1396"/>
<feBlend mode="normal" in="SourceGraphic" in2="effect1_dropShadow_1510_1396" result="shape"/>
</filter>
<filter id="filter9_d_1510_1396" x="326" y="176" width="128" height="128" filterUnits="userSpaceOnUse" color-interpolation-filters="sRGB">
<feFlood flood-opacity="0" result="BackgroundImageFix"/>
<feColorMatrix in="SourceAlpha" type="matrix" values="0 0 0 0 0 0 0 0 0 0 0 0 0 0 0 0 0 0 127 0" result="hardAlpha"/>
<feOffset/>
<feGaussianBlur stdDeviation="2"/>
<feComposite in2="hardAlpha" operator="out"/>
<feColorMatrix type="matrix" values="0 0 0 0 0 0 0 0 0 0 0 0 0 0 0 0 0 0 0.15 0"/>
<feBlend mode="normal" in2="BackgroundImageFix" result="effect1_dropShadow_1510_1396"/>
<feBlend mode="normal" in="SourceGraphic" in2="effect1_dropShadow_1510_1396" result="shape"/>
</filter>
</defs>
</svg>
